G04 DesignSpark PCB PRO Gerber Version 10.0 Build 5299*
G04 #@! TF.Part,Single*
G04 #@! TF.FileFunction,Legend,Top*
G04 #@! TF.FilePolarity,Positive*
%FSLAX35Y35*%
%MOIN*%
%ADD78C,0.00394*%
%ADD20C,0.00500*%
%ADD76C,0.00591*%
%ADD75C,0.00787*%
%ADD74C,0.00984*%
%ADD77C,0.01000*%
G04 #@! TD.AperFunction*
X0Y0D02*
D02*
D20*
X26860Y283647D02*
Y142847D01*
X42860Y126847D01*
X79660D01*
Y299647D01*
X42860D01*
X26860Y283647D01*
X84313Y218414D02*
X80563D01*
Y220601D01*
X80875Y221226D01*
X81500Y221539D01*
X82125Y221226D01*
X82437Y220601D01*
Y218414D01*
Y220601D02*
X84313Y221539D01*
X83375Y223414D02*
X82750Y223726D01*
X82437Y224351D01*
Y224976D01*
X82750Y225601D01*
X83375Y225914D01*
X84000Y225601D01*
X84313Y224976D01*
Y224351D01*
X84000Y223726D01*
X83375Y223414D01*
X82437D01*
X81500Y223726D01*
X80875Y224351D01*
X80563Y224976D01*
X84313Y228414D02*
X80563D01*
Y230601D01*
X80875Y231226D01*
X81500Y231539D01*
X82125Y231226D01*
X82437Y230601D01*
Y228414D01*
Y230601D02*
X84313Y231539D01*
X84000Y233414D02*
X84313Y234039D01*
Y234976D01*
X84000Y235601D01*
X83375Y235914D01*
X83063D01*
X82437Y235601D01*
X82125Y234976D01*
Y233414D01*
X80563D01*
Y235914D01*
X84313Y238414D02*
X80563D01*
Y240601D01*
X80875Y241226D01*
X81500Y241539D01*
X82125Y241226D01*
X82437Y240601D01*
Y238414D01*
Y240601D02*
X84313Y241539D01*
Y244976D02*
X80563D01*
X83063Y243414D01*
Y245914D01*
X84313Y248414D02*
X80563D01*
Y250601D01*
X80875Y251226D01*
X81500Y251539D01*
X82125Y251226D01*
X82437Y250601D01*
Y248414D01*
Y250601D02*
X84313Y251539D01*
X84000Y253726D02*
X84313Y254351D01*
Y254976D01*
X84000Y255601D01*
X83375Y255914D01*
X82750Y255601D01*
X82437Y254976D01*
Y254351D01*
Y254976D02*
X82125Y255601D01*
X81500Y255914D01*
X80875Y255601D01*
X80563Y254976D01*
Y254351D01*
X80875Y253726D01*
X84313Y258414D02*
X80563D01*
Y260601D01*
X80875Y261226D01*
X81500Y261539D01*
X82125Y261226D01*
X82437Y260601D01*
Y258414D01*
Y260601D02*
X84313Y261539D01*
Y265914D02*
Y263414D01*
X82125Y265601D01*
X81500Y265914D01*
X80875Y265601D01*
X80563Y264976D01*
Y264039D01*
X80875Y263414D01*
X84313Y268414D02*
X80563D01*
Y270601D01*
X80875Y271226D01*
X81500Y271539D01*
X82125Y271226D01*
X82437Y270601D01*
Y268414D01*
Y270601D02*
X84313Y271539D01*
Y274039D02*
Y275289D01*
Y274664D02*
X80563D01*
X81187Y274039D01*
X88063Y131539D02*
X87750Y131851D01*
X87437Y132476D01*
Y133414D01*
X87750Y134039D01*
X88063Y134351D01*
X88687Y134664D01*
X89937D01*
X90563Y134351D01*
X90875Y134039D01*
X91187Y133414D01*
Y132476D01*
X90875Y131851D01*
X90563Y131539D01*
X87437Y129039D02*
Y127789D01*
Y128414D02*
X91187D01*
X90563Y129039D01*
X86813Y164664D02*
X83063D01*
Y166539D01*
X83375Y167164D01*
X83687Y167476D01*
X84313Y167789D01*
X85563D01*
X86187Y167476D01*
X86500Y167164D01*
X86813Y166539D01*
Y164664D01*
Y170289D02*
Y171539D01*
Y170914D02*
X83063D01*
X83687Y170289D01*
X90250Y173414D02*
Y178414D01*
Y198414D02*
Y203414D01*
X92750Y219664D02*
X102750D01*
Y224664D01*
X92750D01*
Y219664D01*
Y222164D02*
X91500D01*
X92750Y229664D02*
X102750D01*
Y234664D01*
X92750D01*
Y229664D01*
Y232164D02*
X91500D01*
X92750Y239664D02*
X102750D01*
Y244664D01*
X92750D01*
Y239664D01*
Y242164D02*
X91500D01*
X92750Y249664D02*
X102750D01*
Y254664D01*
X92750D01*
Y249664D01*
Y252164D02*
X91500D01*
X92750Y259664D02*
X102750D01*
Y264664D01*
X92750D01*
Y259664D01*
Y262164D02*
X91500D01*
X92750Y269664D02*
X102750D01*
Y274664D01*
X92750D01*
Y269664D01*
Y272164D02*
X91500D01*
X92750Y304039D02*
X93063Y303414D01*
X93687Y303101D01*
X94937D01*
X95563Y303414D01*
X95875Y304039D01*
X95563Y304664D01*
X94937Y304976D01*
X93687D01*
X93063Y305289D01*
X92750Y305914D01*
X93063Y306539D01*
X93687Y306851D01*
X94937D01*
X95563Y306539D01*
X95875Y305914D01*
X97750Y306851D02*
X98063Y303101D01*
X99313Y304976D01*
X100563Y303101D01*
X100875Y306851D01*
X103375Y303101D02*
X104625D01*
X104000D02*
Y306851D01*
X103375Y306226D01*
X95250Y178414D02*
X85250D01*
Y198414D01*
X95250D01*
Y178414D01*
X98439Y287420D02*
G75*
G03*
Y299231I0J5906D01*
G01*
G75*
G03*
Y287420I0J-5906D01*
G01*
X102750Y222164D02*
X104000D01*
X102750Y232164D02*
X104000D01*
X102750Y242164D02*
X104000D01*
X102750Y252164D02*
X104000D01*
X102750Y262164D02*
X104000D01*
X102750Y272164D02*
X104000D01*
X103852Y301180D02*
X93026D01*
G75*
G03*
X90073Y298227I0J-2953D01*
G01*
Y288384D01*
G75*
G03*
X93026Y285431I2953J0D01*
G01*
X103852D01*
G75*
G03*
X106805Y288384I0J2953D01*
G01*
Y298227D01*
G75*
G03*
X103852Y301180I-2953J0D01*
G01*
X103063Y164664D02*
X99313D01*
Y166539D01*
X99625Y167164D01*
X99937Y167476D01*
X100563Y167789D01*
X101813D01*
X102437Y167476D01*
X102750Y167164D01*
X103063Y166539D01*
Y164664D01*
Y172164D02*
Y169664D01*
X100875Y171851D01*
X100250Y172164D01*
X99625Y171851D01*
X99313Y171226D01*
Y170289D01*
X99625Y169664D01*
X106500Y160664D02*
G75*
G02*
X122500Y144664I0J-16000D01*
G01*
G75*
G02*
X106500Y128664I-16000J0D01*
G01*
G75*
G02*
X90500Y144664I0J16000D01*
G01*
G75*
G02*
X106500Y160664I16000J0D01*
G01*
Y173414D02*
Y178414D01*
Y198414D02*
Y203414D01*
X111500Y178414D02*
X101500D01*
Y198414D01*
X111500D01*
Y178414D01*
X115687Y154664D02*
Y152164D01*
X114437Y153414D02*
X116937D01*
X127250Y145914D02*
X133250D01*
X127250Y148414D02*
X133250D01*
X126187Y136539D02*
X126500Y136226D01*
X126813Y135601D01*
Y134664D01*
X126500Y134039D01*
X126187Y133726D01*
X125563Y133414D01*
X124313D01*
X123687Y133726D01*
X123375Y134039D01*
X123063Y134664D01*
Y135601D01*
X123375Y136226D01*
X123687Y136539D01*
X126813Y140914D02*
Y138414D01*
X124625Y140601D01*
X124000Y140914D01*
X123375Y140601D01*
X123063Y139976D01*
Y139039D01*
X123375Y138414D01*
X130250Y141914D02*
Y145914D01*
Y148414D02*
Y152414D01*
X146813Y117164D02*
X143063D01*
Y119351D01*
X143375Y119976D01*
X144000Y120289D01*
X144625Y119976D01*
X144937Y119351D01*
Y117164D01*
Y119351D02*
X146813Y120289D01*
Y123726D02*
X143063D01*
Y122164D02*
Y125289D01*
X145875Y127164D02*
X146500Y127476D01*
X146813Y128101D01*
Y129351D01*
X146500Y129976D01*
X145875Y130289D01*
X145250Y129976D01*
X144937Y129351D01*
Y128101D01*
X144625Y127476D01*
X144000Y127164D01*
X143375Y127476D01*
X143063Y128101D01*
Y129351D01*
X143375Y129976D01*
X144000Y130289D01*
X156813Y117164D02*
X153063D01*
Y119351D01*
X153375Y119976D01*
X154000Y120289D01*
X154625Y119976D01*
X154937Y119351D01*
Y117164D01*
Y119351D02*
X156813Y120289D01*
Y122164D02*
X153063Y125289D01*
Y122164D02*
X156813Y125289D01*
Y127164D02*
X153063D01*
Y129039D01*
X153375Y129664D01*
X153687Y129976D01*
X154313Y130289D01*
X155563D01*
X156187Y129976D01*
X156500Y129664D01*
X156813Y129039D01*
Y127164D01*
X166813Y118726D02*
X163063D01*
Y117164D02*
Y120289D01*
X166813Y122164D02*
X163063Y125289D01*
Y122164D02*
X166813Y125289D01*
Y127164D02*
X163063D01*
Y129039D01*
X163375Y129664D01*
X163687Y129976D01*
X164313Y130289D01*
X165563D01*
X166187Y129976D01*
X166500Y129664D01*
X166813Y129039D01*
Y127164D01*
X173063Y117164D02*
X176813Y118726D01*
X173063Y120289D01*
X176187Y125289D02*
X176500Y124976D01*
X176813Y124351D01*
Y123414D01*
X176500Y122789D01*
X176187Y122476D01*
X175563Y122164D01*
X174313D01*
X173687Y122476D01*
X173375Y122789D01*
X173063Y123414D01*
Y124351D01*
X173375Y124976D01*
X173687Y125289D01*
X176187Y130289D02*
X176500Y129976D01*
X176813Y129351D01*
Y128414D01*
X176500Y127789D01*
X176187Y127476D01*
X175563Y127164D01*
X174313D01*
X173687Y127476D01*
X173375Y127789D01*
X173063Y128414D01*
Y129351D01*
X173375Y129976D01*
X173687Y130289D01*
X186187Y120289D02*
X186500Y119976D01*
X186813Y119351D01*
Y118414D01*
X186500Y117789D01*
X186187Y117476D01*
X185563Y117164D01*
X184313D01*
X183687Y117476D01*
X183375Y117789D01*
X183063Y118414D01*
Y119351D01*
X183375Y119976D01*
X183687Y120289D01*
X186813Y123726D02*
X183063D01*
Y122164D02*
Y125289D01*
X185875Y127164D02*
X186500Y127476D01*
X186813Y128101D01*
Y129351D01*
X186500Y129976D01*
X185875Y130289D01*
X185250Y129976D01*
X184937Y129351D01*
Y128101D01*
X184625Y127476D01*
X184000Y127164D01*
X183375Y127476D01*
X183063Y128101D01*
Y129351D01*
X183375Y129976D01*
X184000Y130289D01*
X195250Y119351D02*
Y120289D01*
X195563D01*
X196187Y119976D01*
X196500Y119664D01*
X196813Y119039D01*
Y118414D01*
X196500Y117789D01*
X196187Y117476D01*
X195563Y117164D01*
X194313D01*
X193687Y117476D01*
X193375Y117789D01*
X193063Y118414D01*
Y119039D01*
X193375Y119664D01*
X193687Y119976D01*
X194313Y120289D01*
X196813Y122164D02*
X193063D01*
X196813Y125289D01*
X193063D01*
X196813Y127164D02*
X193063D01*
Y129039D01*
X193375Y129664D01*
X193687Y129976D01*
X194313Y130289D01*
X195563D01*
X196187Y129976D01*
X196500Y129664D01*
X196813Y129039D01*
Y127164D01*
X147750Y149664D02*
G75*
G03*
X143550I-2100J0D01*
G01*
G75*
G03*
X147750I2100J0D01*
G01*
G36*
X147750Y149664D02*
G75*
G03*
X143550I-2100J0D01*
G01*
G75*
G03*
X147750I2100J0D01*
G01*
G37*
X162250Y215914D02*
X168250D01*
X162250Y218414D02*
X168250D01*
X163063Y289351D02*
Y290601D01*
Y289976D02*
X159313D01*
Y289351D02*
Y290601D01*
X162437Y296539D02*
X162750Y296226D01*
X163063Y295601D01*
Y294664D01*
X162750Y294039D01*
X162437Y293726D01*
X161813Y293414D01*
X160563D01*
X159937Y293726D01*
X159625Y294039D01*
X159313Y294664D01*
Y295601D01*
X159625Y296226D01*
X159937Y296539D01*
X163063Y299039D02*
Y300289D01*
Y299664D02*
X159313D01*
X159937Y299039D01*
X165250Y211914D02*
Y215914D01*
Y218414D02*
Y222414D01*
X166254Y148768D02*
Y151580D01*
X165941Y152205D01*
X165317Y152518D01*
X164067D01*
X163441Y152205D01*
X163129Y151580D01*
Y148768D01*
X160629Y152518D02*
X159379D01*
X160004D02*
Y148768D01*
X160629Y149393D01*
X172437Y205289D02*
X172750Y204976D01*
X173063Y204351D01*
Y203414D01*
X172750Y202789D01*
X172437Y202476D01*
X171813Y202164D01*
X170563D01*
X169937Y202476D01*
X169625Y202789D01*
X169313Y203414D01*
Y204351D01*
X169625Y204976D01*
X169937Y205289D01*
X172750Y207476D02*
X173063Y208101D01*
Y208726D01*
X172750Y209351D01*
X172125Y209664D01*
X171500Y209351D01*
X171187Y208726D01*
Y208101D01*
Y208726D02*
X170875Y209351D01*
X170250Y209664D01*
X169625Y209351D01*
X169313Y208726D01*
Y208101D01*
X169625Y207476D01*
X179313Y267476D02*
X177437D01*
X175563Y265914D01*
X177437Y267476D02*
X175563Y269039D01*
X179313Y271539D02*
Y272789D01*
Y272164D02*
X175563D01*
X176187Y271539D01*
X181187Y211539D02*
X181500Y211226D01*
X181813Y210601D01*
Y209664D01*
X181500Y209039D01*
X181187Y208726D01*
X180563Y208414D01*
X179313D01*
X178687Y208726D01*
X178375Y209039D01*
X178063Y209664D01*
Y210601D01*
X178375Y211226D01*
X178687Y211539D01*
X181813Y213414D02*
X178063D01*
X181813Y216539D01*
X178063D01*
X181813Y220914D02*
Y218414D01*
X179625Y220601D01*
X179000Y220914D01*
X178375Y220601D01*
X178063Y219976D01*
Y219039D01*
X178375Y218414D01*
X188754Y72361D02*
X153754D01*
Y65955D01*
X188754D01*
Y72361D01*
X202750D02*
X139758D01*
Y147164D01*
X202750D01*
Y72361D01*
X225801Y311839D02*
G75*
G02*
X233675Y303965I0J-7874D01*
G01*
Y122863D01*
G75*
G02*
X225801Y114989I-7874J0D01*
G01*
X44699D01*
G75*
G02*
X36825Y122863I0J7874D01*
G01*
Y303965D01*
G75*
G02*
X44699Y311839I7874J0D01*
G01*
X225801D01*
D02*
D74*
X56215Y302390D02*
X58183D01*
X57199D02*
Y308296D01*
X56215D02*
X58183D01*
X59128Y302390D02*
Y308296D01*
X64049Y302390D01*
Y308296D01*
X65033Y302390D02*
Y308296D01*
X68478D01*
X69463Y307804D01*
X69955Y306819D01*
X69463Y305835D01*
X68478Y305343D01*
X65033D01*
X70939Y308296D02*
Y303867D01*
X71431Y302882D01*
X72415Y302390D01*
X74384D01*
X75368Y302882D01*
X75860Y303867D01*
Y308296D01*
X79305Y302390D02*
Y308296D01*
X76844D02*
X81766D01*
X165024Y152754D02*
X159118D01*
Y156199D01*
X159610Y157183D01*
X160594Y157676D01*
X161579Y157183D01*
X162071Y156199D01*
Y152754D01*
X163547Y158660D02*
X164531Y159152D01*
X165024Y160136D01*
Y162105D01*
X164531Y163089D01*
X163547Y163581D01*
X162563Y163089D01*
X162071Y162105D01*
Y160136D01*
X161579Y159152D01*
X160594Y158660D01*
X159610Y159152D01*
X159118Y160136D01*
Y162105D01*
X159610Y163089D01*
X160594Y163581D01*
X165024Y164565D02*
Y166534D01*
Y165550D02*
X159118D01*
X160102Y164565D01*
X165024Y167479D02*
X159118D01*
Y170924D01*
X159610Y171908D01*
X160594Y172400D01*
X161579Y171908D01*
X162071Y170924D01*
Y167479D01*
X165024Y173384D02*
X159118Y175845D01*
X165024Y178306D01*
X162563Y174369D02*
Y177321D01*
X165024Y179290D02*
X159118D01*
Y182243D01*
X159610Y183227D01*
X160102Y183719D01*
X161087Y184211D01*
X163055D01*
X164039Y183719D01*
X164531Y183227D01*
X165024Y182243D01*
Y179290D01*
X161087Y188739D02*
Y191035D01*
X160102Y189887D02*
X164531D01*
X165024Y190379D01*
Y190871D01*
X164531Y191363D01*
X163547Y192282D02*
X164531Y192774D01*
X165024Y193758D01*
Y194743D01*
X164531Y195727D01*
X163547Y196219D01*
X162563D01*
X161579Y195727D01*
X161087Y194743D01*
Y193758D01*
X161579Y192774D01*
X162563Y192282D01*
X163547D01*
X172898Y158187D02*
X166992D01*
X169945Y160648D01*
X166992Y163109D01*
X172898D01*
X171421Y164093D02*
X172406Y164585D01*
X172898Y165569D01*
Y167538D01*
X172406Y168522D01*
X171421Y169014D01*
X170437Y168522D01*
X169945Y167538D01*
Y165569D01*
X169453Y164585D01*
X168469Y164093D01*
X167484Y164585D01*
X166992Y165569D01*
Y167538D01*
X167484Y168522D01*
X168469Y169014D01*
X172898Y169998D02*
X166992Y174920D01*
Y169998D02*
X172898Y174920D01*
Y179447D02*
X166992D01*
Y182892D01*
X167484Y183876D01*
X168469Y184369D01*
X169453Y183876D01*
X169945Y182892D01*
Y179447D01*
X172898Y185353D02*
X166992Y187813D01*
X172898Y190274D01*
X170437Y186337D02*
Y189290D01*
X172898Y191258D02*
X166992D01*
Y194211D01*
X167484Y195195D01*
X167976Y195687D01*
X168961Y196180D01*
X170929D01*
X171913Y195687D01*
X172406Y195195D01*
X172898Y194211D01*
Y191258D01*
X193567Y280609D02*
Y282577D01*
X194059Y283561D01*
X194551Y284054D01*
X195535Y284546D01*
X196520D01*
X197504Y284054D01*
X197996Y283561D01*
X198488Y282577D01*
Y280609D01*
X197996Y279624D01*
X197504Y279132D01*
X196520Y278640D01*
X195535D01*
X194551Y279132D01*
X194059Y279624D01*
X193567Y280609D01*
X199472Y284546D02*
Y280117D01*
X199965Y279132D01*
X200949Y278640D01*
X202917D01*
X203902Y279132D01*
X204394Y280117D01*
Y284546D01*
X207839Y278640D02*
Y284546D01*
X205378D02*
X210299D01*
X211283Y278640D02*
Y284546D01*
X214728D01*
X215713Y284054D01*
X216205Y283069D01*
X215713Y282085D01*
X214728Y281593D01*
X211283D01*
X217189Y284546D02*
Y280117D01*
X217681Y279132D01*
X218665Y278640D01*
X220634D01*
X221618Y279132D01*
X222110Y280117D01*
Y284546D01*
X225555Y278640D02*
Y284546D01*
X223094D02*
X228016D01*
D02*
D75*
X77893Y130914D02*
X73463D01*
Y133498D01*
X73833Y134236D01*
X74571Y134605D01*
X75309Y134236D01*
X75678Y133498D01*
Y130914D01*
X76785Y135343D02*
X77524Y135712D01*
X77893Y136450D01*
Y137927D01*
X77524Y138665D01*
X76785Y139034D01*
X76047Y138665D01*
X75678Y137927D01*
Y136450D01*
X75309Y135712D01*
X74571Y135343D01*
X73833Y135712D01*
X73463Y136450D01*
Y137927D01*
X73833Y138665D01*
X74571Y139034D01*
X77893Y139772D02*
X73463Y143463D01*
Y139772D02*
X77893Y143463D01*
Y146859D02*
X73463D01*
Y149443D01*
X73833Y150181D01*
X74571Y150550D01*
X75309Y150181D01*
X75678Y149443D01*
Y146859D01*
X77893Y151288D02*
X73463Y153133D01*
X77893Y154979D01*
X76047Y152026D02*
Y154241D01*
X77893Y155717D02*
X73463D01*
Y157931D01*
X73833Y158670D01*
X74202Y159039D01*
X74940Y159408D01*
X76416D01*
X77154Y159039D01*
X77524Y158670D01*
X77893Y157931D01*
Y155717D01*
X151248Y300664D02*
X121752D01*
X154354Y163664D02*
X121752D01*
X202750Y147021D02*
Y151450D01*
X204596Y149236D01*
X206441Y151450D01*
Y147021D01*
X207179Y148128D02*
X207548Y147390D01*
X208287Y147021D01*
X209763D01*
X210501Y147390D01*
X210870Y148128D01*
X210501Y148867D01*
X209763Y149236D01*
X208287D01*
X207548Y149605D01*
X207179Y150343D01*
X207548Y151081D01*
X208287Y151450D01*
X209763D01*
X210501Y151081D01*
X210870Y150343D01*
X211608Y147021D02*
X215299Y151450D01*
X211608D02*
X215299Y147021D01*
X218695D02*
Y151450D01*
X221279D01*
X222017Y151081D01*
X222386Y150343D01*
X222017Y149605D01*
X221279Y149236D01*
X218695D01*
X223124Y147021D02*
X224970Y151450D01*
X226815Y147021D01*
X223862Y148867D02*
X226077D01*
X227553Y147021D02*
Y151450D01*
X229768D01*
X230506Y151081D01*
X230875Y150712D01*
X231244Y149974D01*
Y148498D01*
X230875Y147759D01*
X230506Y147390D01*
X229768Y147021D01*
X227553D01*
D02*
D76*
X179313Y155914D02*
X175563D01*
X177437Y157476D01*
X175563Y159039D01*
X179313D01*
X177125Y159664D02*
X176813Y160289D01*
Y161226D01*
X177125Y161851D01*
X177750Y162164D01*
X178687D01*
X179000Y161851D01*
X179313Y161226D01*
Y160601D01*
X179000Y159976D01*
X178687Y159664D01*
X178375D01*
X178063Y159976D01*
X177750Y160601D01*
Y161226D01*
X178063Y161851D01*
X178375Y162164D01*
X178687D02*
X179313D01*
X177750Y165264D02*
X177125Y164951D01*
X176813Y164326D01*
Y163701D01*
X177125Y163076D01*
X177750Y162764D01*
X178375D01*
X179000Y163076D01*
X179313Y163701D01*
Y164326D01*
X179000Y164951D01*
X178375Y165264D01*
X179313D02*
X175563D01*
X179000Y168364D02*
X179313Y168051D01*
Y167426D01*
Y166801D01*
X179000Y166176D01*
X178375Y165864D01*
X177437D01*
X177125Y166176D01*
X176813Y166801D01*
Y167426D01*
X177125Y168051D01*
X177437Y168364D01*
X177750D01*
X178063Y168051D01*
X178375Y167426D01*
Y166801D01*
X178063Y166176D01*
X177750Y165864D01*
X178375Y171214D02*
X179000Y171526D01*
X179313Y172151D01*
Y172776D01*
X179000Y173401D01*
X178375Y173714D01*
X177750D01*
X177125Y173401D01*
X176813Y172776D01*
Y172151D01*
X177125Y171526D01*
X177750Y171214D01*
X179313D02*
X175563D01*
X176813Y174314D02*
X178063Y174626D01*
X178687Y175251D01*
Y175876D01*
X178063Y176501D01*
X176813Y176814D01*
X178063Y176501D02*
X179313Y176189D01*
X179937Y175876D01*
X180250Y175251D01*
X179937Y174626D01*
X179000Y182476D02*
X179313Y181851D01*
Y180601D01*
X179000Y179976D01*
X178375Y179664D01*
X176500D01*
X175875Y179976D01*
X175563Y180601D01*
Y181539D01*
X175875Y182164D01*
X176500Y182476D01*
X178063D01*
X178375Y182164D01*
X178063Y181851D01*
X176813D01*
X176500Y181539D01*
Y180601D01*
X176813Y180289D01*
X178063D01*
X178375Y180601D01*
Y181539D01*
X178063Y181851D01*
X176813Y183064D02*
X179313Y184314D01*
X176813Y185564D01*
X179313Y187101D02*
X179000Y187726D01*
X178375Y188351D01*
X177437Y188664D01*
X176500D01*
X175875Y188351D01*
X175563Y187726D01*
Y187101D01*
X175875Y186476D01*
X176500Y186164D01*
X177125Y186476D01*
X177437Y187101D01*
Y187726D01*
X177125Y188351D01*
X176500Y188664D01*
X179313Y190201D02*
X179000Y190826D01*
X178375Y191451D01*
X177437Y191764D01*
X176500D01*
X175875Y191451D01*
X175563Y190826D01*
Y190201D01*
X175875Y189576D01*
X176500Y189264D01*
X177125Y189576D01*
X177437Y190201D01*
Y190826D01*
X177125Y191451D01*
X176500Y191764D01*
X179000Y192364D02*
X179313Y192989D01*
Y193614D01*
X179000Y194239D01*
X178375Y194551D01*
X177750Y194239D01*
X177437Y193614D01*
Y192989D01*
Y193614D02*
X177125Y194239D01*
X176500Y194551D01*
X175875Y194239D01*
X175563Y193614D01*
Y192989D01*
X175875Y192364D01*
X177437Y196101D02*
Y196726D01*
X177125Y197351D01*
X176500Y197664D01*
X175875Y197351D01*
X175563Y196726D01*
Y196101D01*
X175875Y195476D01*
X176500Y195164D01*
X177125Y195476D01*
X177437Y196101D01*
X177750Y195476D01*
X178375Y195164D01*
X179000Y195476D01*
X179313Y196101D01*
Y196726D01*
X179000Y197351D01*
X178375Y197664D01*
X177750Y197351D01*
X177437Y196726D01*
D02*
D77*
X85550Y194914D02*
X94950D01*
X101800D02*
X111200D01*
X182075Y235527D02*
G75*
G02*
Y234970I0J-278D01*
G01*
Y235527D02*
G75*
G02*
Y234970I0J-278D01*
G01*
G75*
G02*
Y235527I0J278D01*
G01*
X184453Y152764D02*
X233665D01*
Y274063D01*
X184453D01*
Y152764D01*
X233665Y180107D02*
X256500D01*
Y246721D01*
X233665D01*
D02*
D78*
X160270Y247321D02*
G75*
G03*
X160663I197J0D01*
G01*
X160270D02*
G75*
G02*
X160663I197J0D01*
G01*
X173656Y272912D02*
Y241416D01*
X161844D01*
Y272912D01*
X173656D01*
X0Y0D02*
M02*
