G05
M48
;#@! TF.GenerationSoftware,DesignSpark,DesignSpark PCB PRO,10.0.5299
;#@! TF.CreationDate,2023-04-26T18:08:11--9:00*
;#@! TF.FileFunction,Plated,1,2,Buried
;FILE_FORMAT=3:5
;TYPE=PLATED
INCH,TZ
FMAT,2
T1C000.01181
T2C000.01600
T3C000.02874
T4C000.02886
T5C000.03200
T6C000.03500
T7C000.03937
T8C000.05906
T9C000.12008
%
T001
X1.12750Y2.04664
T002
X0.65250Y1.57164
X0.65250Y1.69664
X0.65250Y1.95914
X0.65250Y2.37164
X0.65250Y2.53414
X0.65250Y2.69664
X0.65250Y2.85914
X0.85250Y1.95914
X0.90250Y1.23414
X0.90250Y3.07164
X1.30250Y1.23414
X1.30250Y3.07164
X1.35250Y2.63414
X1.35250Y2.87164
X1.70250Y1.23414
X1.70250Y3.07164
X1.80250Y2.33414
X1.80250Y2.63414
X1.80250Y2.88414
X2.09000Y2.24664
X2.09000Y2.58414
X2.10250Y1.23414
X2.10250Y1.78414
X2.10250Y3.05914
X2.29000Y1.38414
X2.29000Y1.78414
X2.29000Y2.18414
X2.29000Y2.58414
T003
X1.67750Y2.47321
X1.67750Y2.57164
X1.67750Y2.67006
T004
X1.20874Y1.67164
X1.20874Y1.77164
X1.20874Y1.87164
X1.20874Y1.97164
X1.20874Y2.07164
X1.20874Y2.17164
X1.20874Y2.27164
X1.20874Y2.37164
X1.20874Y2.47164
X1.20874Y2.57164
X1.20874Y2.67164
X1.20874Y2.77164
X1.20874Y2.87164
X1.20874Y2.97164
X1.52126Y1.67164
X1.52126Y1.77164
X1.52126Y1.87164
X1.52126Y1.97164
X1.52126Y2.07164
X1.52126Y2.17164
X1.52126Y2.27164
X1.52126Y2.37164
X1.52126Y2.47164
X1.52126Y2.57164
X1.52126Y2.67164
X1.52126Y2.77164
X1.52126Y2.87164
X1.52126Y2.97164
T005
X0.90250Y1.68414
X0.90250Y2.08414
X1.06500Y1.37164
X1.06500Y1.52164
X1.06500Y1.68414
X1.06500Y2.08414
T006
X0.87750Y2.22164
X0.87750Y2.32164
X0.87750Y2.42164
X0.87750Y2.52164
X0.87750Y2.62164
X0.87750Y2.72164
X1.07750Y2.22164
X1.07750Y2.32164
X1.07750Y2.42164
X1.07750Y2.52164
X1.07750Y2.62164
X1.07750Y2.72164
X1.30250Y1.37164
X1.30250Y1.57164
X1.65250Y2.07164
X1.65250Y2.27164
T007
X0.85644Y2.84447
X0.85644Y3.02164
X1.11234Y2.84447
X1.11234Y3.02164
X1.46254Y1.38455
X1.56254Y1.38455
X1.66254Y1.38455
X1.76254Y1.38455
X1.86254Y1.38455
X1.90594Y1.91603
X1.90594Y2.02508
X1.90594Y2.13414
X1.90594Y2.24319
X1.90594Y2.35225
X1.96254Y1.38455
X2.01776Y1.97056
X2.01776Y2.07961
X2.01776Y2.18867
X2.01776Y2.29772
T008
X0.49260Y1.49247
X0.49260Y1.65247
X0.49260Y1.81247
X0.49260Y1.97247
X0.49260Y2.13247
X0.49260Y2.29247
X0.49260Y2.45247
X0.49260Y2.61247
X0.49260Y2.77247
X0.65260Y2.13247
T009
X1.96185Y1.64221
X1.96185Y2.62607
M30
