G04 DesignSpark PCB PRO Gerber Version 10.0 Build 5299*
G04 #@! TF.Part,Single*
G04 #@! TF.FileFunction,Drillmap*
G04 #@! TF.FilePolarity,Positive*
%FSLAX35Y35*%
%MOIN*%
%ADD20C,0.00500*%
G04 #@! TA.AperFunction,ViaPad*
%ADD73C,0.10000*%
G04 #@! TD.AperFunction*
X0Y0D02*
D02*
D20*
X58636Y132938D02*
X60198Y136688D01*
X61761Y132938D01*
X59261Y134500D02*
X61136D01*
X63636Y136688D02*
X65198Y132938D01*
X66761Y136688D01*
X58636Y306166D02*
X60198Y309916D01*
X61761Y306166D01*
X59261Y307729D02*
X61136D01*
X63636Y309916D02*
X65198Y306166D01*
X66761Y309916D01*
X59260Y158935D02*
X60822Y155185D01*
X62385Y158935D01*
X59260Y174935D02*
X60822Y171185D01*
X62385Y174935D01*
X59260Y190935D02*
X60822Y187185D01*
X62385Y190935D01*
X59260Y206935D02*
X60822Y203185D01*
X62385Y206935D01*
X59260Y222935D02*
X60822Y219185D01*
X62385Y222935D01*
X59260Y238935D02*
X60822Y235185D01*
X62385Y238935D01*
X59260Y254935D02*
X60822Y251185D01*
X62385Y254935D01*
X59260Y270935D02*
X60822Y267185D01*
X62385Y270935D01*
X59260Y286935D02*
X60822Y283185D01*
X62385Y286935D01*
X77437Y164664D02*
X78375D01*
Y164351D01*
X78063Y163726D01*
X77750Y163414D01*
X77125Y163101D01*
X76500D01*
X75875Y163414D01*
X75563Y163726D01*
X75250Y164351D01*
Y165601D01*
X75563Y166226D01*
X75875Y166539D01*
X76500Y166851D01*
X77125D01*
X77750Y166539D01*
X78063Y166226D01*
X78375Y165601D01*
X77437Y177164D02*
X78375D01*
Y176851D01*
X78063Y176226D01*
X77750Y175914D01*
X77125Y175601D01*
X76500D01*
X75875Y175914D01*
X75563Y176226D01*
X75250Y176851D01*
Y178101D01*
X75563Y178726D01*
X75875Y179039D01*
X76500Y179351D01*
X77125D01*
X77750Y179039D01*
X78063Y178726D01*
X78375Y178101D01*
X77437Y203414D02*
X78375D01*
Y203101D01*
X78063Y202476D01*
X77750Y202164D01*
X77125Y201851D01*
X76500D01*
X75875Y202164D01*
X75563Y202476D01*
X75250Y203101D01*
Y204351D01*
X75563Y204976D01*
X75875Y205289D01*
X76500Y205601D01*
X77125D01*
X77750Y205289D01*
X78063Y204976D01*
X78375Y204351D01*
X77437Y244664D02*
X78375D01*
Y244351D01*
X78063Y243726D01*
X77750Y243414D01*
X77125Y243101D01*
X76500D01*
X75875Y243414D01*
X75563Y243726D01*
X75250Y244351D01*
Y245601D01*
X75563Y246226D01*
X75875Y246539D01*
X76500Y246851D01*
X77125D01*
X77750Y246539D01*
X78063Y246226D01*
X78375Y245601D01*
X77437Y260914D02*
X78375D01*
Y260601D01*
X78063Y259976D01*
X77750Y259664D01*
X77125Y259351D01*
X76500D01*
X75875Y259664D01*
X75563Y259976D01*
X75250Y260601D01*
Y261851D01*
X75563Y262476D01*
X75875Y262789D01*
X76500Y263101D01*
X77125D01*
X77750Y262789D01*
X78063Y262476D01*
X78375Y261851D01*
X77437Y277164D02*
X78375D01*
Y276851D01*
X78063Y276226D01*
X77750Y275914D01*
X77125Y275601D01*
X76500D01*
X75875Y275914D01*
X75563Y276226D01*
X75250Y276851D01*
Y278101D01*
X75563Y278726D01*
X75875Y279039D01*
X76500Y279351D01*
X77125D01*
X77750Y279039D01*
X78063Y278726D01*
X78375Y278101D01*
X77437Y293414D02*
X78375D01*
Y293101D01*
X78063Y292476D01*
X77750Y292164D01*
X77125Y291851D01*
X76500D01*
X75875Y292164D01*
X75563Y292476D01*
X75250Y293101D01*
Y294351D01*
X75563Y294976D01*
X75875Y295289D01*
X76500Y295601D01*
X77125D01*
X77750Y295289D01*
X78063Y294976D01*
X78375Y294351D01*
X75260Y222935D02*
X76822Y219185D01*
X78385Y222935D01*
X97437Y203414D02*
X98375D01*
Y203101D01*
X98063Y202476D01*
X97750Y202164D01*
X97125Y201851D01*
X96500D01*
X95875Y202164D01*
X95563Y202476D01*
X95250Y203101D01*
Y204351D01*
X95563Y204976D01*
X95875Y205289D01*
X96500Y205601D01*
X97125D01*
X97750Y205289D01*
X98063Y204976D01*
X98375Y204351D01*
X98769Y291010D02*
X98456Y290697D01*
X97831Y290385D01*
X96894D01*
X96269Y290697D01*
X95956Y291010D01*
X95644Y291635D01*
Y292885D01*
X95956Y293510D01*
X96269Y293822D01*
X96894Y294135D01*
X97831D01*
X98456Y293822D01*
X98769Y293510D01*
Y308726D02*
X98456Y308414D01*
X97831Y308101D01*
X96894D01*
X96269Y308414D01*
X95956Y308726D01*
X95644Y309351D01*
Y310601D01*
X95956Y311226D01*
X96269Y311539D01*
X96894Y311851D01*
X97831D01*
X98456Y311539D01*
X98769Y311226D01*
X97750Y228101D02*
Y231851D01*
Y229976D02*
X98687D01*
X100875Y231851D01*
X98687Y229976D02*
X100875Y228101D01*
X97750Y238101D02*
Y241851D01*
Y239976D02*
X98687D01*
X100875Y241851D01*
X98687Y239976D02*
X100875Y238101D01*
X97750Y248101D02*
Y251851D01*
Y249976D02*
X98687D01*
X100875Y251851D01*
X98687Y249976D02*
X100875Y248101D01*
X97750Y258101D02*
Y261851D01*
Y259976D02*
X98687D01*
X100875Y261851D01*
X98687Y259976D02*
X100875Y258101D01*
X97750Y268101D02*
Y271851D01*
Y269976D02*
X98687D01*
X100875Y271851D01*
X98687Y269976D02*
X100875Y268101D01*
X97750Y278101D02*
Y281851D01*
Y279976D02*
X98687D01*
X100875Y281851D01*
X98687Y279976D02*
X100875Y278101D01*
X102437Y130914D02*
X103375D01*
Y130601D01*
X103063Y129976D01*
X102750Y129664D01*
X102125Y129351D01*
X101500D01*
X100875Y129664D01*
X100563Y129976D01*
X100250Y130601D01*
Y131851D01*
X100563Y132476D01*
X100875Y132789D01*
X101500Y133101D01*
X102125D01*
X102750Y132789D01*
X103063Y132476D01*
X103375Y131851D01*
X100250Y174351D02*
Y178101D01*
X102437D01*
X103063Y177789D01*
X103375Y177164D01*
X103063Y176539D01*
X102437Y176226D01*
X100250D01*
X102437D02*
X103375Y174351D01*
X100250Y214351D02*
Y218101D01*
X102437D01*
X103063Y217789D01*
X103375Y217164D01*
X103063Y216539D01*
X102437Y216226D01*
X100250D01*
X102437D02*
X103375Y214351D01*
X102437Y314664D02*
X103375D01*
Y314351D01*
X103063Y313726D01*
X102750Y313414D01*
X102125Y313101D01*
X101500D01*
X100875Y313414D01*
X100563Y313726D01*
X100250Y314351D01*
Y315601D01*
X100563Y316226D01*
X100875Y316539D01*
X101500Y316851D01*
X102125D01*
X102750Y316539D01*
X103063Y316226D01*
X103375Y315601D01*
X116500Y143101D02*
Y146851D01*
X118687D01*
X119313Y146539D01*
X119625Y145914D01*
X119313Y145289D01*
X118687Y144976D01*
X116500D01*
X118687D02*
X119625Y143101D01*
X116500Y158101D02*
Y161851D01*
X118687D01*
X119313Y161539D01*
X119625Y160914D01*
X119313Y160289D01*
X118687Y159976D01*
X116500D01*
X118687D02*
X119625Y158101D01*
X116500Y174351D02*
Y178101D01*
X118687D01*
X119313Y177789D01*
X119625Y177164D01*
X119313Y176539D01*
X118687Y176226D01*
X116500D01*
X118687D02*
X119625Y174351D01*
X116500Y214351D02*
Y218101D01*
X118687D01*
X119313Y217789D01*
X119625Y217164D01*
X119313Y216539D01*
X118687Y216226D01*
X116500D01*
X118687D02*
X119625Y214351D01*
X117750Y228101D02*
Y231851D01*
Y229976D02*
X118687D01*
X120875Y231851D01*
X118687Y229976D02*
X120875Y228101D01*
X117750Y238101D02*
Y241851D01*
Y239976D02*
X118687D01*
X120875Y241851D01*
X118687Y239976D02*
X120875Y238101D01*
X117750Y248101D02*
Y251851D01*
Y249976D02*
X118687D01*
X120875Y251851D01*
X118687Y249976D02*
X120875Y248101D01*
X117750Y258101D02*
Y261851D01*
Y259976D02*
X118687D01*
X120875Y261851D01*
X118687Y259976D02*
X120875Y258101D01*
X117750Y268101D02*
Y271851D01*
Y269976D02*
X118687D01*
X120875Y271851D01*
X118687Y269976D02*
X120875Y268101D01*
X117750Y278101D02*
Y281851D01*
Y279976D02*
X118687D01*
X120875Y281851D01*
X118687Y279976D02*
X120875Y278101D01*
X124359Y291010D02*
X124047Y290697D01*
X123422Y290385D01*
X122484D01*
X121859Y290697D01*
X121547Y291010D01*
X121234Y291635D01*
Y292885D01*
X121547Y293510D01*
X121859Y293822D01*
X122484Y294135D01*
X123422D01*
X124047Y293822D01*
X124359Y293510D01*
Y308726D02*
X124047Y308414D01*
X123422Y308101D01*
X122484D01*
X121859Y308414D01*
X121547Y308726D01*
X121234Y309351D01*
Y310601D01*
X121547Y311226D01*
X121859Y311539D01*
X122484Y311851D01*
X123422D01*
X124047Y311539D01*
X124359Y311226D01*
X122750Y210601D02*
Y214351D01*
X125875D01*
X125250Y212476D02*
X122750D01*
Y210601D02*
X125875D01*
X130874Y173101D02*
X132437Y176851D01*
X133999Y173101D01*
X131499Y174664D02*
X133374D01*
X137437Y173101D02*
Y176851D01*
X135874D02*
X138999D01*
X130874Y183101D02*
X132437Y186851D01*
X133999Y183101D01*
X131499Y184664D02*
X133374D01*
X137437Y183101D02*
Y186851D01*
X135874D02*
X138999D01*
X130874Y193101D02*
X132437Y196851D01*
X133999Y193101D01*
X131499Y194664D02*
X133374D01*
X137437Y193101D02*
Y196851D01*
X135874D02*
X138999D01*
X130874Y203101D02*
X132437Y206851D01*
X133999Y203101D01*
X131499Y204664D02*
X133374D01*
X137437Y203101D02*
Y206851D01*
X135874D02*
X138999D01*
X130874Y213101D02*
X132437Y216851D01*
X133999Y213101D01*
X131499Y214664D02*
X133374D01*
X137437Y213101D02*
Y216851D01*
X135874D02*
X138999D01*
X130874Y223101D02*
X132437Y226851D01*
X133999Y223101D01*
X131499Y224664D02*
X133374D01*
X137437Y223101D02*
Y226851D01*
X135874D02*
X138999D01*
X130874Y233101D02*
X132437Y236851D01*
X133999Y233101D01*
X131499Y234664D02*
X133374D01*
X137437Y233101D02*
Y236851D01*
X135874D02*
X138999D01*
X130874Y243101D02*
X132437Y246851D01*
X133999Y243101D01*
X131499Y244664D02*
X133374D01*
X137437Y243101D02*
Y246851D01*
X135874D02*
X138999D01*
X130874Y253101D02*
X132437Y256851D01*
X133999Y253101D01*
X131499Y254664D02*
X133374D01*
X137437Y253101D02*
Y256851D01*
X135874D02*
X138999D01*
X130874Y263101D02*
X132437Y266851D01*
X133999Y263101D01*
X131499Y264664D02*
X133374D01*
X137437Y263101D02*
Y266851D01*
X135874D02*
X138999D01*
X130874Y273101D02*
X132437Y276851D01*
X133999Y273101D01*
X131499Y274664D02*
X133374D01*
X137437Y273101D02*
Y276851D01*
X135874D02*
X138999D01*
X130874Y283101D02*
X132437Y286851D01*
X133999Y283101D01*
X131499Y284664D02*
X133374D01*
X137437Y283101D02*
Y286851D01*
X135874D02*
X138999D01*
X130874Y293101D02*
X132437Y296851D01*
X133999Y293101D01*
X131499Y294664D02*
X133374D01*
X137437Y293101D02*
Y296851D01*
X135874D02*
X138999D01*
X130874Y303101D02*
X132437Y306851D01*
X133999Y303101D01*
X131499Y304664D02*
X133374D01*
X137437Y303101D02*
Y306851D01*
X135874D02*
X138999D01*
X142437Y130914D02*
X143375D01*
Y130601D01*
X143063Y129976D01*
X142750Y129664D01*
X142125Y129351D01*
X141500D01*
X140875Y129664D01*
X140563Y129976D01*
X140250Y130601D01*
Y131851D01*
X140563Y132476D01*
X140875Y132789D01*
X141500Y133101D01*
X142125D01*
X142750Y132789D01*
X143063Y132476D01*
X143375Y131851D01*
X140250Y143101D02*
Y146851D01*
Y144976D02*
X141187D01*
X143375Y146851D01*
X141187Y144976D02*
X143375Y143101D01*
X140250Y163101D02*
Y166851D01*
Y164976D02*
X141187D01*
X143375Y166851D01*
X141187Y164976D02*
X143375Y163101D01*
X142437Y314664D02*
X143375D01*
Y314351D01*
X143063Y313726D01*
X142750Y313414D01*
X142125Y313101D01*
X141500D01*
X140875Y313414D01*
X140563Y313726D01*
X140250Y314351D01*
Y315601D01*
X140563Y316226D01*
X140875Y316539D01*
X141500Y316851D01*
X142125D01*
X142750Y316539D01*
X143063Y316226D01*
X143375Y315601D01*
X147437Y270914D02*
X148375D01*
Y270601D01*
X148063Y269976D01*
X147750Y269664D01*
X147125Y269351D01*
X146500D01*
X145875Y269664D01*
X145563Y269976D01*
X145250Y270601D01*
Y271851D01*
X145563Y272476D01*
X145875Y272789D01*
X146500Y273101D01*
X147125D01*
X147750Y272789D01*
X148063Y272476D01*
X148375Y271851D01*
X147437Y294664D02*
X148375D01*
Y294351D01*
X148063Y293726D01*
X147750Y293414D01*
X147125Y293101D01*
X146500D01*
X145875Y293414D01*
X145563Y293726D01*
X145250Y294351D01*
Y295601D01*
X145563Y296226D01*
X145875Y296539D01*
X146500Y296851D01*
X147125D01*
X147750Y296539D01*
X148063Y296226D01*
X148375Y295601D01*
X159379Y145018D02*
X159067Y144705D01*
X158441Y144393D01*
X157504D01*
X156879Y144705D01*
X156567Y145018D01*
X156254Y145643D01*
Y146893D01*
X156567Y147518D01*
X156879Y147830D01*
X157504Y148143D01*
X158441D01*
X159067Y147830D01*
X159379Y147518D01*
X162126Y173101D02*
X163689Y176851D01*
X165251Y173101D01*
X162751Y174664D02*
X164626D01*
X168689Y173101D02*
Y176851D01*
X167126D02*
X170251D01*
X162126Y183101D02*
X163689Y186851D01*
X165251Y183101D01*
X162751Y184664D02*
X164626D01*
X168689Y183101D02*
Y186851D01*
X167126D02*
X170251D01*
X162126Y193101D02*
X163689Y196851D01*
X165251Y193101D01*
X162751Y194664D02*
X164626D01*
X168689Y193101D02*
Y196851D01*
X167126D02*
X170251D01*
X162126Y203101D02*
X163689Y206851D01*
X165251Y203101D01*
X162751Y204664D02*
X164626D01*
X168689Y203101D02*
Y206851D01*
X167126D02*
X170251D01*
X162126Y213101D02*
X163689Y216851D01*
X165251Y213101D01*
X162751Y214664D02*
X164626D01*
X168689Y213101D02*
Y216851D01*
X167126D02*
X170251D01*
X162126Y223101D02*
X163689Y226851D01*
X165251Y223101D01*
X162751Y224664D02*
X164626D01*
X168689Y223101D02*
Y226851D01*
X167126D02*
X170251D01*
X162126Y233101D02*
X163689Y236851D01*
X165251Y233101D01*
X162751Y234664D02*
X164626D01*
X168689Y233101D02*
Y236851D01*
X167126D02*
X170251D01*
X162126Y243101D02*
X163689Y246851D01*
X165251Y243101D01*
X162751Y244664D02*
X164626D01*
X168689Y243101D02*
Y246851D01*
X167126D02*
X170251D01*
X162126Y253101D02*
X163689Y256851D01*
X165251Y253101D01*
X162751Y254664D02*
X164626D01*
X168689Y253101D02*
Y256851D01*
X167126D02*
X170251D01*
X162126Y263101D02*
X163689Y266851D01*
X165251Y263101D01*
X162751Y264664D02*
X164626D01*
X168689Y263101D02*
Y266851D01*
X167126D02*
X170251D01*
X162126Y273101D02*
X163689Y276851D01*
X165251Y273101D01*
X162751Y274664D02*
X164626D01*
X168689Y273101D02*
Y276851D01*
X167126D02*
X170251D01*
X162126Y283101D02*
X163689Y286851D01*
X165251Y283101D01*
X162751Y284664D02*
X164626D01*
X168689Y283101D02*
Y286851D01*
X167126D02*
X170251D01*
X162126Y293101D02*
X163689Y296851D01*
X165251Y293101D01*
X162751Y294664D02*
X164626D01*
X168689Y293101D02*
Y296851D01*
X167126D02*
X170251D01*
X162126Y303101D02*
X163689Y306851D01*
X165251Y303101D01*
X162751Y304664D02*
X164626D01*
X168689Y303101D02*
Y306851D01*
X167126D02*
X170251D01*
X169379Y145018D02*
X169067Y144705D01*
X168441Y144393D01*
X167504D01*
X166879Y144705D01*
X166567Y145018D01*
X166254Y145643D01*
Y146893D01*
X166567Y147518D01*
X166879Y147830D01*
X167504Y148143D01*
X168441D01*
X169067Y147830D01*
X169379Y147518D01*
X175250Y213101D02*
Y216851D01*
Y214976D02*
X176187D01*
X178375Y216851D01*
X176187Y214976D02*
X178375Y213101D01*
X175250Y233101D02*
Y236851D01*
Y234976D02*
X176187D01*
X178375Y236851D01*
X176187Y234976D02*
X178375Y233101D01*
X179379Y145018D02*
X179067Y144705D01*
X178441Y144393D01*
X177504D01*
X176879Y144705D01*
X176567Y145018D01*
X176254Y145643D01*
Y146893D01*
X176567Y147518D01*
X176879Y147830D01*
X177504Y148143D01*
X178441D01*
X179067Y147830D01*
X179379Y147518D01*
X177750Y253259D02*
X179313Y257009D01*
X180875Y253259D01*
X178375Y254821D02*
X180250D01*
X182750Y253884D02*
X183063Y253571D01*
X183687Y253259D01*
X184313Y253571D01*
X184625Y253884D01*
Y257009D01*
X185250D01*
X184625D02*
X183375D01*
X177750Y263101D02*
X179313Y266851D01*
X180875Y263101D01*
X178375Y264664D02*
X180250D01*
X182750Y263726D02*
X183063Y263414D01*
X183687Y263101D01*
X184313Y263414D01*
X184625Y263726D01*
Y266851D01*
X185250D01*
X184625D02*
X183375D01*
X177750Y272944D02*
X179313Y276694D01*
X180875Y272944D01*
X178375Y274506D02*
X180250D01*
X182750Y273569D02*
X183063Y273256D01*
X183687Y272944D01*
X184313Y273256D01*
X184625Y273569D01*
Y276694D01*
X185250D01*
X184625D02*
X183375D01*
X182437Y130914D02*
X183375D01*
Y130601D01*
X183063Y129976D01*
X182750Y129664D01*
X182125Y129351D01*
X181500D01*
X180875Y129664D01*
X180563Y129976D01*
X180250Y130601D01*
Y131851D01*
X180563Y132476D01*
X180875Y132789D01*
X181500Y133101D01*
X182125D01*
X182750Y132789D01*
X183063Y132476D01*
X183375Y131851D01*
X182437Y314664D02*
X183375D01*
Y314351D01*
X183063Y313726D01*
X182750Y313414D01*
X182125Y313101D01*
X181500D01*
X180875Y313414D01*
X180563Y313726D01*
X180250Y314351D01*
Y315601D01*
X180563Y316226D01*
X180875Y316539D01*
X181500Y316851D01*
X182125D01*
X182750Y316539D01*
X183063Y316226D01*
X183375Y315601D01*
X189379Y145018D02*
X189067Y144705D01*
X188441Y144393D01*
X187504D01*
X186879Y144705D01*
X186567Y145018D01*
X186254Y145643D01*
Y146893D01*
X186567Y147518D01*
X186879Y147830D01*
X187504Y148143D01*
X188441D01*
X189067Y147830D01*
X189379Y147518D01*
X192437Y240914D02*
X193375D01*
Y240601D01*
X193063Y239976D01*
X192750Y239664D01*
X192125Y239351D01*
X191500D01*
X190875Y239664D01*
X190563Y239976D01*
X190250Y240601D01*
Y241851D01*
X190563Y242476D01*
X190875Y242789D01*
X191500Y243101D01*
X192125D01*
X192750Y242789D01*
X193063Y242476D01*
X193375Y241851D01*
X192437Y270914D02*
X193375D01*
Y270601D01*
X193063Y269976D01*
X192750Y269664D01*
X192125Y269351D01*
X191500D01*
X190875Y269664D01*
X190563Y269976D01*
X190250Y270601D01*
Y271851D01*
X190563Y272476D01*
X190875Y272789D01*
X191500Y273101D01*
X192125D01*
X192750Y272789D01*
X193063Y272476D01*
X193375Y271851D01*
X192437Y295914D02*
X193375D01*
Y295601D01*
X193063Y294976D01*
X192750Y294664D01*
X192125Y294351D01*
X191500D01*
X190875Y294664D01*
X190563Y294976D01*
X190250Y295601D01*
Y296851D01*
X190563Y297476D01*
X190875Y297789D01*
X191500Y298101D01*
X192125D01*
X192750Y297789D01*
X193063Y297476D01*
X193375Y296851D01*
X199379Y145018D02*
X199067Y144705D01*
X198441Y144393D01*
X197504D01*
X196879Y144705D01*
X196567Y145018D01*
X196254Y145643D01*
Y146893D01*
X196567Y147518D01*
X196879Y147830D01*
X197504Y148143D01*
X198441D01*
X199067Y147830D01*
X199379Y147518D01*
X203720Y198165D02*
X203407Y197853D01*
X202782Y197540D01*
X201844D01*
X201220Y197853D01*
X200907Y198165D01*
X200594Y198790D01*
Y200040D01*
X200907Y200665D01*
X201220Y200978D01*
X201844Y201290D01*
X202782D01*
X203407Y200978D01*
X203720Y200665D01*
Y209071D02*
X203407Y208758D01*
X202782Y208446D01*
X201844D01*
X201220Y208758D01*
X200907Y209071D01*
X200594Y209696D01*
Y210946D01*
X200907Y211571D01*
X201220Y211883D01*
X201844Y212196D01*
X202782D01*
X203407Y211883D01*
X203720Y211571D01*
Y219976D02*
X203407Y219664D01*
X202782Y219351D01*
X201844D01*
X201220Y219664D01*
X200907Y219976D01*
X200594Y220601D01*
Y221851D01*
X200907Y222476D01*
X201220Y222789D01*
X201844Y223101D01*
X202782D01*
X203407Y222789D01*
X203720Y222476D01*
Y230882D02*
X203407Y230569D01*
X202782Y230257D01*
X201844D01*
X201220Y230569D01*
X200907Y230882D01*
X200594Y231507D01*
Y232757D01*
X200907Y233382D01*
X201220Y233694D01*
X201844Y234007D01*
X202782D01*
X203407Y233694D01*
X203720Y233382D01*
Y241787D02*
X203407Y241475D01*
X202782Y241162D01*
X201844D01*
X201220Y241475D01*
X200907Y241787D01*
X200594Y242412D01*
Y243662D01*
X200907Y244287D01*
X201220Y244600D01*
X201844Y244912D01*
X202782D01*
X203407Y244600D01*
X203720Y244287D01*
X206185Y170158D02*
X207748Y173908D01*
X209310Y170158D01*
X206810Y171721D02*
X208685D01*
X212748Y170158D02*
Y172033D01*
X211185Y173908D01*
X212748Y172033D02*
X214310Y173908D01*
X206185Y268544D02*
X207748Y272294D01*
X209310Y268544D01*
X206810Y270107D02*
X208685D01*
X212748Y268544D02*
Y270419D01*
X211185Y272294D01*
X212748Y270419D02*
X214310Y272294D01*
X209379Y145018D02*
X209067Y144705D01*
X208441Y144393D01*
X207504D01*
X206879Y144705D01*
X206567Y145018D01*
X206254Y145643D01*
Y146893D01*
X206567Y147518D01*
X206879Y147830D01*
X207504Y148143D01*
X208441D01*
X209067Y147830D01*
X209379Y147518D01*
X214901Y203618D02*
X214588Y203306D01*
X213963Y202993D01*
X213026D01*
X212401Y203306D01*
X212088Y203618D01*
X211776Y204243D01*
Y205493D01*
X212088Y206118D01*
X212401Y206431D01*
X213026Y206743D01*
X213963D01*
X214588Y206431D01*
X214901Y206118D01*
Y214524D02*
X214588Y214211D01*
X213963Y213898D01*
X213026D01*
X212401Y214211D01*
X212088Y214524D01*
X211776Y215148D01*
Y216398D01*
X212088Y217024D01*
X212401Y217336D01*
X213026Y217648D01*
X213963D01*
X214588Y217336D01*
X214901Y217024D01*
Y225429D02*
X214588Y225117D01*
X213963Y224804D01*
X213026D01*
X212401Y225117D01*
X212088Y225429D01*
X211776Y226054D01*
Y227304D01*
X212088Y227929D01*
X212401Y228242D01*
X213026Y228554D01*
X213963D01*
X214588Y228242D01*
X214901Y227929D01*
Y236335D02*
X214588Y236022D01*
X213963Y235709D01*
X213026D01*
X212401Y236022D01*
X212088Y236335D01*
X211776Y236959D01*
Y238209D01*
X212088Y238835D01*
X212401Y239147D01*
X213026Y239459D01*
X213963D01*
X214588Y239147D01*
X214901Y238835D01*
X221187Y232164D02*
X222125D01*
Y231851D01*
X221813Y231226D01*
X221500Y230914D01*
X220875Y230601D01*
X220250D01*
X219625Y230914D01*
X219313Y231226D01*
X219000Y231851D01*
Y233101D01*
X219313Y233726D01*
X219625Y234039D01*
X220250Y234351D01*
X220875D01*
X221500Y234039D01*
X221813Y233726D01*
X222125Y233101D01*
X221187Y265914D02*
X222125D01*
Y265601D01*
X221813Y264976D01*
X221500Y264664D01*
X220875Y264351D01*
X220250D01*
X219625Y264664D01*
X219313Y264976D01*
X219000Y265601D01*
Y266851D01*
X219313Y267476D01*
X219625Y267789D01*
X220250Y268101D01*
X220875D01*
X221500Y267789D01*
X221813Y267476D01*
X222125Y266851D01*
X222437Y130914D02*
X223375D01*
Y130601D01*
X223063Y129976D01*
X222750Y129664D01*
X222125Y129351D01*
X221500D01*
X220875Y129664D01*
X220563Y129976D01*
X220250Y130601D01*
Y131851D01*
X220563Y132476D01*
X220875Y132789D01*
X221500Y133101D01*
X222125D01*
X222750Y132789D01*
X223063Y132476D01*
X223375Y131851D01*
X222437Y185914D02*
X223375D01*
Y185601D01*
X223063Y184976D01*
X222750Y184664D01*
X222125Y184351D01*
X221500D01*
X220875Y184664D01*
X220563Y184976D01*
X220250Y185601D01*
Y186851D01*
X220563Y187476D01*
X220875Y187789D01*
X221500Y188101D01*
X222125D01*
X222750Y187789D01*
X223063Y187476D01*
X223375Y186851D01*
X222437Y313414D02*
X223375D01*
Y313101D01*
X223063Y312476D01*
X222750Y312164D01*
X222125Y311851D01*
X221500D01*
X220875Y312164D01*
X220563Y312476D01*
X220250Y313101D01*
Y314351D01*
X220563Y314976D01*
X220875Y315289D01*
X221500Y315601D01*
X222125D01*
X222750Y315289D01*
X223063Y314976D01*
X223375Y314351D01*
X225801Y311839D02*
G75*
G02*
X233675Y303965I0J-7874D01*
G01*
Y122863D01*
G75*
G02*
X225801Y114989I-7874J0D01*
G01*
X44699D01*
G75*
G02*
X36825Y122863I0J7874D01*
G01*
Y303965D01*
G75*
G02*
X44699Y311839I7874J0D01*
G01*
X225801D01*
X231864Y132938D02*
X233427Y136688D01*
X234989Y132938D01*
X232489Y134500D02*
X234364D01*
X236864Y136688D02*
X238427Y132938D01*
X239989Y136688D01*
X231864Y306166D02*
X233427Y309916D01*
X234989Y306166D01*
X232489Y307729D02*
X234364D01*
X236864Y309916D02*
X238427Y306166D01*
X239989Y309916D01*
X241187Y145914D02*
X242125D01*
Y145601D01*
X241813Y144976D01*
X241500Y144664D01*
X240875Y144351D01*
X240250D01*
X239625Y144664D01*
X239313Y144976D01*
X239000Y145601D01*
Y146851D01*
X239313Y147476D01*
X239625Y147789D01*
X240250Y148101D01*
X240875D01*
X241500Y147789D01*
X241813Y147476D01*
X242125Y146851D01*
X241187Y185914D02*
X242125D01*
Y185601D01*
X241813Y184976D01*
X241500Y184664D01*
X240875Y184351D01*
X240250D01*
X239625Y184664D01*
X239313Y184976D01*
X239000Y185601D01*
Y186851D01*
X239313Y187476D01*
X239625Y187789D01*
X240250Y188101D01*
X240875D01*
X241500Y187789D01*
X241813Y187476D01*
X242125Y186851D01*
X241187Y225914D02*
X242125D01*
Y225601D01*
X241813Y224976D01*
X241500Y224664D01*
X240875Y224351D01*
X240250D01*
X239625Y224664D01*
X239313Y224976D01*
X239000Y225601D01*
Y226851D01*
X239313Y227476D01*
X239625Y227789D01*
X240250Y228101D01*
X240875D01*
X241500Y227789D01*
X241813Y227476D01*
X242125Y226851D01*
X241187Y265914D02*
X242125D01*
Y265601D01*
X241813Y264976D01*
X241500Y264664D01*
X240875Y264351D01*
X240250D01*
X239625Y264664D01*
X239313Y264976D01*
X239000Y265601D01*
Y266851D01*
X239313Y267476D01*
X239625Y267789D01*
X240250Y268101D01*
X240875D01*
X241500Y267789D01*
X241813Y267476D01*
X242125Y266851D01*
D02*
D73*
X48636Y127000D03*
Y300229D03*
X49260Y149247D03*
Y165247D03*
Y181247D03*
Y197247D03*
Y213247D03*
Y229247D03*
Y245247D03*
Y261247D03*
Y277247D03*
X65250Y157164D03*
Y169664D03*
Y195914D03*
Y237164D03*
Y253414D03*
Y269664D03*
Y285914D03*
X65260Y213247D03*
X85250Y195914D03*
X85644Y284447D03*
Y302164D03*
X87750Y222164D03*
Y232164D03*
Y242164D03*
Y252164D03*
Y262164D03*
Y272164D03*
X90250Y123414D03*
Y168414D03*
Y208414D03*
Y307164D03*
X106500Y137164D03*
Y152164D03*
Y168414D03*
Y208414D03*
X107750Y222164D03*
Y232164D03*
Y242164D03*
Y252164D03*
Y262164D03*
Y272164D03*
X111234Y284447D03*
Y302164D03*
X112750Y204664D03*
X120874Y167164D03*
Y177164D03*
Y187164D03*
Y197164D03*
Y207164D03*
Y217164D03*
Y227164D03*
Y237164D03*
Y247164D03*
Y257164D03*
Y267164D03*
Y277164D03*
Y287164D03*
Y297164D03*
X130250Y123414D03*
Y137164D03*
Y157164D03*
Y307164D03*
X135250Y263414D03*
Y287164D03*
X146254Y138455D03*
X152126Y167164D03*
Y177164D03*
Y187164D03*
Y197164D03*
Y207164D03*
Y217164D03*
Y227164D03*
Y237164D03*
Y247164D03*
Y257164D03*
Y267164D03*
Y277164D03*
Y287164D03*
Y297164D03*
X156254Y138455D03*
X165250Y207164D03*
Y227164D03*
X166254Y138455D03*
X167750Y247321D03*
Y257164D03*
Y267006D03*
X170250Y123414D03*
Y307164D03*
X176254Y138455D03*
X180250Y233414D03*
Y263414D03*
Y288414D03*
X186254Y138455D03*
X190594Y191603D03*
Y202508D03*
Y213414D03*
Y224319D03*
Y235225D03*
X196185Y164221D03*
Y262607D03*
X196254Y138455D03*
X201776Y197056D03*
Y207961D03*
Y218867D03*
Y229772D03*
X209000Y224664D03*
Y258414D03*
X210250Y123414D03*
Y178414D03*
Y305914D03*
X221864Y127000D03*
Y300229D03*
X229000Y138414D03*
Y178414D03*
Y218414D03*
Y258414D03*
X0Y0D02*
M02*
