G04 DesignSpark PCB PRO Gerber Version 10.0 Build 5299*
G04 #@! TF.Part,Single*
G04 #@! TF.FileFunction,Copper,L1,Top*
G04 #@! TF.FilePolarity,Positive*
%FSLAX35Y35*%
%MOIN*%
G04 #@! TA.AperFunction,ComponentPad*
%AMT88*0 Rounded Rectangle Pad at angle 90*4,1,56,0.05906,-0.03937,0.05906,0.03937,0.05891,0.04174,0.05848,0.04408,0.05778,0.04635,0.05680,0.04852,0.05557,0.05056,0.05411,0.05243,0.05243,0.05411,0.05056,0.05557,0.04852,0.05680,0.04635,0.05778,0.04408,0.05848,0.04174,0.05891,0.03937,0.05906,-0.03937,0.05906,-0.04174,0.05891,-0.04408,0.05848,-0.04635,0.05778,-0.04852,0.05680,-0.05056,0.05557,-0.05243,0.05411,-0.05411,0.05243,-0.05557,0.05056,-0.05680,0.04852,-0.05778,0.04635,-0.05848,0.04408,-0.05891,0.04174,-0.05906,0.03937,-0.05906,-0.03937,-0.05891,-0.04174,-0.05848,-0.04408,-0.05778,-0.04635,-0.05680,-0.04852,-0.05557,-0.05056,-0.05411,-0.05243,-0.05243,-0.05411,-0.05056,-0.05557,-0.04852,-0.05680,-0.04635,-0.05778,-0.04408,-0.05848,-0.04174,-0.05891,-0.03937,-0.05906,0.03937,-0.05906,0.04174,-0.05891,0.04408,-0.05848,0.04635,-0.05778,0.04852,-0.05680,0.05056,-0.05557,0.05243,-0.05411,0.05411,-0.05243,0.05557,-0.05056,0.05680,-0.04852,0.05778,-0.04635,0.05848,-0.04408,0.05891,-0.04174,0.05906,-0.03937,0*%
%ADD88T88*%
%AMT87*0 Rounded Rectangle Pad at angle 90*4,1,56,0.07874,-0.03937,0.07874,0.03937,0.07860,0.04174,0.07817,0.04408,0.07746,0.04635,0.07648,0.04852,0.07526,0.05056,0.07379,0.05243,0.07211,0.05411,0.07024,0.05557,0.06820,0.05680,0.06604,0.05778,0.06377,0.05848,0.06143,0.05891,0.05906,0.05906,-0.05906,0.05906,-0.06143,0.05891,-0.06377,0.05848,-0.06604,0.05778,-0.06820,0.05680,-0.07024,0.05557,-0.07211,0.05411,-0.07379,0.05243,-0.07526,0.05056,-0.07648,0.04852,-0.07746,0.04635,-0.07817,0.04408,-0.07860,0.04174,-0.07874,0.03937,-0.07874,-0.03937,-0.07860,-0.04174,-0.07817,-0.04408,-0.07746,-0.04635,-0.07648,-0.04852,-0.07526,-0.05056,-0.07379,-0.05243,-0.07211,-0.05411,-0.07024,-0.05557,-0.06820,-0.05680,-0.06604,-0.05778,-0.06377,-0.05848,-0.06143,-0.05891,-0.05906,-0.05906,0.05906,-0.05906,0.06143,-0.05891,0.06377,-0.05848,0.06604,-0.05778,0.06820,-0.05680,0.07024,-0.05557,0.07211,-0.05411,0.07379,-0.05243,0.07526,-0.05056,0.07648,-0.04852,0.07746,-0.04635,0.07817,-0.04408,0.07860,-0.04174,0.07874,-0.03937,0*%
%ADD87T87*%
%AMT86*0 Rounded Rectangle Pad at angle 90*4,1,56,0.09843,-0.03937,0.09843,0.03937,0.09828,0.04174,0.09785,0.04408,0.09715,0.04635,0.09617,0.04852,0.09494,0.05056,0.09348,0.05243,0.09180,0.05411,0.08993,0.05557,0.08789,0.05680,0.08572,0.05778,0.08345,0.05848,0.08111,0.05891,0.07874,0.05906,-0.07874,0.05906,-0.08111,0.05891,-0.08345,0.05848,-0.08572,0.05778,-0.08789,0.05680,-0.08993,0.05557,-0.09180,0.05411,-0.09348,0.05243,-0.09494,0.05056,-0.09617,0.04852,-0.09715,0.04635,-0.09785,0.04408,-0.09828,0.04174,-0.09843,0.03937,-0.09843,-0.03937,-0.09828,-0.04174,-0.09785,-0.04408,-0.09715,-0.04635,-0.09617,-0.04852,-0.09494,-0.05056,-0.09348,-0.05243,-0.09180,-0.05411,-0.08993,-0.05557,-0.08789,-0.05680,-0.08572,-0.05778,-0.08345,-0.05848,-0.08111,-0.05891,-0.07874,-0.05906,0.07874,-0.05906,0.08111,-0.05891,0.08345,-0.05848,0.08572,-0.05778,0.08789,-0.05680,0.08993,-0.05557,0.09180,-0.05411,0.09348,-0.05243,0.09494,-0.05056,0.09617,-0.04852,0.09715,-0.04635,0.09785,-0.04408,0.09828,-0.04174,0.09843,-0.03937,0*%
%ADD86T86*%
%ADD91O,0.06000X0.09937*%
%ADD92R,0.04461X0.04461*%
G04 #@! TD.AperFunction*
%ADD20C,0.00500*%
%ADD79C,0.00602*%
%ADD85C,0.00709*%
%ADD77C,0.01000*%
%ADD81C,0.01500*%
%ADD80C,0.02000*%
G04 #@! TA.AperFunction,ViaPad*
%ADD83C,0.02677*%
%ADD82C,0.03200*%
G04 #@! TA.AperFunction,ComponentPad*
%ADD93C,0.04461*%
%ADD95C,0.04925*%
G04 #@! TD.AperFunction*
%ADD84C,0.05000*%
G04 #@! TA.AperFunction,ComponentPad*
%ADD89C,0.05906*%
%ADD94C,0.06000*%
%ADD96C,0.07000*%
%ADD90C,0.16929*%
G04 #@! TD.AperFunction*
X0Y0D02*
D02*
D20*
X39293Y122863D02*
G75*
G03*
X44699Y117457I5406J0D01*
G01*
X225801D01*
G75*
G03*
X231207Y122863I0J5406D01*
G01*
Y263868D01*
G75*
G02*
X230829Y263809I-378J1191D01*
G01*
X220671D01*
G75*
G02*
X220154Y263922I0J1250D01*
G01*
Y212961D01*
G75*
G02*
X219814Y212144I-1154J0D01*
G01*
X214817Y207147D01*
G75*
G02*
X214000Y206807I-817J814D01*
G01*
X207387D01*
X203707Y204682D01*
G75*
G02*
X197970Y207961I-1931J3279D01*
G01*
G75*
G02*
X203707Y211240I3805J0D01*
G01*
X207387Y209115D01*
X213522D01*
X217846Y213439D01*
Y276686D01*
X192272Y302260D01*
X120728D01*
X116404Y297936D01*
Y288892D01*
X116879Y288417D01*
X119333Y289833D01*
G75*
G02*
X119337Y289836I669J-1141D01*
G01*
G75*
G02*
X123957Y287164I1537J-2672D01*
G01*
G75*
G02*
X119337Y284491I-3083J0D01*
G01*
G75*
G02*
X119333Y284494I739J1272D01*
G01*
X116707Y286010D01*
X116500D01*
G75*
G02*
X115683Y286350I0J1154D01*
G01*
X114436Y287597D01*
G75*
G02*
X114096Y288414I814J817D01*
G01*
Y298373D01*
G75*
G02*
X106484Y302164I-2862J3791D01*
G01*
G75*
G02*
X115984I4750J0D01*
G01*
G75*
G02*
X115670Y300465I-4750J0D01*
G01*
X119433Y304228D01*
G75*
G02*
X120250Y304567I817J-814D01*
G01*
X192750D01*
G75*
G02*
X193567Y304228I0J-1154D01*
G01*
X219421Y278374D01*
Y281516D01*
G75*
G02*
X220671Y282766I1250J0D01*
G01*
X224146D01*
Y293141D01*
G75*
G02*
X215374Y304021I-2283J7136D01*
G01*
G75*
G02*
X228353Y296533I6490J-3744D01*
G01*
G75*
G02*
X226726Y294577I-6490J3744D01*
G01*
X230829D01*
G75*
G02*
X231207Y294519I0J-1250D01*
G01*
Y303965D01*
G75*
G03*
X225801Y309370I-5406J0D01*
G01*
X44699D01*
G75*
G03*
X39293Y303965I0J-5406D01*
G01*
Y283287D01*
G75*
G02*
X41033Y284005I1740J-1751D01*
G01*
X57486D01*
G75*
G02*
X59955Y281537I0J-2469D01*
G01*
Y272958D01*
G75*
G02*
X57486Y270489I-2469J0D01*
G01*
X41033D01*
G75*
G02*
X39293Y271207I0J2469D01*
G01*
Y267287D01*
G75*
G02*
X41033Y268005I1740J-1751D01*
G01*
X57486D01*
G75*
G02*
X59955Y265537I0J-2469D01*
G01*
Y256958D01*
G75*
G02*
X57486Y254489I-2469J0D01*
G01*
X41033D01*
G75*
G02*
X39293Y255207I0J2469D01*
G01*
Y251287D01*
G75*
G02*
X41033Y252005I1740J-1751D01*
G01*
X57486D01*
G75*
G02*
X59339Y251169I1J-2468D01*
G01*
X67597Y246401D01*
X70250D01*
G75*
G02*
X71067Y246061I0J-1154D01*
G01*
X73564Y243564D01*
G75*
G02*
X73904Y242747I-814J-817D01*
G01*
Y235142D01*
X75728Y233317D01*
X82044D01*
X85798Y235485D01*
G75*
G02*
X91602Y232164I1952J-3321D01*
G01*
G75*
G02*
X85798Y228843I-3852J0D01*
G01*
X82044Y231010D01*
X75250D01*
G75*
G02*
X74433Y231350I0J1154D01*
G01*
X71936Y233847D01*
G75*
G02*
X71596Y234664I814J817D01*
G01*
Y242269D01*
X69772Y244094D01*
X67597D01*
X59339Y239326D01*
G75*
G02*
X57486Y238489I-1852J1632D01*
G01*
X41033D01*
G75*
G02*
X39293Y239207I-1J2468D01*
G01*
Y235287D01*
G75*
G02*
X41033Y236005I1740J-1751D01*
G01*
X57486D01*
G75*
G02*
X59339Y235169I1J-2468D01*
G01*
X67597Y230401D01*
X73167D01*
G75*
G02*
X73983Y230061I0J-1154D01*
G01*
X80728Y223317D01*
X82044D01*
X85798Y225485D01*
G75*
G02*
X88064Y226003I1952J-3321D01*
G01*
G75*
G02*
X89413Y227267I1350J-89D01*
G01*
X92749D01*
G75*
G02*
X93707Y226870I2J-1353D01*
G01*
X97457Y223120D01*
G75*
G02*
X97846Y222294I-957J-956D01*
G01*
Y252936D01*
X94772Y256010D01*
X87963D01*
G75*
G02*
X91602Y252164I-213J-3846D01*
G01*
G75*
G02*
X83898I-3852J0D01*
G01*
G75*
G02*
X87537Y256010I3852J0D01*
G01*
X82750D01*
G75*
G02*
X81933Y256350I0J1154D01*
G01*
X79436Y258847D01*
G75*
G02*
X79096Y259664I814J817D01*
G01*
Y270914D01*
G75*
G02*
X79436Y271731I1154J0D01*
G01*
X80683Y272978D01*
G75*
G02*
X81500Y273317I817J-814D01*
G01*
X82044D01*
X85798Y275485D01*
G75*
G02*
X91602Y272164I1952J-3321D01*
G01*
G75*
G02*
X85798Y268843I-3852J0D01*
G01*
X82044Y271010D01*
X81978D01*
X81404Y270436D01*
Y260142D01*
X83228Y258317D01*
X87539D01*
G75*
G02*
X83898Y262164I211J3847D01*
G01*
G75*
G02*
X89702Y265485I3852J0D01*
G01*
X93456Y263317D01*
X96500D01*
G75*
G02*
X97317Y262978I0J-1154D01*
G01*
X102314Y257981D01*
G75*
G02*
X102654Y257164I-814J-817D01*
G01*
Y208627D01*
G75*
G02*
X110352Y208414I3846J-213D01*
G01*
G75*
G02*
X109852Y206516I-3852J0D01*
G01*
Y199664D01*
G75*
G02*
X108868Y197291I-3352J0D01*
G01*
X93602Y182025D01*
Y170312D01*
G75*
G02*
X94102Y168414I-3352J-1898D01*
G01*
G75*
G02*
X86398I-3852J0D01*
G01*
G75*
G02*
X86898Y170312I3852J0D01*
G01*
Y183414D01*
G75*
G02*
X87406Y185188I3352J0D01*
G01*
X83904Y181686D01*
Y154664D01*
G75*
G02*
X83564Y153847I-1154J0D01*
G01*
X78150Y148433D01*
G75*
G02*
X77333Y148094I-817J814D01*
G01*
X67597D01*
X59339Y143326D01*
G75*
G02*
X57486Y142489I-1852J1632D01*
G01*
X41033D01*
G75*
G02*
X39293Y143207I-1J2468D01*
G01*
Y122863D01*
X85798Y245485D02*
G75*
G02*
X91602Y242164I1952J-3321D01*
G01*
G75*
G02*
X85798Y238843I-3852J0D01*
G01*
X82044Y241010D01*
X77750D01*
G75*
G02*
X76933Y241350I0J1154D01*
G01*
X74436Y243847D01*
G75*
G02*
X74096Y244664I814J817D01*
G01*
Y282164D01*
G75*
G02*
X74436Y282981I1154J0D01*
G01*
X76717Y285261D01*
G75*
G02*
X77533Y285601I817J-814D01*
G01*
X78937D01*
X83446Y288204D01*
G75*
G02*
X89996Y284447I2197J-3757D01*
G01*
G75*
G02*
X83446Y280690I-4352J0D01*
G01*
X78937Y283294D01*
X78011D01*
X76404Y281686D01*
Y245142D01*
X78228Y243317D01*
X82044D01*
X85798Y245485D01*
X80894Y302164D02*
G75*
G02*
X90394I4750J0D01*
G01*
G75*
G02*
X80894I-4750J0D01*
G01*
X150589Y199836D02*
G75*
G02*
X155209Y197164I1537J-2672D01*
G01*
G75*
G02*
X150589Y194491I-3083J0D01*
G01*
G75*
G02*
X150585Y194494I739J1272D01*
G01*
X147959Y196010D01*
X130250D01*
G75*
G02*
X129433Y196350I0J1154D01*
G01*
X126936Y198847D01*
G75*
G02*
X126596Y199664I814J817D01*
G01*
Y217936D01*
X123522Y221010D01*
X113456D01*
X109702Y218843D01*
G75*
G02*
X103898Y222164I-1952J3321D01*
G01*
G75*
G02*
X109702Y225485I3852J0D01*
G01*
X113456Y223317D01*
X124000D01*
G75*
G02*
X124817Y222978I0J-1154D01*
G01*
X128564Y219231D01*
G75*
G02*
X128904Y218414I-814J-817D01*
G01*
Y200142D01*
X130728Y198317D01*
X147959D01*
X150585Y199833D01*
G75*
G02*
X150589Y199836I669J-1141D01*
G01*
X159814Y170481D02*
G75*
G02*
X160154Y169664I-814J-817D01*
G01*
Y153660D01*
G75*
G02*
X159814Y152843I-1154J0D01*
G01*
X157407Y150436D01*
Y146130D01*
X159575Y142376D01*
G75*
G02*
X160106Y140424I-3321J-1953D01*
G01*
Y136487D01*
G75*
G02*
X152402I-3852J0D01*
G01*
Y140424D01*
G75*
G02*
X152933Y142376I3853J0D01*
G01*
X155100Y146130D01*
Y150914D01*
G75*
G02*
X155440Y151731I1154J0D01*
G01*
X157846Y154138D01*
Y169186D01*
X156022Y171010D01*
X149000D01*
G75*
G02*
X148183Y171350I0J1154D01*
G01*
X145686Y173847D01*
G75*
G02*
X145346Y174664I814J817D01*
G01*
Y185914D01*
G75*
G02*
X145686Y186731I1154J0D01*
G01*
X146933Y187978D01*
G75*
G02*
X147750Y188317I817J-814D01*
G01*
X147959D01*
X150585Y189833D01*
G75*
G02*
X150589Y189836I669J-1141D01*
G01*
G75*
G02*
X155209Y187164I1537J-2672D01*
G01*
G75*
G02*
X150589Y184491I-3083J0D01*
G01*
G75*
G02*
X150585Y184494I739J1272D01*
G01*
X148130Y185912D01*
X147654Y185436D01*
Y175142D01*
X149478Y173317D01*
X156500D01*
G75*
G02*
X157317Y172978I0J-1154D01*
G01*
X159814Y170481D01*
X169575Y142376D02*
G75*
G02*
X170106Y140424I-3321J-1953D01*
G01*
Y136487D01*
G75*
G02*
X162402I-3852J0D01*
G01*
Y140424D01*
G75*
G02*
X162933Y142376I3853J0D01*
G01*
X165100Y146130D01*
Y170682D01*
X159772Y176010D01*
X156293D01*
X153667Y174494D01*
G75*
G02*
X153663Y174491I-669J1141D01*
G01*
G75*
G02*
X149043Y177164I-1537J2672D01*
G01*
G75*
G02*
X153663Y179836I3083J0D01*
G01*
G75*
G02*
X153667Y179833I-739J-1272D01*
G01*
X156293Y178317D01*
X160250D01*
G75*
G02*
X161067Y177978I0J-1154D01*
G01*
X167068Y171977D01*
G75*
G02*
X167407Y171160I-814J-817D01*
G01*
Y146130D01*
X169575Y142376D01*
X120874Y170246D02*
G75*
G02*
X123957Y167164I0J-3083D01*
G01*
G75*
G02*
X120874Y164081I-3083J0D01*
G01*
G75*
G02*
X117791Y167164I0J3083D01*
G01*
G75*
G02*
X120874Y170246I3083J0D01*
G01*
Y180246D02*
G75*
G02*
X123957Y177164I0J-3083D01*
G01*
G75*
G02*
X120874Y174081I-3083J0D01*
G01*
G75*
G02*
X117791Y177164I0J3083D01*
G01*
G75*
G02*
X120874Y180246I3083J0D01*
G01*
Y190246D02*
G75*
G02*
X123957Y187164I0J-3083D01*
G01*
G75*
G02*
X120874Y184081I-3083J0D01*
G01*
G75*
G02*
X117791Y187164I0J3083D01*
G01*
G75*
G02*
X120874Y190246I3083J0D01*
G01*
Y200246D02*
G75*
G02*
X123957Y197164I0J-3083D01*
G01*
G75*
G02*
X120874Y194081I-3083J0D01*
G01*
G75*
G02*
X117791Y197164I0J3083D01*
G01*
G75*
G02*
X120874Y200246I3083J0D01*
G01*
Y210246D02*
G75*
G02*
X123957Y207164I0J-3083D01*
G01*
G75*
G02*
X120874Y204081I-3083J0D01*
G01*
G75*
G02*
X117791Y207164I0J3083D01*
G01*
G75*
G02*
X120874Y210246I3083J0D01*
G01*
Y220246D02*
G75*
G02*
X123957Y217164I0J-3083D01*
G01*
G75*
G02*
X120874Y214081I-3083J0D01*
G01*
G75*
G02*
X117791Y217164I0J3083D01*
G01*
G75*
G02*
X120874Y220246I3083J0D01*
G01*
X149044Y170246D02*
X155209D01*
Y164081D01*
X149044D01*
Y166010D01*
X143228D01*
X141404Y164186D01*
Y159664D01*
G75*
G02*
X141064Y158847I-1154J0D01*
G01*
X138567Y156350D01*
G75*
G02*
X137750Y156010I-817J814D01*
G01*
X135956D01*
X132202Y153843D01*
G75*
G02*
X130250Y153311I-1954J3324D01*
G01*
G75*
G02*
X128300Y153841I0J3853D01*
G01*
X124544Y156010D01*
X116502D01*
G75*
G02*
X115685Y156348I-2J1153D01*
G01*
X111933Y160098D01*
G75*
G02*
X111595Y160914I815J816D01*
G01*
Y202282D01*
X110852Y203569D01*
G75*
G02*
X110842Y203587I1034J594D01*
G01*
G75*
G02*
X110559Y204664I1909J1077D01*
G01*
G75*
G02*
X114941I2191J0D01*
G01*
G75*
G02*
X114658Y203587I-2191J0D01*
G01*
G75*
G02*
X114648Y203569I-1044J575D01*
G01*
X113902Y202277D01*
Y161392D01*
X116978Y158317D01*
X124544D01*
X128300Y160486D01*
G75*
G02*
X130250Y161016I1950J-3322D01*
G01*
G75*
G02*
X132202Y160485I-1J-3856D01*
G01*
X135956Y158317D01*
X137272D01*
X139096Y160142D01*
Y164664D01*
G75*
G02*
X139436Y165481I1154J0D01*
G01*
X141933Y167978D01*
G75*
G02*
X142750Y168317I817J-814D01*
G01*
X149044D01*
Y170246D01*
X149575Y142376D02*
G75*
G02*
X150106Y140424I-3321J-1953D01*
G01*
Y136487D01*
G75*
G02*
X142402I-3852J0D01*
G01*
Y140424D01*
G75*
G02*
X142933Y142376I3853J0D01*
G01*
X144937Y145846D01*
X143522Y147260D01*
X133228D01*
X131404Y145436D01*
Y142870D01*
X133571Y139116D01*
G75*
G02*
X130250Y133311I-3321J-1952D01*
G01*
G75*
G02*
X126929Y139116I0J3852D01*
G01*
X129096Y142870D01*
Y145914D01*
G75*
G02*
X129436Y146731I1154J0D01*
G01*
X131933Y149228D01*
G75*
G02*
X132750Y149567I817J-814D01*
G01*
X144000D01*
G75*
G02*
X144817Y149228I0J-1154D01*
G01*
X147068Y146977D01*
G75*
G02*
X147407Y146160I-814J-817D01*
G01*
Y146130D01*
X149575Y142376D01*
X119337Y259836D02*
G75*
G02*
X123957Y257164I1537J-2672D01*
G01*
G75*
G02*
X119337Y254491I-3083J0D01*
G01*
G75*
G02*
X119333Y254494I739J1272D01*
G01*
X116707Y256010D01*
X115728D01*
X115154Y255436D01*
Y233414D01*
G75*
G02*
X114814Y232597I-1154J0D01*
G01*
X113567Y231350D01*
G75*
G02*
X112750Y231010I-817J814D01*
G01*
X111426D01*
G75*
G02*
X103898Y232164I-3676J1154D01*
G01*
G75*
G02*
X111426Y233317I3852J0D01*
G01*
X112272D01*
X112846Y233892D01*
Y255914D01*
G75*
G02*
X113186Y256731I1154J0D01*
G01*
X114433Y257978D01*
G75*
G02*
X115250Y258317I817J-814D01*
G01*
X116707D01*
X119333Y259833D01*
G75*
G02*
X119337Y259836I669J-1141D01*
G01*
X117394Y227164D02*
G75*
G02*
X124354I3480J0D01*
G01*
G75*
G02*
X117394I-3480J0D01*
G01*
X120874Y240246D02*
G75*
G02*
X123957Y237164I0J-3083D01*
G01*
G75*
G02*
X120874Y234081I-3083J0D01*
G01*
G75*
G02*
X117791Y237164I0J3083D01*
G01*
G75*
G02*
X120874Y240246I3083J0D01*
G01*
Y250246D02*
G75*
G02*
X123957Y247164I0J-3083D01*
G01*
G75*
G02*
X120874Y244081I-3083J0D01*
G01*
G75*
G02*
X117791Y247164I0J3083D01*
G01*
G75*
G02*
X120874Y250246I3083J0D01*
G01*
X103898Y242164D02*
G75*
G02*
X111602I3852J0D01*
G01*
G75*
G02*
X103898I-3852J0D01*
G01*
Y252164D02*
G75*
G02*
X111602I3852J0D01*
G01*
G75*
G02*
X103898I-3852J0D01*
G01*
X119337Y269836D02*
G75*
G02*
X123957Y267164I1537J-2672D01*
G01*
G75*
G02*
X119337Y264491I-3083J0D01*
G01*
G75*
G02*
X119333Y264494I739J1272D01*
G01*
X116707Y266010D01*
X115728D01*
X115154Y265436D01*
Y263414D01*
G75*
G02*
X114814Y262597I-1154J0D01*
G01*
X113567Y261350D01*
G75*
G02*
X112750Y261010I-817J814D01*
G01*
X111426D01*
G75*
G02*
X103898Y262164I-3676J1154D01*
G01*
G75*
G02*
X111426Y263317I3852J0D01*
G01*
X112272D01*
X112846Y263892D01*
Y265914D01*
G75*
G02*
X113186Y266731I1154J0D01*
G01*
X114433Y267978D01*
G75*
G02*
X115250Y268317I817J-814D01*
G01*
X116707D01*
X119333Y269833D01*
G75*
G02*
X119337Y269836I669J-1141D01*
G01*
Y279836D02*
G75*
G02*
X123957Y277164I1537J-2672D01*
G01*
G75*
G02*
X119337Y274491I-3083J0D01*
G01*
G75*
G02*
X119333Y274494I739J1272D01*
G01*
X116707Y276010D01*
X115728D01*
X115154Y275436D01*
Y273414D01*
G75*
G02*
X114814Y272597I-1154J0D01*
G01*
X113567Y271350D01*
G75*
G02*
X112750Y271010I-817J814D01*
G01*
X111426D01*
G75*
G02*
X103898Y272164I-3676J1154D01*
G01*
G75*
G02*
X111426Y273317I3852J0D01*
G01*
X112272D01*
X112846Y273892D01*
Y275914D01*
G75*
G02*
X113186Y276731I1154J0D01*
G01*
X114433Y277978D01*
G75*
G02*
X115250Y278317I817J-814D01*
G01*
X116707D01*
X119333Y279833D01*
G75*
G02*
X119337Y279836I669J-1141D01*
G01*
X41145Y300029D02*
G75*
G02*
X56130I7493J0D01*
G01*
G75*
G02*
X41145I-7493J0D01*
G01*
X102250Y137164D02*
G75*
G02*
X110750I4250J0D01*
G01*
G75*
G02*
X102250I-4250J0D01*
G01*
X102648Y152164D02*
G75*
G02*
X110352I3852J0D01*
G01*
G75*
G02*
X102648I-3852J0D01*
G01*
Y168414D02*
G75*
G02*
X110352I3852J0D01*
G01*
G75*
G02*
X102648I-3852J0D01*
G01*
X41144Y126925D02*
G75*
G02*
X56129I7493J0D01*
G01*
G75*
G02*
X41144I-7493J0D01*
G01*
X214246D02*
G75*
G02*
X229231I7493J0D01*
G01*
G75*
G02*
X214246I-7493J0D01*
G01*
X217314Y276731D02*
G75*
G02*
X217654Y275914I-814J-817D01*
G01*
Y222164D01*
G75*
G02*
X217314Y221347I-1154J0D01*
G01*
X214020Y218052D01*
G75*
G02*
X213203Y217713I-817J814D01*
G01*
X207387D01*
X203707Y215588D01*
G75*
G02*
X198036Y219568I-1931J3278D01*
G01*
X196067Y217600D01*
G75*
G02*
X195250Y217260I-817J814D01*
G01*
X181978D01*
X181067Y216350D01*
G75*
G02*
X180250Y216010I-817J814D01*
G01*
X156293D01*
X153667Y214494D01*
G75*
G02*
X153663Y214491I-669J1141D01*
G01*
G75*
G02*
X149043Y217164I-1537J2672D01*
G01*
G75*
G02*
X153663Y219836I3083J0D01*
G01*
G75*
G02*
X153667Y219833I-739J-1272D01*
G01*
X156293Y218317D01*
X179772D01*
X180683Y219228D01*
G75*
G02*
X181500Y219567I817J-814D01*
G01*
X194772D01*
X196596Y221392D01*
Y234071D01*
X196206D01*
X192526Y231946D01*
G75*
G02*
X186789Y235225I-1931J3279D01*
G01*
G75*
G02*
X192526Y238504I3805J0D01*
G01*
X196206Y236378D01*
X197186D01*
G75*
G02*
X198005Y236041I3J-1154D01*
G01*
X198566Y235480D01*
G75*
G02*
X198904Y234664I-816J-816D01*
G01*
G75*
G02*
Y234663I-610J0D01*
G01*
G75*
G02*
Y234661I-607J-1D01*
G01*
Y232268D01*
G75*
G02*
X203707Y233051I2872J-2496D01*
G01*
X207387Y230926D01*
X211022D01*
X212846Y232750D01*
Y274186D01*
X191022Y296010D01*
X156293D01*
X153667Y294494D01*
G75*
G02*
X153663Y294491I-669J1141D01*
G01*
G75*
G02*
X150464Y299760I-1537J2672D01*
G01*
X135728D01*
X132317Y296350D01*
G75*
G02*
X131500Y296010I-817J814D01*
G01*
X125041D01*
X122415Y294494D01*
G75*
G02*
X122411Y294491I-669J1141D01*
G01*
G75*
G02*
X117791Y297164I-1537J2672D01*
G01*
G75*
G02*
X122411Y299836I3083J0D01*
G01*
G75*
G02*
X122415Y299833I-739J-1272D01*
G01*
X125041Y298317D01*
X131022D01*
X134433Y301728D01*
G75*
G02*
X135250Y302067I817J-814D01*
G01*
X191500D01*
G75*
G02*
X192317Y301728I0J-1154D01*
G01*
X217314Y276731D01*
X197573Y197056D02*
G75*
G02*
X205978I4203J0D01*
G01*
G75*
G02*
X197573I-4203J0D01*
G01*
X186868Y262607D02*
G75*
G02*
X205502I9317J0D01*
G01*
G75*
G02*
X186868I-9317J0D01*
G01*
X188663Y205787D02*
G75*
G02*
X194400Y202508I1931J-3279D01*
G01*
G75*
G02*
X188663Y199230I-3805J0D01*
G01*
X184983Y201355D01*
X146500D01*
G75*
G02*
X145683Y201694I0J1154D01*
G01*
X140686Y206691D01*
G75*
G02*
X140346Y207508I814J817D01*
G01*
Y282164D01*
G75*
G02*
X140686Y282981I1154J0D01*
G01*
X145683Y287978D01*
G75*
G02*
X146500Y288317I817J-814D01*
G01*
X147959D01*
X150585Y289833D01*
G75*
G02*
X150589Y289836I669J-1141D01*
G01*
G75*
G02*
X155209Y287164I1537J-2672D01*
G01*
G75*
G02*
X150589Y284491I-3083J0D01*
G01*
G75*
G02*
X150585Y284494I739J1272D01*
G01*
X147959Y286010D01*
X146978D01*
X142654Y281686D01*
Y207986D01*
X146978Y203662D01*
X162842D01*
G75*
G02*
X165250Y211414I2408J3502D01*
G01*
G75*
G02*
X167658Y203662I0J-4250D01*
G01*
X184983D01*
X188663Y205787D01*
Y216693D02*
G75*
G02*
X194400Y213414I1931J-3279D01*
G01*
G75*
G02*
X188663Y210135I-3805J0D01*
G01*
X184983Y212260D01*
X159478D01*
X158567Y211350D01*
G75*
G02*
X157750Y211010I-817J814D01*
G01*
X147750D01*
G75*
G02*
X146933Y211350I0J1154D01*
G01*
X143186Y215097D01*
G75*
G02*
X142846Y215914I814J817D01*
G01*
Y274664D01*
G75*
G02*
X143186Y275481I1154J0D01*
G01*
X145683Y277978D01*
G75*
G02*
X146500Y278317I817J-814D01*
G01*
X147959D01*
X150585Y279833D01*
G75*
G02*
X150589Y279836I669J-1141D01*
G01*
G75*
G02*
X155209Y277164I1537J-2672D01*
G01*
G75*
G02*
X150589Y274491I-3083J0D01*
G01*
G75*
G02*
X150585Y274494I739J1272D01*
G01*
X147959Y276010D01*
X146978D01*
X145154Y274186D01*
Y216392D01*
X148228Y213317D01*
X157272D01*
X158183Y214228D01*
G75*
G02*
X159000Y214567I817J-814D01*
G01*
X184983D01*
X188663Y216693D01*
Y227598D02*
G75*
G02*
X194400Y224319I1931J-3279D01*
G01*
G75*
G02*
X188663Y221041I-3805J0D01*
G01*
X184983Y223166D01*
X177883D01*
X176067Y221350D01*
G75*
G02*
X175250Y221010I-817J814D01*
G01*
X149000D01*
G75*
G02*
X148183Y221350I0J1154D01*
G01*
X145686Y223847D01*
G75*
G02*
X145346Y224664I814J817D01*
G01*
Y265914D01*
G75*
G02*
X145686Y266731I1154J0D01*
G01*
X146933Y267978D01*
G75*
G02*
X147750Y268317I817J-814D01*
G01*
X147959D01*
X150585Y269833D01*
G75*
G02*
X150589Y269836I669J-1141D01*
G01*
G75*
G02*
X155209Y267164I1537J-2672D01*
G01*
G75*
G02*
X150589Y264491I-3083J0D01*
G01*
G75*
G02*
X150585Y264494I739J1272D01*
G01*
X148130Y265912D01*
X147654Y265436D01*
Y225142D01*
X149478Y223317D01*
X165037D01*
G75*
G02*
X165250Y231016I213J3846D01*
G01*
G75*
G02*
X165463Y223317I0J-3852D01*
G01*
X174772D01*
X176589Y225133D01*
G75*
G02*
X177406Y225473I817J-814D01*
G01*
X184983D01*
X188663Y227598D01*
X148646Y237164D02*
G75*
G02*
X155606I3480J0D01*
G01*
G75*
G02*
X148646I-3480J0D01*
G01*
X152126Y230246D02*
G75*
G02*
Y224081I0J-3083D01*
G01*
G75*
G02*
X149043Y227164I0J3083D01*
G01*
G75*
G02*
X152126Y230246I3083J0D01*
G01*
X166100Y250196D02*
G75*
G02*
X171065Y247321I1650J-2875D01*
G01*
G75*
G02*
X166100Y244446I-3315J0D01*
G01*
G75*
G02*
X166093Y244450I530J924D01*
G01*
X163118Y246168D01*
X160674D01*
G75*
G02*
X160093Y246010I-582J996D01*
G01*
X156293D01*
X153667Y244494D01*
G75*
G02*
X153663Y244491I-669J1141D01*
G01*
G75*
G02*
X149043Y247164I-1537J2672D01*
G01*
G75*
G02*
X153663Y249836I3083J0D01*
G01*
G75*
G02*
X153667Y249833I-739J-1272D01*
G01*
X156293Y248317D01*
X159668D01*
G75*
G02*
X160250Y248475I582J-996D01*
G01*
X163118D01*
X166093Y250192D01*
G75*
G02*
X166100Y250196I572J-979D01*
G01*
Y269881D02*
G75*
G02*
X171065Y267006I1650J-2875D01*
G01*
G75*
G02*
X166100Y264131I-3315J0D01*
G01*
G75*
G02*
X166093Y264135I530J924D01*
G01*
X163187Y265813D01*
X161404Y264028D01*
Y259664D01*
G75*
G02*
X161064Y258847I-1154J0D01*
G01*
X158567Y256350D01*
G75*
G02*
X157750Y256010I-817J814D01*
G01*
X156293D01*
X153667Y254494D01*
G75*
G02*
X153663Y254491I-669J1141D01*
G01*
G75*
G02*
X149043Y257164I-1537J2672D01*
G01*
G75*
G02*
X153663Y259836I3083J0D01*
G01*
G75*
G02*
X153667Y259833I-739J-1272D01*
G01*
X156293Y258317D01*
X157272D01*
X159096Y260142D01*
Y264506D01*
G75*
G02*
X159436Y265323I1154J0D01*
G01*
X161933Y267820D01*
G75*
G02*
X162750Y268160I817J-814D01*
G01*
X163118D01*
X166093Y269877D01*
G75*
G02*
X166100Y269881I572J-979D01*
G01*
X164037Y257164D02*
G75*
G02*
X171463I3713J0D01*
G01*
G75*
G02*
X164037I-3713J0D01*
G01*
X152126Y210246D02*
G75*
G02*
X155209Y207164I0J-3083D01*
G01*
G75*
G02*
X152126Y204081I-3083J0D01*
G01*
G75*
G02*
X149043Y207164I0J3083D01*
G01*
G75*
G02*
X152126Y210246I3083J0D01*
G01*
X186789Y191603D02*
G75*
G02*
X194400I3805J0D01*
G01*
G75*
G02*
X186789I-3805J0D01*
G01*
X186868Y164221D02*
G75*
G02*
X205502I9317J0D01*
G01*
G75*
G02*
X186868I-9317J0D01*
G01*
X192004Y140424D02*
G75*
G02*
X200504I4250J0D01*
G01*
Y136487D01*
G75*
G02*
X192004I-4250J0D01*
G01*
Y140424D01*
X172402D02*
G75*
G02*
X180107I3852J0D01*
G01*
Y136487D01*
G75*
G02*
X172402I-3852J0D01*
G01*
Y140424D01*
X182402D02*
G75*
G02*
X190107I3852J0D01*
G01*
Y136487D01*
G75*
G02*
X182402I-3852J0D01*
G01*
Y140424D01*
X106882Y284447D02*
G75*
G02*
X115587I4352J0D01*
G01*
G75*
G02*
X106882I-4352J0D01*
G01*
X39543Y126925D02*
G36*
X39543Y126925D02*
Y121237D01*
G75*
G03*
X43074Y117707I5155J1625D01*
G01*
X227426D01*
G75*
G03*
X230957Y121237I-1625J5155D01*
G01*
Y126925D01*
X229231D01*
G75*
G02*
X214246I-7493J0D01*
G01*
X56129D01*
G75*
G02*
X41144I-7493J0D01*
G01*
X39543D01*
G37*
Y141101D02*
G36*
X39543Y141101D02*
Y126925D01*
X41144D01*
G75*
G02*
X56129I7493J0D01*
G01*
X214246D01*
G75*
G02*
X229231I7493J0D01*
G01*
X230957D01*
Y141101D01*
X200450D01*
G75*
G02*
X200504Y140424I-4196J-678D01*
G01*
Y136487D01*
G75*
G02*
X192004I-4250J0D01*
G01*
Y140424D01*
G75*
G02*
X192059Y141101I4250J0D01*
G01*
X190047D01*
G75*
G02*
X190107Y140424I-3793J-676D01*
G01*
Y136487D01*
G75*
G02*
X182402I-3852J0D01*
G01*
Y140424D01*
G75*
G02*
X182462Y141101I3852J1D01*
G01*
X180047D01*
G75*
G02*
X180107Y140424I-3793J-676D01*
G01*
Y136487D01*
G75*
G02*
X172402I-3852J0D01*
G01*
Y140424D01*
G75*
G02*
X172462Y141101I3852J1D01*
G01*
X170046D01*
G75*
G02*
X170106Y140424I-3796J-679D01*
G01*
Y136487D01*
G75*
G02*
X162402I-3852J0D01*
G01*
Y140424D01*
G75*
G02*
X162462Y141101I3856J-2D01*
G01*
X160046D01*
G75*
G02*
X160106Y140424I-3796J-679D01*
G01*
Y136487D01*
G75*
G02*
X152402I-3852J0D01*
G01*
Y140424D01*
G75*
G02*
X152462Y141101I3856J-2D01*
G01*
X150046D01*
G75*
G02*
X150106Y140424I-3796J-679D01*
G01*
Y136487D01*
G75*
G02*
X142402I-3852J0D01*
G01*
Y140424D01*
G75*
G02*
X142462Y141101I3856J-2D01*
G01*
X132425D01*
X133571Y139116D01*
G75*
G02*
X134102Y137164I-3321J-1953D01*
G01*
G75*
G02*
X130250Y133311I-3852J0D01*
G01*
G75*
G02*
X126398Y137164I0J3852D01*
G01*
G75*
G02*
X126929Y139116I3852J0D01*
G01*
X128075Y141101D01*
X108101D01*
G75*
G02*
X110750Y137164I-1601J-3937D01*
G01*
G75*
G02*
X102250I-4250J0D01*
G01*
G75*
G02*
X104899Y141101I4250J0D01*
G01*
X39543D01*
G37*
Y142990D02*
G36*
X39543Y142990D02*
Y141101D01*
X104899D01*
G75*
G02*
X108101I1601J-3937D01*
G01*
X128075D01*
X129096Y142870D01*
Y145914D01*
G75*
G02*
X129436Y146731I1154J0D01*
G01*
X131933Y149228D01*
G75*
G02*
X132750Y149567I817J-814D01*
G01*
X144000D01*
G75*
G02*
X144817Y149228I0J-1154D01*
G01*
X147068Y146977D01*
G75*
G02*
X147407Y146160I-814J-817D01*
G01*
Y146130D01*
X149575Y142376D01*
G75*
G02*
X150046Y141101I-3324J-1953D01*
G01*
X152462D01*
G75*
G02*
X152933Y142376I3796J-678D01*
G01*
X155100Y146130D01*
Y150914D01*
G75*
G02*
X155440Y151731I1154J0D01*
G01*
X155873Y152164D01*
X110352D01*
G75*
G02*
X102648I-3852J0D01*
G01*
X81881D01*
X78150Y148433D01*
G75*
G02*
X77333Y148094I-817J814D01*
G01*
X67597D01*
X59339Y143326D01*
G75*
G02*
X57486Y142489I-1852J1631D01*
G01*
X41033D01*
G75*
G02*
X39543Y142990I0J2469D01*
G01*
G37*
X131404Y145436D02*
G36*
X131404Y145436D02*
Y142870D01*
X132425Y141101D01*
X142462D01*
G75*
G02*
X142933Y142376I3796J-678D01*
G01*
X144937Y145846D01*
X143522Y147260D01*
X133228D01*
X131404Y145436D01*
G37*
X157407Y150436D02*
G36*
X157407Y150436D02*
Y146130D01*
X159575Y142376D01*
G75*
G02*
X160046Y141101I-3324J-1953D01*
G01*
X162462D01*
G75*
G02*
X162933Y142376I3796J-678D01*
G01*
X165100Y146130D01*
Y152164D01*
X159135D01*
X157407Y150436D01*
G37*
X167407Y152164D02*
G36*
X167407Y152164D02*
Y146130D01*
X169575Y142376D01*
G75*
G02*
X170046Y141101I-3324J-1953D01*
G01*
X172462D01*
G75*
G02*
X180047I3793J-677D01*
G01*
X182462D01*
G75*
G02*
X190047I3793J-677D01*
G01*
X192059D01*
G75*
G02*
X200450I4196J-677D01*
G01*
X230957D01*
Y152164D01*
X167407D01*
G37*
X83564Y153847D02*
G36*
X83564Y153847D02*
X81881Y152164D01*
X102648D01*
G75*
G02*
X110352I3852J0D01*
G01*
X155873D01*
X157846Y154138D01*
Y161440D01*
X141404D01*
Y159664D01*
G75*
G02*
X141064Y158847I-1154J0D01*
G01*
X138567Y156350D01*
G75*
G02*
X137750Y156010I-817J814D01*
G01*
X135956D01*
X132202Y153843D01*
G75*
G02*
X130250Y153311I-1954J3324D01*
G01*
G75*
G02*
X128300Y153841I-1J3848D01*
G01*
X124544Y156010D01*
X116502D01*
G75*
G02*
X115685Y156348I-2J1152D01*
G01*
X111933Y160098D01*
G75*
G02*
X111595Y160914I815J816D01*
G01*
Y161440D01*
X83904D01*
Y154664D01*
G75*
G02*
X83564Y153847I-1154J0D01*
G01*
G37*
X113902Y161440D02*
G36*
X113902Y161440D02*
Y161392D01*
X116978Y158317D01*
X124544D01*
X128300Y160486D01*
G75*
G02*
X130250Y161016I1949J-3319D01*
G01*
G75*
G02*
X132202Y160485I-1J-3856D01*
G01*
X135956Y158317D01*
X137272D01*
X139096Y160142D01*
Y161440D01*
X113902D01*
G37*
X159814Y152843D02*
G36*
X159814Y152843D02*
X159135Y152164D01*
X165100D01*
Y161440D01*
X160154D01*
Y153660D01*
G75*
G02*
X159814Y152843I-1154J0D01*
G01*
G37*
X167407Y161440D02*
G36*
X167407Y161440D02*
Y152164D01*
X230957D01*
Y161440D01*
X205077D01*
G75*
G02*
X187293I-8892J2781D01*
G01*
X167407D01*
G37*
X83904Y167164D02*
G36*
X83904Y167164D02*
Y161440D01*
X111595D01*
Y167164D01*
X110144D01*
G75*
G02*
X102856I-3644J1250D01*
G01*
X93894D01*
G75*
G02*
X86606I-3644J1250D01*
G01*
X83904D01*
G37*
X113902D02*
G36*
X113902Y167164D02*
Y161440D01*
X139096D01*
Y164664D01*
G75*
G02*
X139436Y165481I1154J0D01*
G01*
X141119Y167164D01*
X123957D01*
Y167163D01*
G75*
G02*
X120874Y164081I-3083J0D01*
G01*
G75*
G02*
X117791Y167163I0J3082D01*
G01*
Y167164D01*
X113902D01*
G37*
X141404Y164186D02*
G36*
X141404Y164186D02*
Y161440D01*
X157846D01*
Y167164D01*
X155209D01*
Y164081D01*
X149044D01*
Y166010D01*
X143228D01*
X141404Y164186D01*
G37*
X160154Y167164D02*
G36*
X160154Y167164D02*
Y161440D01*
X165100D01*
Y167164D01*
X160154D01*
G37*
X167407D02*
G36*
X167407Y167164D02*
Y161440D01*
X187293D01*
G75*
G02*
X186868Y164221I8893J2781D01*
G01*
G75*
G02*
X187345Y167164I9317J0D01*
G01*
X167407D01*
G37*
X205502Y164221D02*
G36*
X205502Y164221D02*
G75*
G02*
X205077Y161440I-9318J1D01*
G01*
X230957D01*
Y167164D01*
X205025D01*
G75*
G02*
X205502Y164221I-8840J-2943D01*
G01*
G37*
X83904Y177164D02*
G36*
X83904Y177164D02*
Y167164D01*
X86606D01*
G75*
G02*
X86398Y168414I3644J1250D01*
G01*
G75*
G02*
X86898Y170312I3854J0D01*
G01*
Y177164D01*
X83904D01*
G37*
X93602D02*
G36*
X93602Y177164D02*
Y170312D01*
G75*
G02*
X94102Y168414I-3354J-1898D01*
G01*
G75*
G02*
X93894Y167164I-3852J0D01*
G01*
X102856D01*
G75*
G02*
X102648Y168414I3644J1250D01*
G01*
G75*
G02*
X110352I3852J0D01*
G01*
G75*
G02*
X110144Y167164I-3852J0D01*
G01*
X111595D01*
Y177164D01*
X93602D01*
G37*
X113902D02*
G36*
X113902Y177164D02*
Y167164D01*
X117791D01*
Y167164D01*
G75*
G02*
X120874Y170246I3083J0D01*
G01*
G75*
G02*
X123957Y167164I0J-3082D01*
G01*
Y167164D01*
X141119D01*
X141933Y167978D01*
G75*
G02*
X142750Y168317I817J-814D01*
G01*
X149044D01*
Y170246D01*
X155209D01*
Y167164D01*
X157846D01*
Y169186D01*
X156022Y171010D01*
X149000D01*
G75*
G02*
X148183Y171350I0J1154D01*
G01*
X145686Y173847D01*
G75*
G02*
X145346Y174664I814J817D01*
G01*
Y177164D01*
X123957D01*
Y177163D01*
G75*
G02*
X120874Y174081I-3083J0D01*
G01*
G75*
G02*
X117791Y177163I0J3082D01*
G01*
Y177164D01*
X113902D01*
G37*
X147654D02*
G36*
X147654Y177164D02*
Y175142D01*
X149478Y173317D01*
X156500D01*
G75*
G02*
X157317Y172978I0J-1154D01*
G01*
X159814Y170481D01*
G75*
G02*
X160154Y169664I-814J-817D01*
G01*
Y167164D01*
X165100D01*
Y170682D01*
X159772Y176010D01*
X156293D01*
X153667Y174494D01*
G75*
G03*
X153663Y174491I9J-20D01*
G01*
G75*
G02*
X149043Y177163I-1537J2672D01*
G01*
Y177164D01*
X147654D01*
G37*
X161881D02*
G36*
X161881Y177164D02*
X167068Y171977D01*
G75*
G02*
X167407Y171160I-814J-817D01*
G01*
Y167164D01*
X187345D01*
G75*
G02*
X205025I8840J-2943D01*
G01*
X230957D01*
Y177164D01*
X161881D01*
G37*
X83904Y181686D02*
G36*
X83904Y181686D02*
Y177164D01*
X86898D01*
Y183414D01*
G75*
G02*
X87406Y185188I3355J0D01*
G01*
X83904Y181686D01*
G37*
X93602Y182025D02*
G36*
X93602Y182025D02*
Y177164D01*
X111595D01*
Y187164D01*
X98741D01*
X93602Y182025D01*
G37*
X113902Y187164D02*
G36*
X113902Y187164D02*
Y177164D01*
X117791D01*
Y177164D01*
G75*
G02*
X120874Y180246I3083J0D01*
G01*
G75*
G02*
X123957Y177164I0J-3082D01*
G01*
Y177164D01*
X145346D01*
Y185914D01*
G75*
G02*
X145686Y186731I1154J0D01*
G01*
X146119Y187164D01*
X123957D01*
Y187163D01*
G75*
G02*
X120874Y184081I-3083J0D01*
G01*
G75*
G02*
X117791Y187163I0J3082D01*
G01*
Y187164D01*
X113902D01*
G37*
X147654Y185436D02*
G36*
X147654Y185436D02*
Y177164D01*
X149043D01*
G75*
G02*
X153663Y179836I3083J0D01*
G01*
G75*
G02*
X153667Y179833I-9J-20D01*
G01*
X156293Y178317D01*
X160250D01*
G75*
G02*
X161067Y177978I0J-1154D01*
G01*
X161881Y177164D01*
X230957D01*
Y187164D01*
X155209D01*
Y187163D01*
G75*
G02*
X150589Y184491I-3083J0D01*
G01*
G75*
G02*
X150585Y184494I9J20D01*
G01*
X148130Y185912D01*
X147654Y185436D01*
G37*
X103180Y191603D02*
G36*
X103180Y191603D02*
X98741Y187164D01*
X111595D01*
Y191603D01*
X103180D01*
G37*
X113902D02*
G36*
X113902Y191603D02*
Y187164D01*
X117791D01*
Y187164D01*
G75*
G02*
X120874Y190246I3083J0D01*
G01*
G75*
G02*
X123957Y187164I0J-3082D01*
G01*
Y187164D01*
X146119D01*
X146933Y187978D01*
G75*
G02*
X147750Y188317I817J-814D01*
G01*
X147959D01*
X150585Y189833D01*
G75*
G03*
X150589Y189836I-9J20D01*
G01*
G75*
G02*
X155209Y187164I1537J-2672D01*
G01*
Y187164D01*
X230957D01*
Y191603D01*
X194400D01*
G75*
G02*
X186789I-3805J0D01*
G01*
X113902D01*
G37*
X108741Y197164D02*
G36*
X108741Y197164D02*
X103180Y191603D01*
X111595D01*
Y197164D01*
X108741D01*
G37*
X113902D02*
G36*
X113902Y197164D02*
Y191603D01*
X186789D01*
G75*
G02*
X194400I3805J0D01*
G01*
X230957D01*
Y197164D01*
X205977D01*
G75*
G02*
X205978Y197056I-4202J-115D01*
G01*
G75*
G02*
X197573I-4203J0D01*
G01*
G75*
G02*
X197574Y197164I4203J-7D01*
G01*
X155209D01*
Y197163D01*
G75*
G02*
X150589Y194491I-3083J0D01*
G01*
G75*
G02*
X150585Y194494I9J20D01*
G01*
X147959Y196010D01*
X130250D01*
G75*
G02*
X129433Y196350I0J1154D01*
G01*
X128619Y197164D01*
X123957D01*
Y197163D01*
G75*
G02*
X120874Y194081I-3083J0D01*
G01*
G75*
G02*
X117791Y197163I0J3082D01*
G01*
Y197164D01*
X113902D01*
G37*
X108868Y197291D02*
G36*
X108868Y197291D02*
X108741Y197164D01*
X111595D01*
Y202282D01*
X110852Y203569D01*
G75*
G02*
X110842Y203587I293J177D01*
G01*
G75*
G02*
X110559Y204664I1915J1078D01*
G01*
G75*
G02*
X114941I2191J0D01*
G01*
G75*
G02*
X114658Y203587I-2198J2D01*
G01*
G75*
G02*
X114648Y203569I-304J158D01*
G01*
X113902Y202277D01*
Y197164D01*
X117791D01*
Y197164D01*
G75*
G02*
X120874Y200246I3083J0D01*
G01*
G75*
G02*
X123957Y197164I0J-3082D01*
G01*
Y197164D01*
X128619D01*
X126936Y198847D01*
G75*
G02*
X126596Y199664I814J817D01*
G01*
Y207164D01*
X123957D01*
Y207163D01*
G75*
G02*
X120874Y204081I-3083J0D01*
G01*
G75*
G02*
X117791Y207163I0J3082D01*
G01*
Y207164D01*
X110144D01*
G75*
G02*
X109852Y206516I-3645J1249D01*
G01*
Y199664D01*
G75*
G02*
X108868Y197291I-3352J0D01*
G01*
G37*
X128904Y207164D02*
G36*
X128904Y207164D02*
Y200142D01*
X130728Y198317D01*
X147959D01*
X150585Y199833D01*
G75*
G03*
X150589Y199836I-9J20D01*
G01*
G75*
G02*
X155209Y197164I1537J-2672D01*
G01*
Y197164D01*
X197574D01*
G75*
G02*
X205977I4201J-108D01*
G01*
X230957D01*
Y207164D01*
X214834D01*
X214817Y207147D01*
G75*
G02*
X214000Y206807I-817J814D01*
G01*
X207387D01*
X203707Y204682D01*
G75*
G02*
X198055Y207164I-1931J3279D01*
G01*
X169500D01*
G75*
G02*
X167658Y203662I-4250J0D01*
G01*
X184983D01*
X188663Y205787D01*
G75*
G02*
X194400Y202508I1931J-3279D01*
G01*
G75*
G02*
X188663Y199230I-3805J0D01*
G01*
X184983Y201355D01*
X146500D01*
G75*
G02*
X145683Y201694I0J1154D01*
G01*
X140686Y206691D01*
G75*
G02*
X140399Y207164I814J817D01*
G01*
X128904D01*
G37*
X143476D02*
G36*
X143476Y207164D02*
X146978Y203662D01*
X162842D01*
G75*
G02*
X161000Y207164I2408J3502D01*
G01*
X155209D01*
Y207163D01*
G75*
G02*
X152126Y204081I-3083J0D01*
G01*
G75*
G02*
X149043Y207163I0J3082D01*
G01*
Y207164D01*
X143476D01*
G37*
X102654Y210048D02*
G36*
X102654Y210048D02*
Y208627D01*
G75*
G02*
X103012Y210048I3846J-214D01*
G01*
X102654D01*
G37*
X110352Y208414D02*
G36*
X110352Y208414D02*
G75*
G02*
X110144Y207164I-3854J1D01*
G01*
X117791D01*
Y207164D01*
G75*
G02*
X119787Y210048I3082J0D01*
G01*
X109988D01*
G75*
G02*
X110352Y208414I-3489J-1635D01*
G01*
G37*
X123957Y207164D02*
G36*
X123957Y207164D02*
Y207164D01*
X126596D01*
Y210048D01*
X121961D01*
G75*
G02*
X123957Y207164I-1087J-2884D01*
G01*
G37*
X128904Y210048D02*
G36*
X128904Y210048D02*
Y207164D01*
X140399D01*
G75*
G02*
X140346Y207508I1101J345D01*
G01*
Y210048D01*
X128904D01*
G37*
X142654D02*
G36*
X142654Y210048D02*
Y207986D01*
X143476Y207164D01*
X149043D01*
Y207164D01*
G75*
G02*
X151039Y210048I3082J0D01*
G01*
X142654D01*
G37*
X155209Y207164D02*
G36*
X155209Y207164D02*
Y207164D01*
X161000D01*
G75*
G02*
X162129Y210048I4250J0D01*
G01*
X153213D01*
G75*
G02*
X155209Y207164I-1087J-2884D01*
G01*
G37*
X169500Y207164D02*
G36*
X169500Y207164D02*
X198055D01*
G75*
G02*
X197970Y207961I3721J798D01*
G01*
G75*
G02*
X198594Y210048I3805J0D01*
G01*
X192370D01*
G75*
G02*
X188819I-1776J3365D01*
G01*
X168371D01*
G75*
G02*
X169500Y207164I-3121J-2885D01*
G01*
G37*
X205770Y210048D02*
G36*
X205770Y210048D02*
X207387Y209115D01*
X213522D01*
X214456Y210048D01*
X205770D01*
G37*
X217719D02*
G36*
X217719Y210048D02*
X214834Y207164D01*
X230957D01*
Y210048D01*
X217719D01*
G37*
X102654Y217164D02*
G36*
X102654Y217164D02*
Y210048D01*
X103012D01*
G75*
G02*
X109988I3488J-1635D01*
G01*
X119787D01*
G75*
G02*
X120874Y210246I1087J-2884D01*
G01*
G75*
G02*
X121961Y210048I0J-3082D01*
G01*
X126596D01*
Y217164D01*
X123957D01*
Y217163D01*
G75*
G02*
X120874Y214081I-3083J0D01*
G01*
G75*
G02*
X117791Y217163I0J3082D01*
G01*
Y217164D01*
X102654D01*
G37*
X128904D02*
G36*
X128904Y217164D02*
Y210048D01*
X140346D01*
Y217164D01*
X128904D01*
G37*
X142654D02*
G36*
X142654Y217164D02*
Y210048D01*
X151039D01*
G75*
G02*
X152126Y210246I1087J-2884D01*
G01*
G75*
G02*
X153213Y210048I0J-3082D01*
G01*
X162129D01*
G75*
G02*
X165250Y211414I3121J-2884D01*
G01*
G75*
G02*
X168371Y210048I0J-4250D01*
G01*
X188819D01*
G75*
G02*
X188663Y210135I1776J3363D01*
G01*
X184983Y212260D01*
X159478D01*
X158567Y211350D01*
G75*
G02*
X157750Y211010I-817J814D01*
G01*
X147750D01*
G75*
G02*
X146933Y211350I0J1154D01*
G01*
X143186Y215097D01*
G75*
G02*
X142846Y215914I814J817D01*
G01*
Y217164D01*
X142654D01*
G37*
X145154D02*
G36*
X145154Y217164D02*
Y216392D01*
X148228Y213317D01*
X157272D01*
X158183Y214228D01*
G75*
G02*
X159000Y214567I817J-814D01*
G01*
X184983D01*
X188663Y216693D01*
G75*
G02*
X189949Y217164I1931J-3279D01*
G01*
X181881D01*
X181067Y216350D01*
G75*
G02*
X180250Y216010I-817J814D01*
G01*
X156293D01*
X153667Y214494D01*
G75*
G03*
X153663Y214491I9J-20D01*
G01*
G75*
G02*
X149043Y217163I-1537J2672D01*
G01*
Y217164D01*
X145154D01*
G37*
X194400Y213414D02*
G36*
X194400Y213414D02*
G75*
G02*
X192370Y210048I-3805J0D01*
G01*
X198594D01*
G75*
G02*
X203707Y211240I3181J-2087D01*
G01*
X205770Y210048D01*
X214456D01*
X217846Y213439D01*
Y217164D01*
X206436D01*
X203707Y215588D01*
G75*
G02*
X198373Y217164I-1931J3279D01*
G01*
X191240D01*
G75*
G02*
X194400Y213414I-645J-3750D01*
G01*
G37*
X219814Y212144D02*
G36*
X219814Y212144D02*
X217719Y210048D01*
X230957D01*
Y217164D01*
X220154D01*
Y212961D01*
G75*
G02*
X219814Y212144I-1154J0D01*
G01*
G37*
X76881Y227164D02*
G36*
X76881Y227164D02*
X80728Y223317D01*
X82044D01*
X85798Y225485D01*
G75*
G02*
X88064Y226003I1952J-3321D01*
G01*
G75*
G02*
X88896Y227164I1350J-89D01*
G01*
X76881D01*
G37*
X93267D02*
G36*
X93267Y227164D02*
G75*
G02*
X93707Y226870I-517J-1251D01*
G01*
X97457Y223120D01*
G75*
G02*
X97846Y222294I-954J-955D01*
G01*
Y227164D01*
X93267D01*
G37*
X102654D02*
G36*
X102654Y227164D02*
Y217164D01*
X117791D01*
Y217164D01*
G75*
G02*
X120874Y220246I3083J0D01*
G01*
G75*
G02*
X123957Y217164I0J-3082D01*
G01*
Y217164D01*
X126596D01*
Y217936D01*
X123522Y221010D01*
X113456D01*
X109702Y218843D01*
G75*
G02*
X103898Y222164I-1952J3321D01*
G01*
G75*
G02*
X109702Y225485I3852J0D01*
G01*
X113456Y223317D01*
X124000D01*
G75*
G02*
X124817Y222978I0J-1154D01*
G01*
X128564Y219231D01*
G75*
G02*
X128904Y218414I-814J-817D01*
G01*
Y217164D01*
X140346D01*
Y227164D01*
X124354D01*
G75*
G02*
X117394I-3480J0D01*
G01*
X102654D01*
G37*
X142654D02*
G36*
X142654Y227164D02*
Y217164D01*
X142846D01*
Y227164D01*
X142654D01*
G37*
X145154D02*
G36*
X145154Y227164D02*
Y217164D01*
X149043D01*
G75*
G02*
X153663Y219836I3083J0D01*
G01*
G75*
G02*
X153667Y219833I-9J-20D01*
G01*
X156293Y218317D01*
X179772D01*
X180683Y219228D01*
G75*
G02*
X181500Y219567I817J-814D01*
G01*
X194772D01*
X196596Y221392D01*
Y227164D01*
X193122D01*
G75*
G02*
X194400Y224319I-2527J-2845D01*
G01*
G75*
G02*
X188663Y221041I-3805J0D01*
G01*
X184983Y223166D01*
X177883D01*
X176067Y221350D01*
G75*
G02*
X175250Y221010I-817J814D01*
G01*
X149000D01*
G75*
G02*
X148183Y221350I0J1154D01*
G01*
X145686Y223847D01*
G75*
G02*
X145346Y224664I814J817D01*
G01*
Y227164D01*
X145154D01*
G37*
X147654D02*
G36*
X147654Y227164D02*
Y225142D01*
X149478Y223317D01*
X165037D01*
G75*
G02*
X161398Y227164I213J3846D01*
G01*
X155209D01*
G75*
G02*
X152126Y224081I-3083J0D01*
G01*
G75*
G02*
X149043Y227163I0J3082D01*
G01*
Y227164D01*
X147654D01*
G37*
X169102D02*
G36*
X169102Y227164D02*
G75*
G02*
X165463Y223317I-3852J0D01*
G01*
X174772D01*
X176589Y225133D01*
G75*
G02*
X177406Y225473I817J-814D01*
G01*
X184983D01*
X187911Y227164D01*
X169102D01*
G37*
X181978Y217260D02*
G36*
X181978Y217260D02*
X181881Y217164D01*
X189949D01*
G75*
G02*
X191240I645J-3750D01*
G01*
X198373D01*
G75*
G02*
X197970Y218867I3403J1703D01*
G01*
G75*
G02*
X198036Y219568I3806J-1D01*
G01*
X196067Y217600D01*
G75*
G02*
X195250Y217260I-817J814D01*
G01*
X181978D01*
G37*
X207387Y217713D02*
G36*
X207387Y217713D02*
X206436Y217164D01*
X217846D01*
Y227164D01*
X217654D01*
Y222164D01*
G75*
G02*
X217314Y221347I-1154J0D01*
G01*
X214020Y218052D01*
G75*
G02*
X213203Y217713I-817J814D01*
G01*
X207387D01*
G37*
X220154Y227164D02*
G36*
X220154Y227164D02*
Y217164D01*
X230957D01*
Y227164D01*
X220154D01*
G37*
X39543Y237164D02*
G36*
X39543Y237164D02*
Y235504D01*
G75*
G02*
X41033Y236005I1491J-1969D01*
G01*
X57486D01*
G75*
G02*
X59339Y235169I1J-2468D01*
G01*
X67597Y230401D01*
X73167D01*
G75*
G02*
X73983Y230061I0J-1154D01*
G01*
X76881Y227164D01*
X88896D01*
G75*
G02*
X89413Y227267I517J-1250D01*
G01*
X92749D01*
G75*
G02*
X93267Y227164I1J-1354D01*
G01*
X97846D01*
Y237164D01*
X73904D01*
Y235142D01*
X75728Y233317D01*
X82044D01*
X85798Y235485D01*
G75*
G02*
X91602Y232164I1952J-3321D01*
G01*
G75*
G02*
X85798Y228843I-3852J0D01*
G01*
X82044Y231010D01*
X75250D01*
G75*
G02*
X74433Y231350I0J1154D01*
G01*
X71936Y233847D01*
G75*
G02*
X71596Y234664I814J817D01*
G01*
Y237164D01*
X39543D01*
G37*
X102654D02*
G36*
X102654Y237164D02*
Y227164D01*
X117394D01*
G75*
G02*
X124354I3480J0D01*
G01*
X140346D01*
Y237164D01*
X123957D01*
Y237163D01*
G75*
G02*
X120874Y234081I-3083J0D01*
G01*
G75*
G02*
X117791Y237163I0J3082D01*
G01*
Y237164D01*
X115154D01*
Y233414D01*
G75*
G02*
X114814Y232597I-1154J0D01*
G01*
X113567Y231350D01*
G75*
G02*
X112750Y231010I-817J814D01*
G01*
X111426D01*
G75*
G02*
X103898Y232164I-3676J1154D01*
G01*
G75*
G02*
X111426Y233317I3852J0D01*
G01*
X112272D01*
X112846Y233892D01*
Y237164D01*
X102654D01*
G37*
X142654D02*
G36*
X142654Y237164D02*
Y227164D01*
X142846D01*
Y237164D01*
X142654D01*
G37*
X145154D02*
G36*
X145154Y237164D02*
Y227164D01*
X145346D01*
Y237164D01*
X145154D01*
G37*
X147654D02*
G36*
X147654Y237164D02*
Y227164D01*
X149043D01*
Y227164D01*
G75*
G02*
X152126Y230246I3083J0D01*
G01*
G75*
G02*
X155209Y227164I0J-3083D01*
G01*
X161398D01*
G75*
G02*
X165250Y231016I3852J0D01*
G01*
G75*
G02*
X169102Y227164I0J-3852D01*
G01*
X187911D01*
X188663Y227598D01*
G75*
G02*
X193122Y227164I1931J-3279D01*
G01*
X196596D01*
Y234071D01*
X196206D01*
X192526Y231946D01*
G75*
G02*
X186789Y235225I-1931J3279D01*
G01*
G75*
G02*
X187320Y237164I3805J0D01*
G01*
X155606D01*
G75*
G02*
X148646I-3480J0D01*
G01*
X147654D01*
G37*
X194846D02*
G36*
X194846Y237164D02*
X196206Y236378D01*
X197186D01*
G75*
G02*
X198005Y236041I4J-1151D01*
G01*
X198566Y235480D01*
G75*
G02*
X198904Y234664I-817J-816D01*
G01*
Y234663D01*
Y234661D01*
Y232268D01*
G75*
G02*
X203707Y233051I2872J-2496D01*
G01*
X207387Y230926D01*
X211022D01*
X212846Y232750D01*
Y237164D01*
X194846D01*
G37*
X217654D02*
G36*
X217654Y237164D02*
Y227164D01*
X217846D01*
Y237164D01*
X217654D01*
G37*
X220154D02*
G36*
X220154Y237164D02*
Y227164D01*
X230957D01*
Y237164D01*
X220154D01*
G37*
X39543Y238990D02*
G36*
X39543Y238990D02*
Y237164D01*
X71596D01*
Y242269D01*
X69772Y244094D01*
X67597D01*
X59339Y239326D01*
G75*
G02*
X57486Y238489I-1852J1631D01*
G01*
X41033D01*
G75*
G02*
X39543Y238990I0J2469D01*
G01*
G37*
X72850Y244279D02*
G36*
X72850Y244279D02*
X73564Y243564D01*
G75*
G02*
X73904Y242747I-814J-817D01*
G01*
Y237164D01*
X97846D01*
Y244279D01*
X90970D01*
G75*
G02*
X91602Y242164I-3220J-2115D01*
G01*
G75*
G02*
X85798Y238843I-3852J0D01*
G01*
X82044Y241010D01*
X77750D01*
G75*
G02*
X76933Y241350I0J1154D01*
G01*
X74436Y243847D01*
G75*
G02*
X74163Y244279I814J817D01*
G01*
X72850D01*
G37*
X77267D02*
G36*
X77267Y244279D02*
X78228Y243317D01*
X82044D01*
X83709Y244279D01*
X77267D01*
G37*
X102654D02*
G36*
X102654Y244279D02*
Y237164D01*
X112846D01*
Y244279D01*
X110970D01*
G75*
G02*
X111602Y242164I-3220J-2115D01*
G01*
G75*
G02*
X103898I-3852J0D01*
G01*
G75*
G02*
X104530Y244279I3852J0D01*
G01*
X102654D01*
G37*
X115154D02*
G36*
X115154Y244279D02*
Y237164D01*
X117791D01*
Y237164D01*
G75*
G02*
X120874Y240246I3083J0D01*
G01*
G75*
G02*
X123957Y237164I0J-3082D01*
G01*
Y237164D01*
X140346D01*
Y244279D01*
X121960D01*
G75*
G02*
X120874Y244081I-1086J2884D01*
G01*
G75*
G02*
X119788Y244279I0J3082D01*
G01*
X115154D01*
G37*
X142654D02*
G36*
X142654Y244279D02*
Y237164D01*
X142846D01*
Y244279D01*
X142654D01*
G37*
X145154D02*
G36*
X145154Y244279D02*
Y237164D01*
X145346D01*
Y244279D01*
X145154D01*
G37*
X147654D02*
G36*
X147654Y244279D02*
Y237164D01*
X148646D01*
G75*
G02*
X155606I3480J0D01*
G01*
X187320D01*
G75*
G02*
X192526Y238504I3274J-1939D01*
G01*
X194846Y237164D01*
X212846D01*
Y244279D01*
X169065D01*
G75*
G02*
X166434I-1316J3043D01*
G01*
X153212D01*
G75*
G02*
X151039I-1086J2885D01*
G01*
X147654D01*
G37*
X217654D02*
G36*
X217654Y244279D02*
Y237164D01*
X217846D01*
Y244279D01*
X217654D01*
G37*
X220154D02*
G36*
X220154Y244279D02*
Y237164D01*
X230957D01*
Y244279D01*
X220154D01*
G37*
X66275Y247164D02*
G36*
X66275Y247164D02*
X67597Y246401D01*
X70250D01*
G75*
G02*
X71067Y246061I0J-1154D01*
G01*
X72850Y244279D01*
X74163D01*
G75*
G02*
X74096Y244664I1087J385D01*
G01*
Y247164D01*
X66275D01*
G37*
X76404D02*
G36*
X76404Y247164D02*
Y245142D01*
X77267Y244279D01*
X83709D01*
X85798Y245485D01*
G75*
G02*
X90970Y244279I1952J-3321D01*
G01*
X97846D01*
Y247164D01*
X76404D01*
G37*
X102654D02*
G36*
X102654Y247164D02*
Y244279D01*
X104530D01*
G75*
G02*
X110970I3220J-2115D01*
G01*
X112846D01*
Y247164D01*
X102654D01*
G37*
X115154D02*
G36*
X115154Y247164D02*
Y244279D01*
X119788D01*
G75*
G02*
X117791Y247163I1086J2885D01*
G01*
Y247164D01*
X115154D01*
G37*
X123957Y247163D02*
G36*
X123957Y247163D02*
G75*
G02*
X121960Y244279I-3082J0D01*
G01*
X140346D01*
Y247164D01*
X123957D01*
Y247163D01*
G37*
X142654Y247164D02*
G36*
X142654Y247164D02*
Y244279D01*
X142846D01*
Y247164D01*
X142654D01*
G37*
X145154D02*
G36*
X145154Y247164D02*
Y244279D01*
X145346D01*
Y247164D01*
X145154D01*
G37*
X147654D02*
G36*
X147654Y247164D02*
Y244279D01*
X151039D01*
G75*
G02*
X149043Y247163I1086J2885D01*
G01*
Y247164D01*
X147654D01*
G37*
X153663Y244491D02*
G36*
X153663Y244491D02*
G75*
G02*
X153212Y244279I-1537J2672D01*
G01*
X166434D01*
G75*
G02*
X166100Y244446I1316J3043D01*
G01*
G75*
G02*
X166093Y244450I61J115D01*
G01*
X163118Y246168D01*
X160674D01*
G75*
G02*
X160093Y246010I-582J998D01*
G01*
X156293D01*
X153667Y244494D01*
G75*
G03*
X153663Y244491I9J-20D01*
G01*
G37*
X171061Y247164D02*
G36*
X171061Y247164D02*
G75*
G02*
X169065Y244279I-3311J158D01*
G01*
X212846D01*
Y247164D01*
X171061D01*
G37*
X217654D02*
G36*
X217654Y247164D02*
Y244279D01*
X217846D01*
Y247164D01*
X217654D01*
G37*
X220154D02*
G36*
X220154Y247164D02*
Y244279D01*
X230957D01*
Y247164D01*
X220154D01*
G37*
X39543Y252164D02*
G36*
X39543Y252164D02*
Y251504D01*
G75*
G02*
X41033Y252005I1491J-1969D01*
G01*
X57486D01*
G75*
G02*
X59339Y251169I1J-2468D01*
G01*
X66275Y247164D01*
X74096D01*
Y252164D01*
X39543D01*
G37*
X76404D02*
G36*
X76404Y252164D02*
Y247164D01*
X97846D01*
Y252164D01*
X91602D01*
G75*
G02*
X83898I-3852J0D01*
G01*
X76404D01*
G37*
X102654D02*
G36*
X102654Y252164D02*
Y247164D01*
X112846D01*
Y252164D01*
X111602D01*
G75*
G02*
X103898I-3852J0D01*
G01*
X102654D01*
G37*
X115154D02*
G36*
X115154Y252164D02*
Y247164D01*
X117791D01*
Y247164D01*
G75*
G02*
X120874Y250246I3083J0D01*
G01*
G75*
G02*
X123957Y247164I0J-3082D01*
G01*
Y247164D01*
X140346D01*
Y252164D01*
X115154D01*
G37*
X142654D02*
G36*
X142654Y252164D02*
Y247164D01*
X142846D01*
Y252164D01*
X142654D01*
G37*
X145154D02*
G36*
X145154Y252164D02*
Y247164D01*
X145346D01*
Y252164D01*
X145154D01*
G37*
X147654D02*
G36*
X147654Y252164D02*
Y247164D01*
X149043D01*
G75*
G02*
X153663Y249836I3083J0D01*
G01*
G75*
G02*
X153667Y249833I-9J-20D01*
G01*
X156293Y248317D01*
X159668D01*
G75*
G02*
X160250Y248475I582J-998D01*
G01*
X163118D01*
X166093Y250192D01*
G75*
G02*
X166100Y250196I21J-28D01*
G01*
G75*
G02*
X171065Y247321I1650J-2876D01*
G01*
G75*
G02*
X171061Y247164I-3316J4D01*
G01*
X212846D01*
Y252164D01*
X147654D01*
G37*
X217654D02*
G36*
X217654Y252164D02*
Y247164D01*
X217846D01*
Y252164D01*
X217654D01*
G37*
X220154D02*
G36*
X220154Y252164D02*
Y247164D01*
X230957D01*
Y252164D01*
X220154D01*
G37*
X39543Y254990D02*
G36*
X39543Y254990D02*
Y252164D01*
X74096D01*
Y257164D01*
X59955D01*
Y256958D01*
G75*
G02*
Y256957I-3470J0D01*
G01*
G75*
G02*
X57486Y254489I-2469J0D01*
G01*
X41033D01*
G75*
G02*
X39543Y254990I1J2469D01*
G01*
G37*
X76404Y257164D02*
G36*
X76404Y257164D02*
Y252164D01*
X83898D01*
G75*
G02*
X87537Y256010I3852J0D01*
G01*
X82750D01*
G75*
G02*
X81933Y256350I0J1154D01*
G01*
X81119Y257164D01*
X76404D01*
G37*
X91602Y252164D02*
G36*
X91602Y252164D02*
X97846D01*
Y252936D01*
X94772Y256010D01*
X87963D01*
G75*
G02*
X91602Y252164I-213J-3846D01*
G01*
G37*
X102654Y257164D02*
G36*
X102654Y257164D02*
Y252164D01*
X103898D01*
G75*
G02*
X111602I3852J0D01*
G01*
X112846D01*
Y255914D01*
G75*
G02*
X113186Y256731I1154J0D01*
G01*
X113619Y257164D01*
X102654D01*
G37*
X115154Y255436D02*
G36*
X115154Y255436D02*
Y252164D01*
X140346D01*
Y257164D01*
X123957D01*
Y257163D01*
G75*
G02*
X119337Y254491I-3083J0D01*
G01*
G75*
G02*
X119333Y254494I9J20D01*
G01*
X116707Y256010D01*
X115728D01*
X115154Y255436D01*
G37*
X142654Y257164D02*
G36*
X142654Y257164D02*
Y252164D01*
X142846D01*
Y257164D01*
X142654D01*
G37*
X145154D02*
G36*
X145154Y257164D02*
Y252164D01*
X145346D01*
Y257164D01*
X145154D01*
G37*
X147654D02*
G36*
X147654Y257164D02*
Y252164D01*
X212846D01*
Y257164D01*
X203747D01*
G75*
G02*
X188623I-7562J5443D01*
G01*
X171463D01*
G75*
G02*
X164037I-3713J0D01*
G01*
X159381D01*
X158567Y256350D01*
G75*
G02*
X157750Y256010I-817J814D01*
G01*
X156293D01*
X153667Y254494D01*
G75*
G03*
X153663Y254491I9J-20D01*
G01*
G75*
G02*
X149043Y257163I-1537J2672D01*
G01*
Y257164D01*
X147654D01*
G37*
X217654D02*
G36*
X217654Y257164D02*
Y252164D01*
X217846D01*
Y257164D01*
X217654D01*
G37*
X220154D02*
G36*
X220154Y257164D02*
Y252164D01*
X230957D01*
Y257164D01*
X220154D01*
G37*
X59955Y263556D02*
G36*
X59955Y263556D02*
Y257164D01*
X74096D01*
Y263556D01*
X59955D01*
G37*
X76404D02*
G36*
X76404Y263556D02*
Y257164D01*
X81119D01*
X79436Y258847D01*
G75*
G02*
X79096Y259664I814J817D01*
G01*
Y263556D01*
X76404D01*
G37*
X81404D02*
G36*
X81404Y263556D02*
Y260142D01*
X83228Y258317D01*
X87539D01*
G75*
G02*
X83898Y262164I211J3847D01*
G01*
G75*
G02*
X84158Y263556I3852J0D01*
G01*
X81404D01*
G37*
X93044D02*
G36*
X93044Y263556D02*
X93456Y263317D01*
X96500D01*
G75*
G02*
X97317Y262978I0J-1154D01*
G01*
X102314Y257981D01*
G75*
G02*
X102654Y257164I-814J-817D01*
G01*
X113619D01*
X114433Y257978D01*
G75*
G02*
X115250Y258317I817J-814D01*
G01*
X116707D01*
X119333Y259833D01*
G75*
G03*
X119337Y259836I-9J20D01*
G01*
G75*
G02*
X123957Y257164I1537J-2672D01*
G01*
Y257164D01*
X140346D01*
Y263556D01*
X115154D01*
Y263414D01*
G75*
G02*
X114814Y262597I-1154J0D01*
G01*
X113567Y261350D01*
G75*
G02*
X112750Y261010I-817J814D01*
G01*
X111426D01*
G75*
G02*
X103898Y262164I-3676J1154D01*
G01*
G75*
G02*
X104158Y263556I3852J0D01*
G01*
X93044D01*
G37*
X111342D02*
G36*
X111342Y263556D02*
G75*
G02*
X111426Y263317I-3593J-1393D01*
G01*
X112272D01*
X112510Y263556D01*
X111342D01*
G37*
X142654D02*
G36*
X142654Y263556D02*
Y257164D01*
X142846D01*
Y263556D01*
X142654D01*
G37*
X145154D02*
G36*
X145154Y263556D02*
Y257164D01*
X145346D01*
Y263556D01*
X145154D01*
G37*
X147654D02*
G36*
X147654Y263556D02*
Y257164D01*
X149043D01*
G75*
G02*
X153663Y259836I3083J0D01*
G01*
G75*
G02*
X153667Y259833I-9J-20D01*
G01*
X156293Y258317D01*
X157272D01*
X159096Y260142D01*
Y263556D01*
X147654D01*
G37*
X161064Y258847D02*
G36*
X161064Y258847D02*
X159381Y257164D01*
X164037D01*
G75*
G02*
X171463I3713J0D01*
G01*
X188623D01*
G75*
G02*
X186868Y262607I7562J5443D01*
G01*
G75*
G02*
X186917Y263556I9317J0D01*
G01*
X161404D01*
Y259664D01*
G75*
G02*
X161064Y258847I-1154J0D01*
G01*
G37*
X205502Y262607D02*
G36*
X205502Y262607D02*
G75*
G02*
X203747Y257164I-9317J0D01*
G01*
X212846D01*
Y263556D01*
X205454D01*
G75*
G02*
X205502Y262607I-9269J-949D01*
G01*
G37*
X217654Y263556D02*
G36*
X217654Y263556D02*
Y257164D01*
X217846D01*
Y263556D01*
X217654D01*
G37*
X220154D02*
G36*
X220154Y263556D02*
Y257164D01*
X230957D01*
Y263556D01*
X220154D01*
G37*
X39543Y270990D02*
G36*
X39543Y270990D02*
Y267504D01*
G75*
G02*
X41033Y268005I1491J-1969D01*
G01*
X57486D01*
G75*
G02*
X59955Y265537I0J-2468D01*
G01*
Y263556D01*
X74096D01*
Y274279D01*
X59955D01*
Y272958D01*
G75*
G02*
Y272957I-3470J0D01*
G01*
G75*
G02*
X57486Y270489I-2469J0D01*
G01*
X41033D01*
G75*
G02*
X39543Y270990I1J2469D01*
G01*
G37*
X76404Y274279D02*
G36*
X76404Y274279D02*
Y263556D01*
X79096D01*
Y270914D01*
G75*
G02*
X79436Y271731I1154J0D01*
G01*
X80683Y272978D01*
G75*
G02*
X81500Y273317I817J-814D01*
G01*
X82044D01*
X83709Y274279D01*
X76404D01*
G37*
X81404Y270436D02*
G36*
X81404Y270436D02*
Y263556D01*
X84158D01*
G75*
G02*
X89702Y265485I3592J-1392D01*
G01*
X93044Y263556D01*
X104158D01*
G75*
G02*
X111342I3592J-1392D01*
G01*
X112510D01*
X112846Y263892D01*
Y265914D01*
G75*
G02*
X113186Y266731I1154J0D01*
G01*
X114433Y267978D01*
G75*
G02*
X115250Y268317I817J-814D01*
G01*
X116707D01*
X119333Y269833D01*
G75*
G03*
X119337Y269836I-9J20D01*
G01*
G75*
G02*
X123957Y267164I1537J-2672D01*
G01*
Y267164D01*
Y267163D01*
G75*
G02*
X119337Y264491I-3083J0D01*
G01*
G75*
G02*
X119333Y264494I9J20D01*
G01*
X116707Y266010D01*
X115728D01*
X115154Y265436D01*
Y263556D01*
X140346D01*
Y274279D01*
X121961D01*
G75*
G02*
X119788I-1086J2885D01*
G01*
X115154D01*
Y273414D01*
G75*
G02*
X114814Y272597I-1154J0D01*
G01*
X113567Y271350D01*
G75*
G02*
X112750Y271010I-817J814D01*
G01*
X111426D01*
G75*
G02*
X103898Y272164I-3676J1154D01*
G01*
G75*
G02*
X104530Y274279I3852J0D01*
G01*
X90970D01*
G75*
G02*
X91602Y272164I-3220J-2115D01*
G01*
G75*
G02*
X85798Y268843I-3852J0D01*
G01*
X82044Y271010D01*
X81978D01*
X81404Y270436D01*
G37*
X110970Y274279D02*
G36*
X110970Y274279D02*
G75*
G02*
X111426Y273317I-3220J-2116D01*
G01*
X112272D01*
X112846Y273892D01*
Y274279D01*
X110970D01*
G37*
X142654D02*
G36*
X142654Y274279D02*
Y263556D01*
X142846D01*
Y274279D01*
X142654D01*
G37*
X145154Y274186D02*
G36*
X145154Y274186D02*
Y263556D01*
X145346D01*
Y265914D01*
G75*
G02*
X145686Y266731I1154J0D01*
G01*
X146933Y267978D01*
G75*
G02*
X147750Y268317I817J-814D01*
G01*
X147959D01*
X150585Y269833D01*
G75*
G03*
X150589Y269836I-9J20D01*
G01*
G75*
G02*
X155209Y267164I1537J-2672D01*
G01*
Y267164D01*
Y267163D01*
G75*
G02*
X150589Y264491I-3083J0D01*
G01*
G75*
G02*
X150585Y264494I9J20D01*
G01*
X148130Y265912D01*
X147654Y265436D01*
Y263556D01*
X159096D01*
Y264506D01*
G75*
G02*
X159436Y265323I1154J0D01*
G01*
X161933Y267820D01*
G75*
G02*
X162750Y268160I817J-814D01*
G01*
X163118D01*
X166093Y269877D01*
G75*
G02*
X166100Y269881I21J-28D01*
G01*
G75*
G02*
X171065Y267006I1650J-2876D01*
G01*
G75*
G02*
X166100Y264131I-3315J0D01*
G01*
G75*
G02*
X166093Y264135I61J115D01*
G01*
X163187Y265813D01*
X161404Y264028D01*
Y263556D01*
X186917D01*
G75*
G02*
X205454I9269J-949D01*
G01*
X212846D01*
Y274186D01*
X212754Y274279D01*
X153213D01*
G75*
G02*
X151040I-1086J2885D01*
G01*
X145246D01*
X145154Y274186D01*
G37*
X217654Y274279D02*
G36*
X217654Y274279D02*
Y263556D01*
X217846D01*
Y274279D01*
X217654D01*
G37*
X220154Y263922D02*
G36*
X220154Y263922D02*
Y263556D01*
X230957D01*
Y263816D01*
G75*
G02*
X230829Y263809I-130J1256D01*
G01*
X220671D01*
G75*
G02*
X220154Y263922I0J1248D01*
G01*
G37*
X39543Y284447D02*
G36*
X39543Y284447D02*
Y283504D01*
G75*
G02*
X41033Y284005I1491J-1969D01*
G01*
X57486D01*
G75*
G02*
X59955Y281537I0J-2468D01*
G01*
Y274279D01*
X74096D01*
Y282164D01*
G75*
G02*
X74436Y282981I1154J0D01*
G01*
X75902Y284447D01*
X39543D01*
G37*
X76404Y281686D02*
G36*
X76404Y281686D02*
Y274279D01*
X83709D01*
X85798Y275485D01*
G75*
G02*
X90970Y274279I1952J-3321D01*
G01*
X104530D01*
G75*
G02*
X110970I3220J-2115D01*
G01*
X112846D01*
Y275914D01*
G75*
G02*
X113186Y276731I1154J0D01*
G01*
X114433Y277978D01*
G75*
G02*
X115250Y278317I817J-814D01*
G01*
X116707D01*
X119333Y279833D01*
G75*
G03*
X119337Y279836I-9J20D01*
G01*
G75*
G02*
X123957Y277164I1537J-2672D01*
G01*
Y277164D01*
Y277163D01*
G75*
G02*
X121961Y274279I-3082J0D01*
G01*
X140346D01*
Y282164D01*
G75*
G02*
X140686Y282981I1154J0D01*
G01*
X142152Y284447D01*
X122331D01*
G75*
G02*
X119417I-1457J2716D01*
G01*
X115587D01*
G75*
G02*
X106882I-4352J0D01*
G01*
X89996D01*
G75*
G02*
X83446Y280690I-4352J0D01*
G01*
X78937Y283294D01*
X78011D01*
X76404Y281686D01*
G37*
X115154Y275436D02*
G36*
X115154Y275436D02*
Y274279D01*
X119788D01*
G75*
G02*
X119337Y274491I1086J2885D01*
G01*
G75*
G02*
X119333Y274494I9J20D01*
G01*
X116707Y276010D01*
X115728D01*
X115154Y275436D01*
G37*
X142654Y281686D02*
G36*
X142654Y281686D02*
Y274279D01*
X142846D01*
Y274664D01*
G75*
G02*
X143186Y275481I1154J0D01*
G01*
X145683Y277978D01*
G75*
G02*
X146500Y278317I817J-814D01*
G01*
X147959D01*
X150585Y279833D01*
G75*
G03*
X150589Y279836I-9J20D01*
G01*
G75*
G02*
X155209Y277164I1537J-2672D01*
G01*
Y277164D01*
Y277163D01*
G75*
G02*
X153213Y274279I-3082J0D01*
G01*
X212754D01*
X202585Y284447D01*
X153583D01*
G75*
G02*
X150669I-1457J2716D01*
G01*
X145415D01*
X142654Y281686D01*
G37*
X146978Y276010D02*
G36*
X146978Y276010D02*
X145246Y274279D01*
X151040D01*
G75*
G02*
X150589Y274491I1086J2885D01*
G01*
G75*
G02*
X150585Y274494I9J20D01*
G01*
X147959Y276010D01*
X146978D01*
G37*
X210085Y284447D02*
G36*
X210085Y284447D02*
X209598D01*
X217314Y276731D01*
G75*
G02*
X217654Y275914I-814J-817D01*
G01*
Y274279D01*
X217846D01*
Y276686D01*
X210085Y284447D01*
G37*
X213348D02*
G36*
X213348Y284447D02*
X219421Y278374D01*
Y281516D01*
G75*
G02*
X220671Y282766I1250J0D01*
G01*
X224146D01*
Y284447D01*
X213348D01*
G37*
X39543Y302164D02*
G36*
X39543Y302164D02*
Y284447D01*
X75902D01*
X76717Y285261D01*
G75*
G02*
X77533Y285601I817J-814D01*
G01*
X78937D01*
X83446Y288204D01*
G75*
G02*
X89996Y284447I2197J-3757D01*
G01*
X106882D01*
G75*
G02*
X115587I4352J0D01*
G01*
X119417D01*
G75*
G02*
X119337Y284491I1458J2723D01*
G01*
G75*
G02*
X119333Y284494I9J20D01*
G01*
X116707Y286010D01*
X116500D01*
G75*
G02*
X115683Y286350I0J1154D01*
G01*
X114436Y287597D01*
G75*
G02*
X114096Y288414I814J817D01*
G01*
Y298373D01*
G75*
G02*
X106484Y302164I-2862J3791D01*
G01*
X90394D01*
G75*
G02*
X80894I-4750J0D01*
G01*
X55820D01*
G75*
G02*
X56130Y300029I-7182J-2135D01*
G01*
G75*
G02*
X41145I-7493J0D01*
G01*
G75*
G02*
X41456Y302164I7493J0D01*
G01*
X39543D01*
G37*
X115984Y302163D02*
G36*
X115984Y302163D02*
G75*
G02*
X115670Y300465I-4742J0D01*
G01*
X117369Y302164D01*
X115984D01*
G75*
G02*
Y302163I-5639J0D01*
G01*
G37*
X116404Y297936D02*
G36*
X116404Y297936D02*
Y288892D01*
X116879Y288417D01*
X119333Y289833D01*
G75*
G03*
X119337Y289836I-9J20D01*
G01*
G75*
G02*
X123957Y287164I1537J-2672D01*
G01*
Y287164D01*
Y287163D01*
G75*
G02*
X122331Y284447I-3083J0D01*
G01*
X142152D01*
X145683Y287978D01*
G75*
G02*
X146500Y288317I817J-814D01*
G01*
X147959D01*
X150585Y289833D01*
G75*
G03*
X150589Y289836I-9J20D01*
G01*
G75*
G02*
X155209Y287164I1537J-2672D01*
G01*
Y287164D01*
Y287163D01*
G75*
G02*
X153583Y284447I-3083J0D01*
G01*
X202585D01*
X191022Y296010D01*
X156293D01*
X153667Y294494D01*
G75*
G03*
X153663Y294491I9J-20D01*
G01*
G75*
G02*
X149043Y297164I-1537J2672D01*
G01*
G75*
G02*
X150464Y299760I3083J0D01*
G01*
X135728D01*
X132317Y296350D01*
G75*
G02*
X131500Y296010I-817J814D01*
G01*
X125041D01*
X122415Y294494D01*
G75*
G03*
X122411Y294491I9J-20D01*
G01*
G75*
G02*
X117791Y297163I-1537J2672D01*
G01*
Y297164D01*
G75*
G02*
X122411Y299836I3083J0D01*
G01*
G75*
G02*
X122415Y299833I-9J-20D01*
G01*
X125041Y298317D01*
X131022D01*
X134433Y301728D01*
G75*
G02*
X135250Y302067I817J-814D01*
G01*
X191500D01*
G75*
G02*
X192317Y301728I0J-1154D01*
G01*
X209598Y284447D01*
X210085D01*
X192369Y302164D01*
X120631D01*
X116404Y297936D01*
G37*
X146978Y286010D02*
G36*
X146978Y286010D02*
X145415Y284447D01*
X150669D01*
G75*
G02*
X150589Y284491I1458J2723D01*
G01*
G75*
G02*
X150585Y284494I9J20D01*
G01*
X147959Y286010D01*
X146978D01*
G37*
X195631Y302164D02*
G36*
X195631Y302164D02*
X213348Y284447D01*
X224146D01*
Y293141D01*
G75*
G02*
X214371Y300276I-2283J7136D01*
G01*
G75*
G02*
X214613Y302164I7493J0D01*
G01*
X195631D01*
G37*
X228353Y296533D02*
G36*
X228353Y296533D02*
G75*
G02*
X226726Y294577I-6497J3750D01*
G01*
X230829D01*
G75*
G02*
X230957Y294570I-2J-1263D01*
G01*
Y302164D01*
X229114D01*
G75*
G02*
X229356Y300277I-7251J-1888D01*
G01*
G75*
G02*
X228353Y296533I-7493J0D01*
G01*
G37*
X39543Y305590D02*
G36*
X39543Y305590D02*
Y302164D01*
X41456D01*
G75*
G02*
X55820I7182J-2135D01*
G01*
X80894D01*
G75*
G02*
X90394I4750J0D01*
G01*
X106484D01*
G75*
G02*
X115984I4750J0D01*
G01*
X117369D01*
X119433Y304228D01*
G75*
G02*
X120250Y304567I817J-814D01*
G01*
X192750D01*
G75*
G02*
X193567Y304228I0J-1154D01*
G01*
X195631Y302164D01*
X214613D01*
G75*
G02*
X215374Y304021I7250J-1887D01*
G01*
G75*
G02*
X229114Y302164I6490J-3744D01*
G01*
X230957D01*
Y305590D01*
G75*
G03*
X227426Y309120I-5155J-1625D01*
G01*
X43074D01*
G75*
G03*
X39543Y305590I1625J-5155D01*
G01*
G37*
X120728Y302260D02*
G36*
X120728Y302260D02*
X120631Y302164D01*
X192369D01*
X192272Y302260D01*
X120728D01*
G37*
X39293Y159207D02*
Y155287D01*
G75*
G02*
X41033Y156005I1740J-1751D01*
G01*
X57486D01*
G75*
G02*
X59339Y155169I1J-2468D01*
G01*
X67597Y150401D01*
X76856D01*
X81596Y155142D01*
Y182164D01*
G75*
G02*
X81936Y182981I1154J0D01*
G01*
X100346Y201392D01*
Y256686D01*
X96022Y261010D01*
X93456D01*
X89702Y258843D01*
G75*
G02*
X87961Y258317I-1952J3321D01*
G01*
X95250D01*
G75*
G02*
X96067Y257978I0J-1154D01*
G01*
X99814Y254231D01*
G75*
G02*
X100154Y253414I-814J-817D01*
G01*
Y202164D01*
G75*
G02*
X99814Y201347I-1154J0D01*
G01*
X81404Y182936D01*
Y170247D01*
G75*
G02*
X81064Y169430I-1154J0D01*
G01*
X76067Y164433D01*
G75*
G02*
X75250Y164094I-817J814D01*
G01*
X67597D01*
X59339Y159326D01*
G75*
G02*
X57486Y158489I-1852J1632D01*
G01*
X41033D01*
G75*
G02*
X39293Y159207I-1J2468D01*
G01*
G36*
X39293Y159207D02*
Y155287D01*
G75*
G02*
X41033Y156005I1740J-1751D01*
G01*
X57486D01*
G75*
G02*
X59339Y155169I1J-2468D01*
G01*
X67597Y150401D01*
X76856D01*
X81596Y155142D01*
Y182164D01*
G75*
G02*
X81936Y182981I1154J0D01*
G01*
X100346Y201392D01*
Y256686D01*
X96022Y261010D01*
X93456D01*
X89702Y258843D01*
G75*
G02*
X87961Y258317I-1952J3321D01*
G01*
X95250D01*
G75*
G02*
X96067Y257978I0J-1154D01*
G01*
X99814Y254231D01*
G75*
G02*
X100154Y253414I-814J-817D01*
G01*
Y202164D01*
G75*
G02*
X99814Y201347I-1154J0D01*
G01*
X81404Y182936D01*
Y170247D01*
G75*
G02*
X81064Y169430I-1154J0D01*
G01*
X76067Y164433D01*
G75*
G02*
X75250Y164094I-817J814D01*
G01*
X67597D01*
X59339Y159326D01*
G75*
G02*
X57486Y158489I-1852J1632D01*
G01*
X41033D01*
G75*
G02*
X39293Y159207I-1J2468D01*
G01*
G37*
Y175207D02*
Y171287D01*
G75*
G02*
X41033Y172005I1740J-1751D01*
G01*
X57486D01*
G75*
G02*
X59339Y171169I1J-2468D01*
G01*
X67597Y166401D01*
X74772D01*
X79096Y170725D01*
Y183414D01*
G75*
G02*
X79436Y184231I1154J0D01*
G01*
X97846Y202642D01*
Y203283D01*
G75*
G02*
X97457Y202457I-1347J130D01*
G01*
X93707Y198707D01*
G75*
G02*
X92749Y198311I-956J957D01*
G01*
X60352D01*
Y192793D01*
G75*
G02*
X57651Y190092I-2702J0D01*
G01*
X40869D01*
G75*
G02*
X39293Y190599I0J2702D01*
G01*
Y187287D01*
G75*
G02*
X41033Y188005I1740J-1751D01*
G01*
X57486D01*
G75*
G02*
X59955Y185537I0J-2469D01*
G01*
Y176958D01*
G75*
G02*
X57486Y174489I-2469J0D01*
G01*
X41033D01*
G75*
G02*
X39293Y175207I0J2469D01*
G01*
G36*
X39293Y175207D02*
Y171287D01*
G75*
G02*
X41033Y172005I1740J-1751D01*
G01*
X57486D01*
G75*
G02*
X59339Y171169I1J-2468D01*
G01*
X67597Y166401D01*
X74772D01*
X79096Y170725D01*
Y183414D01*
G75*
G02*
X79436Y184231I1154J0D01*
G01*
X97846Y202642D01*
Y203283D01*
G75*
G02*
X97457Y202457I-1347J130D01*
G01*
X93707Y198707D01*
G75*
G02*
X92749Y198311I-956J957D01*
G01*
X60352D01*
Y192793D01*
G75*
G02*
X57651Y190092I-2702J0D01*
G01*
X40869D01*
G75*
G02*
X39293Y190599I0J2702D01*
G01*
Y187287D01*
G75*
G02*
X41033Y188005I1740J-1751D01*
G01*
X57486D01*
G75*
G02*
X59955Y185537I0J-2469D01*
G01*
Y176958D01*
G75*
G02*
X57486Y174489I-2469J0D01*
G01*
X41033D01*
G75*
G02*
X39293Y175207I0J2469D01*
G01*
G37*
X191022Y299760D02*
X153794D01*
X156293Y298317D01*
X191500D01*
G75*
G02*
X192317Y297978I0J-1154D01*
G01*
X214814Y275481D01*
G75*
G02*
X215154Y274664I-814J-817D01*
G01*
Y232272D01*
G75*
G02*
X214814Y231455I-1154J0D01*
G01*
X212317Y228958D01*
G75*
G02*
X211500Y228619I-817J814D01*
G01*
X207387D01*
X203707Y226493D01*
G75*
G02*
X198904Y227276I-1931J3279D01*
G01*
Y221363D01*
G75*
G02*
X203707Y222145I2872J-2496D01*
G01*
X207387Y220020D01*
X212725D01*
X215346Y222642D01*
Y275436D01*
X191022Y299760D01*
G36*
X191022Y299760D02*
X153794D01*
X156293Y298317D01*
X191500D01*
G75*
G02*
X192317Y297978I0J-1154D01*
G01*
X214814Y275481D01*
G75*
G02*
X215154Y274664I-814J-817D01*
G01*
Y232272D01*
G75*
G02*
X214814Y231455I-1154J0D01*
G01*
X212317Y228958D01*
G75*
G02*
X211500Y228619I-817J814D01*
G01*
X207387D01*
X203707Y226493D01*
G75*
G02*
X198904Y227276I-1931J3279D01*
G01*
Y221363D01*
G75*
G02*
X203707Y222145I2872J-2496D01*
G01*
X207387Y220020D01*
X212725D01*
X215346Y222642D01*
Y275436D01*
X191022Y299760D01*
G37*
X225801Y311839D02*
G75*
G02*
X233675Y303965I0J-7874D01*
G01*
Y122863D01*
G75*
G02*
X225801Y114989I-7874J0D01*
G01*
X44699D01*
G75*
G02*
X36825Y122863I0J7874D01*
G01*
Y303965D01*
G75*
G02*
X44699Y311839I7874J0D01*
G01*
X225801D01*
D02*
D77*
X39543Y222637D02*
Y203857D01*
G75*
G02*
X40930Y204255I1387J-2217D01*
G01*
X57590D01*
G75*
G02*
X60205Y201640I0J-2615D01*
G01*
Y199664D01*
X92750D01*
X96500Y203414D01*
Y219664D01*
X92750Y223414D01*
X91657D01*
G75*
G02*
X85704Y218608I-3907J-1250D01*
G01*
G75*
G02*
X85699Y218611I554J954D01*
G01*
X81976Y220760D01*
X80253D01*
G75*
G02*
X79257Y221171I-3J1404D01*
G01*
X77015Y223414D01*
X59991D01*
X59610Y223194D01*
G75*
G02*
X57590Y222239I-2020J1659D01*
G01*
X40930D01*
G75*
G02*
X39543Y222637I0J2615D01*
G01*
X85750Y208414D02*
G75*
G02*
X94750I4500J0D01*
G01*
G75*
G02*
X85750I-4500J0D01*
G01*
X69653Y220255D02*
G75*
G02*
X72268Y217640I0J-2615D01*
G01*
Y208854D01*
G75*
G02*
X69653Y206239I-2615J0D01*
G01*
X60867D01*
G75*
G02*
X58484Y207778I0J2615D01*
G01*
G75*
G02*
X55786Y205842I-2698J912D01*
G01*
X42734D01*
G75*
G02*
X39886Y208690I0J2848D01*
G01*
Y217805D01*
G75*
G02*
X42734Y220653I2848J0D01*
G01*
X55786D01*
G75*
G02*
X58484Y218717I0J-2848D01*
G01*
G75*
G02*
X60867Y220255I2383J-1077D01*
G01*
X69653D01*
X40043Y207756D02*
G36*
X40043Y207756D02*
Y204100D01*
G75*
G02*
X40930Y204255I888J-2462D01*
G01*
X57590D01*
G75*
G02*
X60205Y201641I0J-2615D01*
G01*
Y201640D01*
Y200164D01*
X93250D01*
X96000Y202914D01*
Y208414D01*
X94750D01*
G75*
G02*
X85750I-4500J0D01*
G01*
X72230D01*
G75*
G02*
X69653Y206239I-2577J440D01*
G01*
X60867D01*
G75*
G02*
X58484Y207778I0J2614D01*
G01*
G75*
G02*
X55786Y205842I-2698J912D01*
G01*
X42734D01*
G75*
G02*
X40043Y207756I0J2848D01*
G01*
G37*
Y222394D02*
G36*
X40043Y222394D02*
Y218739D01*
G75*
G02*
X42734Y220653I2691J-934D01*
G01*
X55786D01*
G75*
G02*
X58484Y218717I0J-2848D01*
G01*
G75*
G02*
X60867Y220255I2384J-1078D01*
G01*
X69653D01*
G75*
G02*
X72268Y217641I0J-2615D01*
G01*
Y217640D01*
Y208854D01*
Y208854D01*
G75*
G02*
X72230Y208414I-2615J0D01*
G01*
X85750D01*
G75*
G02*
X94750I4500J0D01*
G01*
X96000D01*
Y220164D01*
X93250Y222914D01*
X91783D01*
G75*
G02*
X91852Y222164I-4034J-749D01*
G01*
G75*
G02*
X85704Y218608I-4102J0D01*
G01*
G75*
G02*
X85699Y218611I9J20D01*
G01*
X81976Y220760D01*
X80253D01*
G75*
G02*
X79257Y221171I-3J1404D01*
G01*
X77515Y222914D01*
X59343D01*
G75*
G02*
X57590Y222239I-1753J1942D01*
G01*
X40930D01*
G75*
G02*
X40043Y222394I-1J2612D01*
G01*
G37*
X82644Y302164D02*
X80644D01*
X85644Y299164D02*
Y297164D01*
Y305164D02*
Y307164D01*
X87750Y208414D02*
X85750D01*
X88644Y302164D02*
X90644D01*
X90250Y205914D02*
Y203914D01*
Y210914D02*
Y212914D01*
X92750Y208414D02*
X94750D01*
X104000Y137164D02*
X102000D01*
X106500Y134664D02*
Y132664D01*
Y139664D02*
Y141664D01*
X108234Y302164D02*
X106234D01*
X109000Y137164D02*
X111000D01*
X111234Y299164D02*
Y297164D01*
Y305164D02*
Y307164D01*
X114234Y302164D02*
X116234D01*
X119650Y225940D02*
X118236Y224526D01*
X119650Y228387D02*
X118236Y229802D01*
X122098Y225940D02*
X123512Y224526D01*
X122098Y228387D02*
X123512Y229802D01*
X150396Y237164D02*
X148396D01*
X152126Y235433D02*
Y233433D01*
Y238894D02*
Y240894D01*
X153856Y237164D02*
X155856D01*
X163482Y205396D02*
X162068Y203982D01*
X163482Y208931D02*
X162068Y210346D01*
X165787Y257164D02*
X163787D01*
X167018Y205396D02*
X168432Y203982D01*
X167018Y208931D02*
X168432Y210346D01*
X167750Y255201D02*
Y253201D01*
Y259126D02*
Y261126D01*
X169713Y257164D02*
X171713D01*
X193754Y138455D02*
X191752D01*
X196254Y133987D02*
Y131987D01*
Y142924D02*
Y144924D01*
X198754Y138455D02*
X200752D01*
X199323Y197056D02*
X197323D01*
X201776Y194603D02*
Y192603D01*
Y199508D02*
Y201508D01*
X204228Y197056D02*
X206228D01*
D02*
D79*
X49260Y229247D02*
X73167D01*
X80250Y222164D01*
X87750D01*
X49260Y245247D02*
X70250D01*
X72750Y242747D01*
Y234664D01*
X75250Y232164D01*
X87750D01*
X67288Y149247D02*
X57968Y154628D01*
Y143866D01*
X67288Y149247D01*
G36*
X67288Y149247D02*
X57968Y154628D01*
Y143866D01*
X67288Y149247D01*
G37*
Y165247D02*
X57968Y170628D01*
Y159866D01*
X67288Y165247D01*
G36*
X67288Y165247D02*
X57968Y170628D01*
Y159866D01*
X67288Y165247D01*
G37*
Y229247D02*
X57968Y234628D01*
Y223866D01*
X67288Y229247D01*
G36*
X67288Y229247D02*
X57968Y234628D01*
Y223866D01*
X67288Y229247D01*
G37*
Y245247D02*
X57968Y250628D01*
Y239866D01*
X67288Y245247D01*
G36*
X67288Y245247D02*
X57968Y250628D01*
Y239866D01*
X67288Y245247D01*
G37*
X79246Y284447D02*
X84044Y287217D01*
G75*
G03*
Y281677I1599J-2770D01*
G01*
X79246Y284447D01*
G36*
X79246Y284447D02*
X84044Y287217D01*
G75*
G03*
Y281677I1599J-2770D01*
G01*
X79246Y284447D01*
G37*
X82352Y222164D02*
X86401Y224501D01*
G75*
G03*
Y219826I1350J-2337D01*
G01*
X82352Y222164D01*
G36*
X82352Y222164D02*
X86401Y224501D01*
G75*
G03*
Y219826I1350J-2337D01*
G01*
X82352Y222164D01*
G37*
Y232164D02*
X86401Y234501D01*
G75*
G03*
Y229826I1350J-2337D01*
G01*
X82352Y232164D01*
G36*
X82352Y232164D02*
X86401Y234501D01*
G75*
G03*
Y229826I1350J-2337D01*
G01*
X82352Y232164D01*
G37*
Y242164D02*
X86401Y244501D01*
G75*
G03*
Y239826I1350J-2337D01*
G01*
X82352Y242164D01*
G36*
X82352Y242164D02*
X86401Y244501D01*
G75*
G03*
Y239826I1350J-2337D01*
G01*
X82352Y242164D01*
G37*
Y272164D02*
X86401Y274501D01*
G75*
G03*
Y269826I1350J-2337D01*
G01*
X82352Y272164D01*
G36*
X82352Y272164D02*
X86401Y274501D01*
G75*
G03*
Y269826I1350J-2337D01*
G01*
X82352Y272164D01*
G37*
X87750Y242164D02*
X77750D01*
X75250Y244664D01*
Y282164D01*
X77533Y284447D01*
X85644D01*
X87750Y262164D02*
X96500D01*
X101500Y257164D01*
Y200914D01*
X82750Y182164D01*
Y154664D01*
X77333Y149247D01*
X49260D01*
X87750Y272164D02*
X81500D01*
X80250Y270914D01*
Y259664D01*
X82750Y257164D01*
X95250D01*
X99000Y253414D01*
Y202164D01*
X80250Y183414D01*
Y170247D01*
X75250Y165247D01*
X49260D01*
X93148Y262164D02*
X89099Y259826D01*
G75*
G03*
Y264501I-1350J2337D01*
G01*
X93148Y262164D01*
G36*
X93148Y262164D02*
X89099Y259826D01*
G75*
G03*
Y264501I-1350J2337D01*
G01*
X93148Y262164D01*
G37*
X107750Y222164D02*
X124000D01*
X127750Y218414D01*
Y199664D01*
X130250Y197164D01*
X152126D01*
X107750Y232164D02*
X112750D01*
X114000Y233414D01*
Y255914D01*
X115250Y257164D01*
X120874D01*
X112750Y202589D02*
X111852Y204145D01*
G75*
G03*
X113648I898J519D01*
G01*
X112750Y202589D01*
G36*
X112750Y202589D02*
X111852Y204145D01*
G75*
G03*
X113648I898J519D01*
G01*
X112750Y202589D01*
G37*
X113148Y222164D02*
X109099Y219826D01*
G75*
G03*
Y224501I-1350J2337D01*
G01*
X113148Y222164D01*
G36*
X113148Y222164D02*
X109099Y219826D01*
G75*
G03*
Y224501I-1350J2337D01*
G01*
X113148Y222164D01*
G37*
X117016Y257164D02*
X119909Y258835D01*
G75*
G03*
Y255493I965J-1671D01*
G01*
X117016Y257164D01*
G36*
X117016Y257164D02*
X119909Y258835D01*
G75*
G03*
Y255493I965J-1671D01*
G01*
X117016Y257164D01*
G37*
Y267164D02*
X119909Y268835D01*
G75*
G03*
Y265493I965J-1671D01*
G01*
X117016Y267164D01*
G36*
X117016Y267164D02*
X119909Y268835D01*
G75*
G03*
Y265493I965J-1671D01*
G01*
X117016Y267164D01*
G37*
Y277164D02*
X119909Y278835D01*
G75*
G03*
Y275493I965J-1671D01*
G01*
X117016Y277164D01*
G36*
X117016Y277164D02*
X119909Y278835D01*
G75*
G03*
Y275493I965J-1671D01*
G01*
X117016Y277164D01*
G37*
Y287164D02*
X119909Y288835D01*
G75*
G03*
Y285493I965J-1671D01*
G01*
X117016Y287164D01*
G36*
X117016Y287164D02*
X119909Y288835D01*
G75*
G03*
Y285493I965J-1671D01*
G01*
X117016Y287164D01*
G37*
X120874Y267164D02*
X115250D01*
X114000Y265914D01*
Y263414D01*
X112750Y262164D01*
X107750D01*
X120874Y277164D02*
X115250D01*
X114000Y275914D01*
Y273414D01*
X112750Y272164D01*
X107750D01*
X120874Y287164D02*
X116500D01*
X115250Y288414D01*
Y298414D01*
X120250Y303414D01*
X192750D01*
X219000Y277164D01*
Y212961D01*
X214000Y207961D01*
X201776D01*
X120874Y297164D02*
X131500D01*
X135250Y300914D01*
X191500D01*
X216500Y275914D01*
Y222164D01*
X213203Y218867D01*
X201776D01*
X124732Y297164D02*
X121839Y295493D01*
G75*
G03*
Y298835I-965J1671D01*
G01*
X124732Y297164D01*
G36*
X124732Y297164D02*
X121839Y295493D01*
G75*
G03*
Y298835I-965J1671D01*
G01*
X124732Y297164D01*
G37*
X124852Y157164D02*
X128901Y159501D01*
G75*
G03*
Y154826I1350J-2337D01*
G01*
X124852Y157164D01*
G36*
X124852Y157164D02*
X128901Y159501D01*
G75*
G03*
Y154826I1350J-2337D01*
G01*
X124852Y157164D01*
G37*
X130250Y137164D02*
Y145914D01*
X132750Y148414D01*
X144000D01*
X146254Y146160D01*
Y138455D01*
X130250Y142561D02*
X132587Y138513D01*
G75*
G03*
X127913I-2337J-1350D01*
G01*
X130250Y142561D01*
G36*
X130250Y142561D02*
X132587Y138513D01*
G75*
G03*
X127913I-2337J-1350D01*
G01*
X130250Y142561D01*
G37*
Y157164D02*
X116500D01*
X112750Y160914D01*
Y204664D01*
X135648Y157164D02*
X131599Y154826D01*
G75*
G03*
Y159501I-1350J2337D01*
G01*
X135648Y157164D01*
G36*
X135648Y157164D02*
X131599Y154826D01*
G75*
G03*
Y159501I-1350J2337D01*
G01*
X135648Y157164D01*
G37*
X146254Y145821D02*
X143917Y141773D01*
X148591D01*
X146254Y145821D01*
G36*
X146254Y145821D02*
X143917Y141773D01*
X148591D01*
X146254Y145821D01*
G37*
X148268Y187164D02*
X151161Y188835D01*
G75*
G03*
Y185493I965J-1671D01*
G01*
X148268Y187164D01*
G36*
X148268Y187164D02*
X151161Y188835D01*
G75*
G03*
Y185493I965J-1671D01*
G01*
X148268Y187164D01*
G37*
Y197164D02*
X151161Y198835D01*
G75*
G03*
Y195493I965J-1671D01*
G01*
X148268Y197164D01*
G36*
X148268Y197164D02*
X151161Y198835D01*
G75*
G03*
Y195493I965J-1671D01*
G01*
X148268Y197164D01*
G37*
Y267164D02*
X151161Y268835D01*
G75*
G03*
Y265493I965J-1671D01*
G01*
X148268Y267164D01*
G36*
X148268Y267164D02*
X151161Y268835D01*
G75*
G03*
Y265493I965J-1671D01*
G01*
X148268Y267164D01*
G37*
Y277164D02*
X151161Y278835D01*
G75*
G03*
Y275493I965J-1671D01*
G01*
X148268Y277164D01*
G36*
X148268Y277164D02*
X151161Y278835D01*
G75*
G03*
Y275493I965J-1671D01*
G01*
X148268Y277164D01*
G37*
Y287164D02*
X151161Y288835D01*
G75*
G03*
Y285493I965J-1671D01*
G01*
X148268Y287164D01*
G36*
X148268Y287164D02*
X151161Y288835D01*
G75*
G03*
Y285493I965J-1671D01*
G01*
X148268Y287164D01*
G37*
X152126Y167164D02*
X142750D01*
X140250Y164664D01*
Y159664D01*
X137750Y157164D01*
X130250D01*
X152126Y187164D02*
X147750D01*
X146500Y185914D01*
Y174664D01*
X149000Y172164D01*
X156500D01*
X159000Y169664D01*
Y153660D01*
X156254Y150914D01*
Y138455D01*
X152126Y217164D02*
X180250D01*
X181500Y218414D01*
X195250D01*
X197750Y220914D01*
Y234664D01*
X197189Y235225D01*
X190594D01*
X152126Y277164D02*
X146500D01*
X144000Y274664D01*
Y215914D01*
X147750Y212164D01*
X157750D01*
X159000Y213414D01*
X190594D01*
X152126Y287164D02*
X146500D01*
X141500Y282164D01*
Y207508D01*
X146500Y202508D01*
X190594D01*
X152126Y297164D02*
X191500D01*
X214000Y274664D01*
Y232272D01*
X211500Y229772D01*
X201776D01*
X155984Y177164D02*
X153091Y175493D01*
G75*
G03*
Y178835I-965J1671D01*
G01*
X155984Y177164D01*
G36*
X155984Y177164D02*
X153091Y175493D01*
G75*
G03*
Y178835I-965J1671D01*
G01*
X155984Y177164D01*
G37*
Y217164D02*
X153091Y215493D01*
G75*
G03*
Y218835I-965J1671D01*
G01*
X155984Y217164D01*
G36*
X155984Y217164D02*
X153091Y215493D01*
G75*
G03*
Y218835I-965J1671D01*
G01*
X155984Y217164D01*
G37*
Y247164D02*
X153091Y245493D01*
G75*
G03*
Y248835I-965J1671D01*
G01*
X155984Y247164D01*
G36*
X155984Y247164D02*
X153091Y245493D01*
G75*
G03*
Y248835I-965J1671D01*
G01*
X155984Y247164D01*
G37*
Y257164D02*
X153091Y255493D01*
G75*
G03*
Y258835I-965J1671D01*
G01*
X155984Y257164D01*
G36*
X155984Y257164D02*
X153091Y255493D01*
G75*
G03*
Y258835I-965J1671D01*
G01*
X155984Y257164D01*
G37*
Y297164D02*
X153091Y295493D01*
G75*
G03*
Y298835I-965J1671D01*
G01*
X155984Y297164D01*
G36*
X155984Y297164D02*
X153091Y295493D01*
G75*
G03*
Y298835I-965J1671D01*
G01*
X155984Y297164D01*
G37*
X156254Y145821D02*
X153917Y141773D01*
X158591D01*
X156254Y145821D01*
G36*
X156254Y145821D02*
X153917Y141773D01*
X158591D01*
X156254Y145821D01*
G37*
X163427Y247321D02*
X166669Y249193D01*
G75*
G03*
Y245450I1081J-1872D01*
G01*
X163427Y247321D01*
G36*
X163427Y247321D02*
X166669Y249193D01*
G75*
G03*
Y245450I1081J-1872D01*
G01*
X163427Y247321D01*
G37*
Y267006D02*
X166669Y268878D01*
G75*
G03*
Y265135I1081J-1872D01*
G01*
X163427Y267006D01*
G36*
X163427Y267006D02*
X166669Y268878D01*
G75*
G03*
Y265135I1081J-1872D01*
G01*
X163427Y267006D01*
G37*
X166254Y138455D02*
Y171160D01*
X160250Y177164D01*
X152126D01*
X166254Y145821D02*
X163917Y141773D01*
X168591D01*
X166254Y145821D01*
G36*
X166254Y145821D02*
X163917Y141773D01*
X168591D01*
X166254Y145821D01*
G37*
X167750Y247321D02*
X160250D01*
X160093Y247164D01*
X152126D01*
X167750Y267006D02*
X162750D01*
X160250Y264506D01*
Y259664D01*
X157750Y257164D01*
X152126D01*
X185291Y202508D02*
X189269Y204805D01*
G75*
G03*
Y200212I1326J-2296D01*
G01*
X185291Y202508D01*
G36*
X185291Y202508D02*
X189269Y204805D01*
G75*
G03*
Y200212I1326J-2296D01*
G01*
X185291Y202508D01*
G37*
Y213414D02*
X189269Y215710D01*
G75*
G03*
Y211117I1326J-2296D01*
G01*
X185291Y213414D01*
G36*
X185291Y213414D02*
X189269Y215710D01*
G75*
G03*
Y211117I1326J-2296D01*
G01*
X185291Y213414D01*
G37*
Y224319D02*
X189269Y226616D01*
G75*
G03*
Y222023I1326J-2296D01*
G01*
X185291Y224319D01*
G36*
X185291Y224319D02*
X189269Y226616D01*
G75*
G03*
Y222023I1326J-2296D01*
G01*
X185291Y224319D01*
G37*
X190594D02*
X177406D01*
X175250Y222164D01*
X149000D01*
X146500Y224664D01*
Y265914D01*
X147750Y267164D01*
X152126D01*
X195898Y235225D02*
X191920Y232928D01*
G75*
G03*
Y237521I-1326J2296D01*
G01*
X195898Y235225D01*
G36*
X195898Y235225D02*
X191920Y232928D01*
G75*
G03*
Y237521I-1326J2296D01*
G01*
X195898Y235225D01*
G37*
X207079Y207961D02*
X203101Y205665D01*
G75*
G03*
Y210257I-1326J2296D01*
G01*
X207079Y207961D01*
G36*
X207079Y207961D02*
X203101Y205665D01*
G75*
G03*
Y210257I-1326J2296D01*
G01*
X207079Y207961D01*
G37*
Y218867D02*
X203101Y216570D01*
G75*
G03*
Y221163I-1326J2296D01*
G01*
X207079Y218867D01*
G36*
X207079Y218867D02*
X203101Y216570D01*
G75*
G03*
Y221163I-1326J2296D01*
G01*
X207079Y218867D01*
G37*
Y229772D02*
X203101Y227476D01*
G75*
G03*
Y232069I-1326J2296D01*
G01*
X207079Y229772D01*
G36*
X207079Y229772D02*
X203101Y227476D01*
G75*
G03*
Y232069I-1326J2296D01*
G01*
X207079Y229772D01*
G37*
D02*
D80*
X49260Y191842D02*
Y189842D01*
X58602Y197247D02*
X60602D01*
D02*
D81*
X43708Y207695D02*
X41961Y205948D01*
X43708Y218799D02*
X41961Y220546D01*
X54812Y207695D02*
X56559Y205948D01*
X54812Y218799D02*
X56559Y220546D01*
D02*
D82*
X65250Y157164D03*
Y169664D03*
Y195914D03*
Y237164D03*
Y253414D03*
Y269664D03*
Y285914D03*
X85250Y195914D03*
X90250Y123414D03*
Y307164D03*
X130250Y123414D03*
Y307164D03*
X135250Y263414D03*
Y287164D03*
X170250Y123414D03*
Y307164D03*
X180250Y233414D03*
Y263414D03*
Y288414D03*
X209000Y224664D03*
Y258414D03*
X210250Y123414D03*
Y178414D03*
Y305914D03*
X229000Y138414D03*
Y178414D03*
Y218414D03*
Y258414D03*
D02*
D83*
X112750Y204664D03*
D02*
D84*
X106500Y208414D02*
Y199664D01*
X90250Y183414D01*
Y168414D01*
D02*
D85*
X225012Y265414D02*
X222059D01*
Y267136D01*
X222305Y267628D01*
X222797Y267874D01*
X223289Y267628D01*
X223535Y267136D01*
Y265414D01*
Y267136D02*
X225012Y267874D01*
X224766Y271319D02*
X225012Y271073D01*
Y270581D01*
Y270089D01*
X224766Y269597D01*
X224274Y269351D01*
X223535D01*
X223289Y269597D01*
X223043Y270089D01*
Y270581D01*
X223289Y271073D01*
X223535Y271319D01*
X223781D01*
X224028Y271073D01*
X224274Y270581D01*
Y270089D01*
X224028Y269597D01*
X223781Y269351D01*
X223043Y273288D02*
X225012Y274272D01*
X223043Y275256D01*
X225012Y277225D02*
X222059Y278455D01*
X225012Y279685D01*
X223781Y277717D02*
Y279193D01*
X229736Y267382D02*
Y265414D01*
X228014Y267136D01*
X227522Y267382D01*
X227030Y267136D01*
X226783Y266644D01*
Y265906D01*
X227030Y265414D01*
X229490Y269597D02*
X229736Y270089D01*
Y270581D01*
X229490Y271073D01*
X228998Y271319D01*
X227522D01*
X227030Y271073D01*
X226783Y270581D01*
Y270089D01*
X227030Y269597D01*
X227522Y269351D01*
X228998D01*
X229490Y269597D01*
X227030Y271073D01*
X229736Y275256D02*
Y273288D01*
X228014Y275010D01*
X227522Y275256D01*
X227030Y275010D01*
X226783Y274518D01*
Y273780D01*
X227030Y273288D01*
X229490Y277471D02*
X229736Y277963D01*
Y278455D01*
X229490Y278947D01*
X228998Y279193D01*
X228506Y278947D01*
X228260Y278455D01*
Y277963D01*
Y278455D02*
X228014Y278947D01*
X227522Y279193D01*
X227030Y278947D01*
X226783Y278455D01*
Y277963D01*
X227030Y277471D01*
X229736Y281162D02*
X226783Y283622D01*
X229490Y285345D02*
X229736Y285837D01*
Y286329D01*
X229490Y286821D01*
X228998Y287067D01*
X227522D01*
X227030Y286821D01*
X226783Y286329D01*
Y285837D01*
X227030Y285345D01*
X227522Y285099D01*
X228998D01*
X229490Y285345D01*
X227030Y286821D01*
X229736Y290266D02*
X226783D01*
X228752Y289036D01*
Y291004D01*
D02*
D86*
X49260Y149247D03*
Y165247D03*
Y181247D03*
Y197247D03*
Y229247D03*
Y245247D03*
Y261247D03*
Y277247D03*
D02*
D87*
Y213247D03*
D02*
D88*
X65260D03*
D02*
D89*
X190594Y191603D03*
Y202508D03*
Y213414D03*
Y224319D03*
Y235225D03*
X201776Y197056D03*
Y207961D03*
Y218867D03*
Y229772D03*
D02*
D90*
X196185Y164221D03*
Y262607D03*
D02*
D91*
X146254Y138455D03*
X156254D03*
X166254D03*
X176254D03*
X186254D03*
X196254D03*
D02*
D92*
X152126Y167164D03*
D02*
D93*
X120874D03*
Y177164D03*
Y187164D03*
Y197164D03*
Y207164D03*
Y217164D03*
Y227164D03*
Y237164D03*
Y247164D03*
Y257164D03*
Y267164D03*
Y277164D03*
Y287164D03*
Y297164D03*
X152126Y177164D03*
Y187164D03*
Y197164D03*
Y207164D03*
Y217164D03*
Y227164D03*
Y237164D03*
Y247164D03*
Y257164D03*
Y267164D03*
Y277164D03*
Y287164D03*
Y297164D03*
D02*
D94*
X87750Y222164D03*
Y232164D03*
Y242164D03*
Y252164D03*
Y262164D03*
Y272164D03*
X90250Y168414D03*
Y208414D03*
X106500Y137164D03*
Y152164D03*
Y168414D03*
Y208414D03*
X107750Y222164D03*
Y232164D03*
Y242164D03*
Y252164D03*
Y262164D03*
Y272164D03*
X130250Y137164D03*
Y157164D03*
X165250Y207164D03*
Y227164D03*
D02*
D95*
X167750Y247321D03*
Y257164D03*
Y267006D03*
D02*
D96*
X85644Y284447D03*
Y302164D03*
X111234Y284447D03*
Y302164D03*
X0Y0D02*
M02*
