G04 DesignSpark PCB PRO Gerber Version 10.0 Build 5299*
G04 #@! TF.Part,Single*
G04 #@! TF.FileFunction,Soldermask,Bot*
G04 #@! TF.FilePolarity,Negative*
%FSLAX35Y35*%
%MOIN*%
G04 #@! TA.AperFunction,ComponentPad*
%AMT12*0 Rounded Rectangle Pad at angle 90*4,1,56,0.06006,-0.03978,0.06006,0.03978,0.05991,0.04222,0.05946,0.04463,0.05874,0.04697,0.05773,0.04920,0.05646,0.05130,0.05495,0.05322,0.05322,0.05496,0.05129,0.05647,0.04920,0.05774,0.04696,0.05874,0.04463,0.05947,0.04222,0.05991,0.03978,0.06006,-0.03978,0.06006,-0.04222,0.05991,-0.04463,0.05946,-0.04697,0.05874,-0.04920,0.05773,-0.05130,0.05646,-0.05322,0.05495,-0.05496,0.05322,-0.05647,0.05129,-0.05774,0.04920,-0.05874,0.04696,-0.05947,0.04463,-0.05991,0.04222,-0.06006,0.03978,-0.06006,-0.03978,-0.05991,-0.04222,-0.05946,-0.04463,-0.05874,-0.04697,-0.05773,-0.04920,-0.05646,-0.05130,-0.05495,-0.05322,-0.05322,-0.05496,-0.05129,-0.05647,-0.04920,-0.05774,-0.04696,-0.05874,-0.04463,-0.05947,-0.04222,-0.05991,-0.03978,-0.06006,0.03978,-0.06006,0.04222,-0.05991,0.04463,-0.05946,0.04697,-0.05874,0.04920,-0.05773,0.05130,-0.05646,0.05322,-0.05495,0.05496,-0.05322,0.05647,-0.05129,0.05774,-0.04920,0.05874,-0.04696,0.05947,-0.04463,0.05991,-0.04222,0.06006,-0.03978,0*%
%ADD12T12*%
%AMT11*0 Rounded Rectangle Pad at angle 90*4,1,56,0.07974,-0.03978,0.07974,0.03978,0.07959,0.04222,0.07915,0.04463,0.07842,0.04697,0.07742,0.04920,0.07615,0.05130,0.07464,0.05322,0.07291,0.05496,0.07098,0.05647,0.06888,0.05774,0.06665,0.05874,0.06431,0.05947,0.06190,0.05991,0.05946,0.06006,-0.05946,0.06006,-0.06191,0.05991,-0.06431,0.05946,-0.06665,0.05874,-0.06889,0.05773,-0.07098,0.05646,-0.07291,0.05495,-0.07464,0.05322,-0.07615,0.05129,-0.07742,0.04920,-0.07843,0.04696,-0.07915,0.04463,-0.07959,0.04222,-0.07974,0.03978,-0.07974,-0.03978,-0.07959,-0.04222,-0.07915,-0.04463,-0.07842,-0.04697,-0.07742,-0.04920,-0.07615,-0.05130,-0.07464,-0.05322,-0.07291,-0.05496,-0.07098,-0.05647,-0.06888,-0.05774,-0.06665,-0.05874,-0.06431,-0.05947,-0.06190,-0.05991,-0.05946,-0.06006,0.05946,-0.06006,0.06191,-0.05991,0.06431,-0.05946,0.06665,-0.05874,0.06889,-0.05773,0.07098,-0.05646,0.07291,-0.05495,0.07464,-0.05322,0.07615,-0.05129,0.07742,-0.04920,0.07843,-0.04696,0.07915,-0.04463,0.07959,-0.04222,0.07974,-0.03978,0*%
%ADD11T11*%
%AMT10*0 Rounded Rectangle Pad at angle 90*4,1,56,0.09943,-0.03978,0.09943,0.03978,0.09928,0.04222,0.09883,0.04463,0.09811,0.04697,0.09710,0.04920,0.09583,0.05130,0.09432,0.05322,0.09259,0.05496,0.09066,0.05647,0.08857,0.05774,0.08633,0.05874,0.08400,0.05947,0.08159,0.05991,0.07915,0.06006,-0.07915,0.06006,-0.08159,0.05991,-0.08400,0.05946,-0.08634,0.05874,-0.08857,0.05773,-0.09067,0.05646,-0.09259,0.05495,-0.09433,0.05322,-0.09584,0.05129,-0.09711,0.04920,-0.09811,0.04696,-0.09884,0.04463,-0.09928,0.04222,-0.09943,0.03978,-0.09943,-0.03978,-0.09928,-0.04222,-0.09883,-0.04463,-0.09811,-0.04697,-0.09710,-0.04920,-0.09583,-0.05130,-0.09432,-0.05322,-0.09259,-0.05496,-0.09066,-0.05647,-0.08857,-0.05774,-0.08633,-0.05874,-0.08400,-0.05947,-0.08159,-0.05991,-0.07915,-0.06006,0.07915,-0.06006,0.08159,-0.05991,0.08400,-0.05946,0.08634,-0.05874,0.08857,-0.05773,0.09067,-0.05646,0.09259,-0.05495,0.09433,-0.05322,0.09584,-0.05129,0.09711,-0.04920,0.09811,-0.04696,0.09884,-0.04463,0.09928,-0.04222,0.09943,-0.03978,0*%
%ADD10T10*%
%ADD15O,0.06200X0.10137*%
%ADD17R,0.04661X0.04661*%
G04 #@! TD.AperFunction*
%ADD20C,0.00500*%
G04 #@! TA.AperFunction,ComponentPad*
%ADD18C,0.04661*%
%ADD70C,0.05125*%
%ADD13C,0.06106*%
%ADD19C,0.06200*%
%ADD71C,0.07200*%
%ADD14C,0.17129*%
G04 #@! TD.AperFunction*
X0Y0D02*
D02*
D10*
X49260Y149247D03*
Y165247D03*
Y181247D03*
Y197247D03*
Y229247D03*
Y245247D03*
Y261247D03*
Y277247D03*
D02*
D11*
Y213247D03*
D02*
D12*
X65260D03*
D02*
D13*
X190594Y191603D03*
Y202508D03*
Y213414D03*
Y224319D03*
Y235225D03*
X201776Y197056D03*
Y207961D03*
Y218867D03*
Y229772D03*
D02*
D14*
X196185Y164221D03*
Y262607D03*
D02*
D15*
X146254Y138455D03*
X156254D03*
X166254D03*
X176254D03*
X186254D03*
X196254D03*
D02*
D17*
X152126Y167164D03*
D02*
D18*
X120874D03*
Y177164D03*
Y187164D03*
Y197164D03*
Y207164D03*
Y217164D03*
Y227164D03*
Y237164D03*
Y247164D03*
Y257164D03*
Y267164D03*
Y277164D03*
Y287164D03*
Y297164D03*
X152126Y177164D03*
Y187164D03*
Y197164D03*
Y207164D03*
Y217164D03*
Y227164D03*
Y237164D03*
Y247164D03*
Y257164D03*
Y267164D03*
Y277164D03*
Y287164D03*
Y297164D03*
D02*
D19*
X87750Y222164D03*
Y232164D03*
Y242164D03*
Y252164D03*
Y262164D03*
Y272164D03*
X90250Y168414D03*
Y208414D03*
X106500Y137164D03*
Y152164D03*
Y168414D03*
Y208414D03*
X107750Y222164D03*
Y232164D03*
Y242164D03*
Y252164D03*
Y262164D03*
Y272164D03*
X130250Y137164D03*
Y157164D03*
X165250Y207164D03*
Y227164D03*
D02*
D70*
X167750Y247321D03*
Y257164D03*
Y267006D03*
D02*
D71*
X85644Y284447D03*
Y302164D03*
X111234Y284447D03*
Y302164D03*
D02*
D20*
X225801Y311839D02*
G75*
G02*
X233675Y303965I0J-7874D01*
G01*
Y122863D01*
G75*
G02*
X225801Y114989I-7874J0D01*
G01*
X44699D01*
G75*
G02*
X36825Y122863I0J7874D01*
G01*
Y303965D01*
G75*
G02*
X44699Y311839I7874J0D01*
G01*
X225801D01*
X0Y0D02*
M02*
